<?xml version="1.0" encoding="UTF-8"?>
<svg width="32px" height="32px" viewBox="0 0 32 32" version="1.1" xmlns="http://www.w3.org/2000/svg" xmlns:xlink="http://www.w3.org/1999/xlink">
    <title>kurobi</title>
    <g id="Page-1" stroke="none" stroke-width="1" fill="none" fill-rule="evenodd">
        <g id="kurobi" fill-rule="nonzero">
            <circle id="Oval" fill="#FBC118" transform="translate(16.000000, 16.000000) rotate(-89.646700) translate(-16.000000, -16.000000) " cx="16" cy="16" r="15.9022521"></circle>
            <path d="M8.27985194,6.125 C8.56016119,6.27882856 8.91425869,6.7264655 9.145815,6.95802181 C9.3922015,7.20440837 9.69457462,7.55585712 9.96268894,7.82430756 C10.3625679,8.22386387 10.7855058,8.64712437 11.2209612,9.08224369 C11.3405309,9.20213612 11.5358519,9.46169912 11.6620099,9.4745395 C11.8355898,9.492005 12.1603763,9.21564875 12.3484503,9.11484875 C13.015462,8.75779325 13.8566856,8.50120169 14.7015931,8.36318487 C15.9615595,8.1579815 17.2958788,8.29402181 18.3616939,8.60825375 C20.4800133,9.23310081 21.8987696,10.5355008 22.9695595,12.2684084 C23.3219629,13.1314134 23.7103999,14.0029697 23.8519797,15.0952722 C23.9939629,16.1871714 23.9014587,17.4094907 23.9014587,18.6413563 C23.9014587,19.2520454 23.8849209,19.8686504 23.8849209,20.4876756 C23.8849209,21.7159109 23.8685175,22.9125496 23.8685175,24.0991042 L23.8685174,24.2900223 C23.8682761,24.830246 23.863939,25.3639887 23.8033074,25.880079 C23.5977276,25.8375916 23.4823662,25.6406168 23.3457612,25.5038773 C22.5387696,24.6971546 21.7554419,23.8517092 20.8948032,23.0531882 C20.7705679,22.9379613 20.6176939,22.6747008 20.4697948,22.6609866 C20.2991729,22.645121 19.9540301,22.9323142 19.8163494,23.0041126 C19.1713746,23.3417261 18.4286519,23.6016252 17.6269041,23.7558437 C16.4902317,23.9739277 15.1844166,23.9643815 14.0972234,23.7070369 C12.3118923,23.2841798 10.8767461,22.2702639 9.8651965,21.0433731 C9.71927381,20.8664319 9.61058138,20.6578941 9.47290069,20.4550033 C8.92018806,19.6411546 8.54073263,18.8360454 8.29632256,17.6934571 C8.07003681,16.6331546 8.13294775,15.2813563 8.13327044,13.9518773 C8.13360656,12.0361932 8.19849394,10.0615109 8.19849394,8.1019815 C8.19849394,7.46561175 8.21430575,6.76631762 8.24724688,6.17375294 C8.24625194,6.14608236 8.25910575,6.13191092 8.27985194,6.125 Z M16.2363831,12.3638706 C14.2837418,12.3638706 12.7008133,13.9467991 12.7008133,15.8994403 C12.7008133,17.8520816 14.2837418,19.4350101 16.2363831,19.4350101 C18.1890243,19.4350101 19.7719528,17.8520816 19.7719528,15.8994403 C19.7719528,13.9467991 18.1890243,12.3638706 16.2363831,12.3638706 Z" id="Combined-Shape" fill="#121212"></path>
        </g>
    </g>
</svg>