<?xml version="1.0" encoding="UTF-8"?>
<svg width="151px" height="41px" viewBox="0 0 151 41" version="1.1" xmlns="http://www.w3.org/2000/svg" xmlns:xlink="http://www.w3.org/1999/xlink">
    <!-- Generator: Sketch 50.2 (55047) - http://www.bohemiancoding.com/sketch -->
    <title>DCI_updated_logos_color_2c</title>
    <desc>Created with Sketch.</desc>
    <defs>
        <polygon id="path-1" points="0 0.95 150.353 0.95 150.353 40.94 0 40.94"></polygon>
    </defs>
    <g id="DCI_updated_logos_color_2c" stroke="none" stroke-width="1" fill="none" fill-rule="evenodd">
        <path d="M0.838,21.321 C0.838,10.644 9.494,1.987 20.172,1.987 C30.85,1.987 39.505,10.644 39.505,21.321 C39.505,31.999 30.85,40.655 20.172,40.655 C9.494,40.655 0.838,31.999 0.838,21.321" id="Fill-1" fill="#FFFFFE"></path>
        <path d="M54.817,19.446 C54.817,21.069 55.977,21.257 57.008,21.257 C61.559,21.257 63.052,17.825 63.052,14.687 C63.052,10.749 60.525,7.905 56.46,7.905 C55.596,7.905 55.198,7.966 54.817,7.989 L54.817,19.446 Z M52.753,9.567 C52.753,7.673 51.764,7.798 50.817,7.776 L50.817,7.231 C51.637,7.271 52.479,7.271 53.302,7.271 C54.186,7.271 55.387,7.231 56.946,7.231 C62.4,7.231 65.37,10.872 65.37,14.603 C65.37,16.689 64.149,21.933 56.693,21.933 C55.621,21.933 54.628,21.892 53.64,21.892 C52.691,21.892 51.764,21.913 50.817,21.933 L50.817,21.384 C52.078,21.257 52.691,21.216 52.753,19.784 L52.753,9.567 Z" id="Fill-2" fill="#1A1919"></path>
        <path d="M68.364,9.063 C67.814,9.063 67.33,8.558 67.33,8.011 C67.33,7.483 67.835,6.997 68.364,6.997 C68.91,6.997 69.396,7.44 69.396,8.011 C69.396,8.579 68.931,9.063 68.364,9.063 Z M66.109,21.384 L66.508,21.384 C67.099,21.384 67.519,21.384 67.519,20.687 L67.519,14.982 C67.519,14.054 67.205,13.927 66.423,13.509 L66.423,13.171 C67.415,12.874 68.593,12.478 68.678,12.411 C68.827,12.329 68.951,12.308 69.058,12.308 C69.162,12.308 69.205,12.433 69.205,12.601 L69.205,20.687 C69.205,21.384 69.669,21.384 70.257,21.384 L70.615,21.384 L70.615,21.933 C69.899,21.933 69.162,21.892 68.404,21.892 C67.646,21.892 66.888,21.913 66.109,21.933 L66.109,21.384 Z" id="Fill-3" fill="#1A1919"></path>
        <path d="M72.617,15.107 C72.617,14.329 72.385,14.118 71.396,13.72 L71.396,13.317 C72.3,13.023 73.164,12.747 74.175,12.308 C74.239,12.308 74.3,12.349 74.3,12.515 L74.3,13.888 C75.503,13.023 76.536,12.308 77.947,12.308 C79.738,12.308 80.369,13.612 80.369,15.255 L80.369,20.687 C80.369,21.384 80.834,21.384 81.421,21.384 L81.801,21.384 L81.801,21.933 C81.062,21.933 80.326,21.892 79.57,21.892 C78.81,21.892 78.052,21.913 77.294,21.933 L77.294,21.384 L77.673,21.384 C78.263,21.384 78.682,21.384 78.682,20.687 L78.682,15.235 C78.682,14.032 77.947,13.444 76.746,13.444 C76.071,13.444 74.998,13.991 74.3,14.456 L74.3,20.687 C74.3,21.384 74.767,21.384 75.357,21.384 L75.736,21.384 L75.736,21.933 C74.998,21.933 74.259,21.892 73.499,21.892 C72.744,21.892 71.984,21.913 71.226,21.933 L71.226,21.384 L71.608,21.384 C72.197,21.384 72.617,21.384 72.617,20.687 L72.617,15.107" id="Fill-4" fill="#1A1919"></path>
        <path d="M87.132,15.444 C87.657,15.444 87.718,15.171 87.718,14.919 C87.718,13.843 87.066,12.979 85.886,12.979 C84.603,12.979 83.718,13.927 83.465,15.444 L87.132,15.444 Z M83.404,16.12 C83.359,16.31 83.359,16.624 83.404,17.341 C83.527,19.343 84.814,20.985 86.498,20.985 C87.657,20.985 88.565,20.353 89.342,19.573 L89.637,19.868 C88.668,21.153 87.468,22.248 85.742,22.248 C82.391,22.248 81.718,19.005 81.718,17.657 C81.718,13.528 84.498,12.308 85.97,12.308 C87.677,12.308 89.512,13.38 89.531,15.612 C89.531,15.741 89.531,15.866 89.512,15.993 L89.32,16.12 L83.404,16.12 Z" id="Fill-5" fill="#1A1919"></path>
        <path d="M90.015,21.384 L90.586,21.384 C91.175,21.384 91.593,21.384 91.593,20.687 L91.593,14.771 C91.593,14.118 90.816,13.991 90.499,13.821 L90.499,13.509 C92.037,12.854 92.881,12.308 93.072,12.308 C93.196,12.308 93.259,12.368 93.259,12.581 L93.259,14.476 L93.304,14.476 C93.829,13.655 94.714,12.308 95.998,12.308 C96.525,12.308 97.198,12.663 97.198,13.423 C97.198,13.991 96.8,14.499 96.209,14.499 C95.554,14.499 95.554,13.991 94.818,13.991 C94.46,13.991 93.281,14.476 93.281,15.741 L93.281,20.687 C93.281,21.384 93.701,21.384 94.291,21.384 L95.47,21.384 L95.47,21.933 C94.312,21.913 93.429,21.892 92.523,21.892 C91.659,21.892 90.775,21.913 90.015,21.933 L90.015,21.384" id="Fill-6" fill="#1A1919"></path>
        <path d="M98.124,19.005 C98.4,20.394 99.242,21.575 100.78,21.575 C102.021,21.575 102.482,20.815 102.482,20.079 C102.482,17.595 97.894,18.392 97.894,15.003 C97.894,13.821 98.843,12.308 101.16,12.308 C101.833,12.308 102.738,12.497 103.559,12.917 L103.708,15.065 L103.223,15.065 C103.013,13.739 102.275,12.979 100.926,12.979 C100.083,12.979 99.285,13.466 99.285,14.37 C99.285,16.837 104.17,16.077 104.17,19.384 C104.17,20.773 103.054,22.248 100.548,22.248 C99.703,22.248 98.714,21.954 97.977,21.534 L97.746,19.11 L98.124,19.005" id="Fill-7" fill="#1A1919"></path>
        <path d="M123.189,11.042 L122.663,11.042 C122.263,8.579 120.514,7.589 118.158,7.589 C115.733,7.589 112.214,9.21 112.214,14.263 C112.214,18.521 115.252,21.575 118.493,21.575 C120.578,21.575 122.306,20.144 122.728,17.931 L123.21,18.056 L122.728,21.132 C121.843,21.681 119.46,22.248 118.07,22.248 C113.142,22.248 110.028,19.067 110.028,14.329 C110.028,10.011 113.879,6.913 118.009,6.913 C119.716,6.913 121.357,7.462 122.979,8.03 L123.189,11.042" id="Fill-8" fill="#1A1919"></path>
        <path d="M123.947,21.384 L124.349,21.384 C124.939,21.384 125.361,21.384 125.361,20.687 L125.361,8.96 C125.361,7.589 125.044,7.546 124.244,7.315 L124.244,6.978 C125.085,6.704 125.97,6.327 126.414,6.071 C126.644,5.946 126.814,5.839 126.876,5.839 C127.004,5.839 127.044,5.966 127.044,6.136 L127.044,20.687 C127.044,21.384 127.509,21.384 128.099,21.384 L128.457,21.384 L128.457,21.933 C127.744,21.933 127.004,21.892 126.244,21.892 C125.488,21.892 124.73,21.913 123.947,21.933 L123.947,21.384" id="Fill-9" fill="#1A1919"></path>
        <path d="M137.473,20.773 C137.473,21.153 137.703,21.173 138.062,21.173 C138.314,21.173 138.632,21.153 138.906,21.153 L138.906,21.597 C137.998,21.681 136.272,22.122 135.869,22.248 L135.765,22.186 L135.765,20.482 C134.503,21.513 133.531,22.248 132.035,22.248 C130.898,22.248 129.72,21.513 129.72,19.745 L129.72,14.351 C129.72,13.802 129.635,13.274 128.458,13.171 L128.458,12.771 C129.218,12.747 130.898,12.624 131.174,12.624 C131.408,12.624 131.408,12.771 131.408,13.233 L131.408,18.667 C131.408,19.298 131.408,21.11 133.24,21.11 C133.954,21.11 134.902,20.562 135.786,19.829 L135.786,14.159 C135.786,13.739 134.775,13.509 134.019,13.296 L134.019,12.917 C135.914,12.79 137.095,12.624 137.304,12.624 C137.473,12.624 137.473,12.771 137.473,13.003 L137.473,20.773" id="Fill-10" fill="#1A1919"></path>
        <path d="M141.663,19.552 C141.663,20.353 142.42,21.7 143.834,21.7 C146.089,21.7 147.037,19.487 147.037,17.612 C147.037,15.339 145.308,13.444 143.667,13.444 C142.883,13.444 142.232,13.95 141.663,14.437 L141.663,19.552 Z M141.663,13.821 C142.505,13.108 143.645,12.308 144.802,12.308 C147.246,12.308 148.72,14.437 148.72,16.729 C148.72,19.487 146.699,22.248 143.683,22.248 C142.125,22.248 141.306,21.743 140.757,21.513 L140.125,21.995 L139.685,21.765 C139.871,20.523 139.977,19.298 139.977,18.015 L139.977,8.96 C139.977,7.589 139.663,7.546 138.862,7.315 L138.862,6.978 C139.707,6.704 140.588,6.327 141.032,6.071 C141.261,5.946 141.431,5.839 141.497,5.839 C141.623,5.839 141.663,5.966 141.663,6.136 L141.663,13.821 Z" id="Fill-11" fill="#1A1919"></path>
        <path d="M50.793,34.178 L50.954,34.178 C51.365,34.178 51.802,34.123 51.802,33.525 L51.802,27.522 C51.802,26.924 51.365,26.869 50.954,26.869 L50.793,26.869 L50.793,26.522 C51.241,26.522 51.928,26.568 52.491,26.568 C53.063,26.568 53.75,26.522 54.289,26.522 L54.289,26.869 L54.128,26.869 C53.717,26.869 53.28,26.924 53.28,27.522 L53.28,33.525 C53.28,34.123 53.717,34.178 54.128,34.178 L54.289,34.178 L54.289,34.523 C53.739,34.523 53.05,34.479 52.479,34.479 C51.916,34.479 51.241,34.523 50.793,34.523 L50.793,34.178" id="Fill-12" fill="#1A1919"></path>
        <path d="M54.239,34.475 L54.24,34.231 L54.129,34.231 C53.72,34.231 53.231,34.158 53.229,33.525 L53.229,27.522 C53.231,26.889 53.72,26.818 54.129,26.818 L54.239,26.818 L54.239,26.574 C53.71,26.574 53.046,26.619 52.491,26.619 C51.947,26.619 51.288,26.576 50.844,26.574 L50.844,26.818 L50.954,26.818 C51.362,26.818 51.851,26.889 51.851,27.522 L51.851,33.525 C51.851,34.158 51.362,34.231 50.954,34.231 L50.844,34.231 L50.844,34.475 C51.288,34.469 51.936,34.428 52.479,34.428 C53.037,34.428 53.7,34.471 54.239,34.475 Z M54.289,34.572 C53.735,34.572 53.048,34.527 52.479,34.527 C51.917,34.527 51.243,34.572 50.793,34.572 L50.743,34.572 L50.743,34.131 L50.954,34.131 C51.369,34.121 51.749,34.086 51.751,33.525 L51.751,27.522 C51.749,26.961 51.369,26.924 50.954,26.916 L50.743,26.916 L50.743,26.475 L50.793,26.475 C51.243,26.475 51.93,26.519 52.491,26.519 C53.061,26.519 53.747,26.475 54.289,26.475 L54.339,26.475 L54.339,26.916 L54.129,26.916 C53.713,26.924 53.332,26.961 53.33,27.522 L53.33,33.525 C53.332,34.086 53.713,34.121 54.129,34.131 L54.339,34.131 L54.339,34.572 L54.289,34.572 Z" id="Fill-13" fill="#1A1919"></path>
        <path d="M62.163,32.266 L62.186,32.242 L62.186,27.945 C62.186,27.006 61.532,26.869 61.187,26.869 L60.936,26.869 L60.936,26.522 C61.474,26.522 62.003,26.568 62.541,26.568 C63.01,26.568 63.482,26.522 63.949,26.522 L63.949,26.869 L63.779,26.869 C63.297,26.869 62.757,26.959 62.757,28.322 L62.757,33.539 C62.757,33.94 62.771,34.34 62.826,34.695 L62.391,34.695 L56.489,28.117 L56.489,32.838 C56.489,33.838 56.682,34.178 57.565,34.178 L57.76,34.178 L57.76,34.523 C57.268,34.523 56.774,34.479 56.281,34.479 C55.769,34.479 55.239,34.523 54.724,34.523 L54.724,34.178 L54.884,34.178 C55.675,34.178 55.917,33.643 55.917,32.725 L55.917,27.898 C55.917,27.256 55.387,26.869 54.873,26.869 L54.724,26.869 L54.724,26.522 C55.158,26.522 55.606,26.568 56.041,26.568 C56.385,26.568 56.719,26.522 57.062,26.522 L62.163,32.266" id="Fill-14" fill="#1A1919"></path>
        <path d="M62.136,32.242 L62.136,32.238 L62.127,32.231 L62.136,32.242 Z M62.163,32.266 L62.2,32.232 L62.163,32.266 Z M62.391,34.645 L62.771,34.645 C62.718,34.301 62.71,33.918 62.71,33.539 L62.71,28.322 C62.71,26.947 63.285,26.818 63.779,26.818 L63.901,26.818 L63.901,26.574 C63.447,26.576 62.996,26.619 62.541,26.619 C62.016,26.619 61.505,26.576 60.986,26.574 L60.986,26.818 L61.187,26.818 C61.54,26.818 62.234,26.975 62.234,27.945 L62.221,32.277 L62.196,32.299 L62.157,32.336 L57.062,26.574 C56.721,26.574 56.389,26.619 56.041,26.619 C55.621,26.619 55.189,26.576 54.774,26.574 L54.772,26.818 L54.873,26.818 C55.411,26.818 55.964,27.229 55.964,27.898 L55.964,32.725 C55.964,33.643 55.709,34.227 54.884,34.231 L54.774,34.227 L54.774,34.475 C55.27,34.469 55.78,34.428 56.281,34.428 C56.761,34.428 57.237,34.469 57.709,34.475 L57.709,34.231 L57.565,34.231 C56.663,34.227 56.439,33.836 56.439,32.838 L56.439,27.988 L62.391,34.645 Z M62.826,34.746 L62.354,34.729 L56.537,28.246 L56.537,32.838 C56.552,33.836 56.703,34.119 57.565,34.131 L57.812,34.131 L57.812,34.572 L57.76,34.572 C57.264,34.572 56.771,34.527 56.281,34.527 C55.77,34.527 55.243,34.572 54.722,34.572 L54.672,34.572 L54.672,34.131 L54.884,34.131 C55.643,34.125 55.858,33.639 55.868,32.725 L55.868,27.898 C55.866,27.289 55.365,26.918 54.873,26.916 L54.672,26.916 L54.672,26.475 L54.722,26.475 C55.161,26.475 55.608,26.519 56.041,26.519 C56.381,26.519 56.713,26.475 57.1,26.492 L62.136,32.16 L62.136,27.945 C62.13,27.033 61.523,26.924 61.187,26.916 L60.884,26.916 L60.884,26.475 L60.936,26.475 C61.476,26.475 62.005,26.519 62.541,26.519 C63.006,26.519 63.477,26.475 63.949,26.475 L64.001,26.475 L64.001,26.916 L63.779,26.916 C63.305,26.93 62.821,26.973 62.807,28.322 L62.807,33.539 C62.807,33.938 62.819,34.338 62.875,34.688 L62.884,34.746 L62.826,34.746 Z" id="Fill-15" fill="#1A1919"></path>
        <path d="M65.665,27.096 C64.805,27.096 64.774,27.303 64.601,28.139 L64.257,28.139 C64.304,27.818 64.36,27.498 64.396,27.164 C64.441,26.844 64.464,26.522 64.464,26.191 L64.74,26.191 C64.832,26.535 65.118,26.522 65.428,26.522 L71.341,26.522 C71.65,26.522 71.937,26.512 71.96,26.168 L72.233,26.215 C72.191,26.522 72.144,26.832 72.109,27.143 C72.085,27.451 72.085,27.762 72.085,28.07 L71.743,28.199 C71.72,27.773 71.662,27.096 70.894,27.096 L69.015,27.096 L69.015,33.193 C69.015,34.078 69.418,34.178 69.966,34.178 L70.183,34.178 L70.183,34.523 C69.737,34.523 68.933,34.479 68.315,34.479 C67.629,34.479 66.825,34.523 66.377,34.523 L66.377,34.178 L66.595,34.178 C67.228,34.178 67.546,34.123 67.546,33.219 L67.546,27.096 L65.665,27.096" id="Fill-16" fill="#1A1919"></path>
        <path d="M70.185,34.572 C69.733,34.572 68.931,34.527 68.315,34.527 C67.629,34.527 66.829,34.572 66.377,34.572 L66.329,34.572 L66.329,34.131 L66.595,34.131 C67.228,34.115 67.482,34.107 67.496,33.219 L67.496,27.145 L65.665,27.145 L65.665,27.047 L67.596,27.047 L67.596,33.219 C67.596,34.137 67.226,34.231 66.595,34.231 L66.427,34.231 L66.427,34.473 C66.88,34.469 67.65,34.428 68.315,34.428 C68.914,34.428 69.679,34.469 70.132,34.473 L70.132,34.231 L69.966,34.231 C69.412,34.231 68.963,34.096 68.963,33.193 L68.963,27.047 L70.894,27.047 C71.664,27.049 71.764,27.701 71.789,28.127 L72.039,28.035 C72.039,27.738 72.04,27.438 72.059,27.135 C72.091,26.842 72.134,26.549 72.177,26.256 L72.003,26.227 C71.947,26.559 71.627,26.578 71.339,26.574 L65.428,26.574 C65.405,26.574 65.386,26.574 65.368,26.574 C65.098,26.574 64.805,26.561 64.703,26.242 L64.512,26.242 C64.512,26.559 64.489,26.865 64.444,27.172 C64.412,27.486 64.36,27.789 64.317,28.09 L64.562,28.09 C64.714,27.293 64.811,27.033 65.665,27.047 L65.665,27.145 C64.819,27.162 64.838,27.303 64.649,28.15 L64.643,28.19 L64.2,28.19 L64.207,28.131 C64.252,27.811 64.312,27.49 64.346,27.156 C64.393,26.838 64.415,26.519 64.415,26.191 L64.415,26.141 L64.778,26.141 L64.786,26.178 C64.865,26.467 65.075,26.469 65.368,26.475 C65.388,26.475 65.405,26.475 65.428,26.475 L71.339,26.475 C71.658,26.469 71.891,26.463 71.911,26.164 L71.915,26.111 L71.966,26.121 L72.289,26.172 L72.283,26.221 C72.238,26.529 72.193,26.838 72.16,27.145 C72.136,27.451 72.136,27.762 72.136,28.07 L72.136,28.106 L72.103,28.119 L71.697,28.268 L71.695,28.199 C71.664,27.77 71.618,27.145 70.894,27.145 L69.064,27.145 L69.064,33.193 C69.076,34.059 69.419,34.119 69.966,34.131 L70.232,34.131 L70.232,34.572 L70.185,34.572" id="Fill-17" fill="#1A1919"></path>
        <path d="M72.601,34.178 L72.761,34.178 C73.173,34.178 73.608,34.123 73.608,33.525 L73.608,27.522 C73.608,26.924 73.173,26.869 72.761,26.869 L72.601,26.869 L72.601,26.522 C73.297,26.522 74.494,26.568 75.454,26.568 C76.418,26.568 77.608,26.522 78.385,26.522 C78.367,27.016 78.377,27.773 78.412,28.277 L78.065,28.369 C78.011,27.625 77.873,27.029 76.669,27.029 L75.08,27.029 L75.08,30.029 L76.439,30.029 C77.128,30.029 77.279,29.643 77.345,29.023 L77.687,29.023 C77.665,29.471 77.654,29.916 77.654,30.363 C77.654,30.801 77.665,31.234 77.687,31.67 L77.345,31.738 C77.279,31.051 77.244,30.604 76.451,30.604 L75.08,30.604 L75.08,33.273 C75.08,34.02 75.742,34.02 76.474,34.02 C77.851,34.02 78.456,33.928 78.8,32.621 L79.121,32.701 C78.972,33.311 78.835,33.914 78.732,34.523 C77.999,34.523 76.68,34.479 75.648,34.479 C74.617,34.479 73.253,34.523 72.601,34.523 L72.601,34.178" id="Fill-18" fill="#1A1919"></path>
        <path d="M78.69,34.473 C78.789,33.895 78.919,33.314 79.062,32.738 L78.835,32.682 C78.492,33.965 77.828,34.078 76.474,34.068 C75.751,34.068 75.029,34.068 75.025,33.273 L75.025,30.555 L76.451,30.555 C77.252,30.545 77.331,31.029 77.388,31.682 L77.636,31.631 C77.616,31.209 77.604,30.783 77.604,30.363 C77.604,29.934 77.616,29.504 77.636,29.07 L77.388,29.07 C77.325,29.67 77.139,30.088 76.439,30.08 L75.025,30.08 L75.025,26.977 L76.669,26.977 C77.861,26.971 78.06,27.586 78.109,28.305 L78.357,28.238 C78.337,27.914 78.326,27.502 78.326,27.119 C78.326,26.92 78.33,26.736 78.335,26.574 C77.556,26.576 76.395,26.619 75.454,26.619 C74.512,26.619 73.351,26.576 72.65,26.574 L72.65,26.818 L72.761,26.818 C73.169,26.818 73.658,26.889 73.66,27.522 L73.66,33.525 C73.658,34.158 73.169,34.227 72.761,34.231 L72.65,34.231 L72.65,34.473 C73.316,34.471 74.642,34.428 75.648,34.428 C76.66,34.428 77.949,34.471 78.69,34.473 Z M78.732,34.572 C77.996,34.572 76.678,34.525 75.648,34.525 C74.617,34.525 73.255,34.572 72.601,34.572 L72.55,34.572 L72.55,34.131 L72.761,34.131 C73.175,34.123 73.554,34.086 73.558,33.525 L73.558,27.522 C73.554,26.963 73.175,26.926 72.761,26.916 L72.55,26.916 L72.55,26.475 L72.601,26.475 C73.299,26.475 74.494,26.519 75.454,26.519 C76.415,26.519 77.606,26.475 78.385,26.475 L78.437,26.475 L78.437,26.525 C78.427,26.697 78.423,26.9 78.423,27.119 C78.423,27.514 78.437,27.947 78.459,28.273 L78.459,28.315 L78.421,28.326 L78.019,28.432 L78.017,28.371 C77.949,27.629 77.851,27.088 76.669,27.078 L75.125,27.078 L75.125,29.978 L76.439,29.978 C77.101,29.975 77.216,29.635 77.295,29.018 L77.299,28.973 L77.74,28.973 L77.74,29.023 C77.716,29.471 77.703,29.916 77.703,30.363 C77.703,30.797 77.716,31.232 77.74,31.67 L77.74,31.709 L77.699,31.719 L77.299,31.797 L77.295,31.744 C77.216,31.045 77.212,30.662 76.451,30.652 L75.125,30.65 L75.125,33.273 C75.127,33.971 75.726,33.967 76.474,33.971 C77.855,33.963 78.407,33.895 78.752,32.607 L78.763,32.561 L78.812,32.57 L79.179,32.666 L79.169,32.713 C79.02,33.318 78.884,33.926 78.781,34.531 L78.773,34.572 L78.732,34.572 Z" id="Fill-19" fill="#1A1919"></path>
        <path d="M82.136,30.397 L82.696,30.397 C83.843,30.397 84.46,29.963 84.46,28.609 C84.46,27.592 83.807,26.936 82.787,26.936 C82.441,26.936 82.294,26.973 82.136,26.982 L82.136,30.397 Z M80.669,27.738 C80.669,26.9 80.21,26.869 79.855,26.869 L79.646,26.869 L79.646,26.522 C80.013,26.522 80.724,26.568 81.425,26.568 C82.11,26.568 82.662,26.522 83.271,26.522 C84.711,26.522 85.996,26.912 85.996,28.541 C85.996,29.572 85.31,30.201 84.405,30.561 L86.365,33.49 C86.685,33.977 86.912,34.111 87.475,34.178 L87.475,34.523 C87.097,34.523 86.731,34.479 86.353,34.479 C85.996,34.479 85.629,34.523 85.275,34.523 C84.393,33.367 83.635,32.129 82.89,30.809 L82.136,30.809 L82.136,33.262 C82.136,34.147 82.547,34.178 83.074,34.178 L83.283,34.178 L83.283,34.523 C82.627,34.523 81.962,34.479 81.309,34.479 C80.759,34.479 80.221,34.523 79.646,34.523 L79.646,34.178 L79.855,34.178 C80.277,34.178 80.669,33.986 80.669,33.561 L80.669,27.738 Z" id="Fill-20" fill="#1A1919"></path>
        <path d="M82.696,30.348 C83.83,30.336 84.403,29.943 84.413,28.611 C84.407,27.611 83.784,26.99 82.787,26.984 C82.476,26.984 82.331,27.012 82.185,27.027 L82.185,30.348 L82.696,30.348 Z M82.134,30.445 L82.085,30.445 L82.085,26.936 L82.128,26.932 C82.285,26.918 82.439,26.889 82.787,26.889 C83.83,26.889 84.509,27.566 84.511,28.611 C84.507,29.978 83.851,30.445 82.696,30.445 L82.134,30.445 Z M82.134,30.76 L82.918,30.76 L82.931,30.785 C83.677,32.103 84.431,33.34 85.275,34.475 C85.626,34.475 85.994,34.428 86.349,34.428 C86.715,34.428 87.07,34.467 87.425,34.473 L87.425,34.221 C86.887,34.156 86.636,33.994 86.324,33.52 L84.328,30.535 L84.386,30.512 C85.283,30.158 85.946,29.547 85.948,28.539 C85.946,26.951 84.71,26.58 83.271,26.574 C82.665,26.574 82.113,26.619 81.425,26.619 C80.749,26.619 80.071,26.576 79.697,26.574 L79.697,26.818 L79.855,26.818 C80.21,26.818 80.715,26.877 80.715,27.738 L80.715,33.561 C80.715,34.021 80.287,34.231 79.855,34.231 L79.697,34.231 L79.697,34.473 C80.248,34.471 80.769,34.428 81.307,34.428 C81.95,34.428 82.595,34.471 83.23,34.473 L83.23,34.231 L83.074,34.231 C82.551,34.231 82.085,34.166 82.085,33.262 L82.085,30.76 L82.134,30.76 Z M87.475,34.572 C87.091,34.572 86.727,34.527 86.349,34.527 C86.002,34.527 85.633,34.572 85.234,34.555 C84.357,33.4 83.603,32.17 82.862,30.859 L82.185,30.859 L82.185,33.262 C82.197,34.125 82.544,34.117 83.074,34.131 L83.331,34.131 L83.331,34.572 L83.279,34.572 C82.623,34.572 81.956,34.527 81.307,34.527 C80.759,34.527 80.223,34.572 79.646,34.572 L79.599,34.572 L79.599,34.131 L79.855,34.131 C80.267,34.127 80.613,33.947 80.617,33.561 L80.617,27.738 C80.609,26.926 80.21,26.928 79.855,26.916 L79.599,26.916 L79.599,26.475 L79.646,26.475 C80.019,26.475 80.726,26.519 81.425,26.519 C82.108,26.519 82.66,26.475 83.271,26.475 C84.713,26.475 86.044,26.877 86.048,28.539 C86.048,29.574 85.363,30.221 84.48,30.58 L86.405,33.463 C86.725,33.94 86.923,34.059 87.481,34.131 L87.523,34.135 L87.523,34.572 L87.475,34.572 Z" id="Fill-21" fill="#1A1919"></path>
        <path d="M95.255,32.266 L95.277,32.242 L95.277,27.945 C95.277,27.006 94.624,26.869 94.282,26.869 L94.029,26.869 L94.029,26.522 C94.57,26.522 95.093,26.568 95.634,26.568 C96.105,26.568 96.574,26.522 97.045,26.522 L97.045,26.869 L96.874,26.869 C96.392,26.869 95.853,26.959 95.853,28.322 L95.853,33.539 C95.853,33.94 95.863,34.34 95.919,34.695 L95.486,34.695 L89.584,28.117 L89.584,32.838 C89.584,33.838 89.779,34.178 90.662,34.178 L90.857,34.178 L90.857,34.523 C90.363,34.523 89.869,34.479 89.377,34.479 C88.861,34.479 88.334,34.523 87.819,34.523 L87.819,34.178 L87.976,34.178 C88.769,34.178 89.009,33.643 89.009,32.725 L89.009,27.898 C89.009,27.256 88.482,26.869 87.967,26.869 L87.819,26.869 L87.819,26.522 C88.252,26.522 88.703,26.568 89.136,26.568 C89.479,26.568 89.811,26.522 90.156,26.522 L95.255,32.266" id="Fill-22" fill="#1A1919"></path>
        <path d="M95.228,32.242 L95.228,32.238 L95.221,32.231 L95.228,32.242 Z M95.255,32.266 L95.293,32.232 L95.255,32.266 Z M95.486,34.645 L95.861,34.645 C95.813,34.303 95.802,33.918 95.802,33.539 L95.802,28.322 C95.802,26.947 96.382,26.82 96.874,26.818 L96.994,26.818 L96.994,26.574 C96.543,26.576 96.089,26.619 95.634,26.619 C95.109,26.619 94.596,26.576 94.08,26.574 L94.08,26.818 L94.282,26.818 C94.634,26.82 95.33,26.975 95.33,27.945 L95.314,32.277 L95.293,32.299 L95.255,32.338 L90.156,26.574 C89.815,26.574 89.481,26.619 89.136,26.619 C88.711,26.619 88.283,26.576 87.867,26.574 L87.867,26.818 L87.967,26.818 C88.505,26.82 89.058,27.227 89.058,27.898 L89.058,32.723 C89.058,33.643 88.798,34.227 87.976,34.231 L87.867,34.231 L87.867,34.473 C88.363,34.469 88.873,34.428 89.377,34.428 C89.855,34.428 90.331,34.469 90.806,34.473 L90.806,34.231 L90.662,34.231 C89.759,34.231 89.533,33.838 89.531,32.838 L89.531,27.988 L95.486,34.645 Z M95.919,34.746 L95.449,34.729 L89.632,28.246 L89.632,32.838 C89.647,33.838 89.797,34.119 90.662,34.131 L90.905,34.131 L90.905,34.572 L90.855,34.572 C90.359,34.572 89.867,34.525 89.377,34.525 C88.864,34.525 88.334,34.572 87.819,34.572 L87.765,34.572 L87.765,34.131 L87.976,34.131 C88.733,34.127 88.951,33.639 88.959,32.723 L88.959,27.898 C88.956,27.287 88.459,26.918 87.967,26.916 L87.765,26.916 L87.765,26.475 L87.819,26.475 C88.254,26.475 88.705,26.519 89.136,26.519 C89.474,26.519 89.805,26.475 90.189,26.488 L95.228,32.16 L95.228,27.945 C95.227,27.033 94.615,26.922 94.282,26.916 L93.979,26.916 L93.979,26.475 L94.029,26.475 C94.572,26.475 95.099,26.519 95.634,26.519 C96.101,26.519 96.572,26.475 97.044,26.475 L97.093,26.475 L97.093,26.916 L96.874,26.916 C96.402,26.928 95.914,26.973 95.902,28.322 L95.902,33.539 C95.902,33.938 95.912,34.334 95.969,34.688 L95.975,34.746 L95.919,34.746 Z" id="Fill-23" fill="#1A1919"></path>
        <path d="M100.562,27.807 L100.539,27.807 L99.472,31.051 L101.615,31.051 L100.562,27.807 Z M98.89,32.885 C98.774,33.273 98.634,33.574 98.634,33.777 C98.634,34.123 99.119,34.178 99.496,34.178 L99.623,34.178 L99.623,34.523 C99.162,34.5 98.693,34.479 98.234,34.479 C97.821,34.479 97.41,34.5 96.998,34.523 L96.998,34.178 L97.065,34.178 C97.512,34.178 97.892,33.914 98.06,33.434 L99.896,28.176 C100.044,27.75 100.253,27.178 100.32,26.752 C100.687,26.627 101.146,26.398 101.364,26.26 C101.399,26.248 101.417,26.238 101.455,26.238 C101.488,26.238 101.511,26.238 101.536,26.272 C101.57,26.363 101.603,26.467 101.64,26.559 L103.748,32.553 C103.884,32.953 104.022,33.379 104.17,33.723 C104.309,34.043 104.55,34.178 104.928,34.178 L104.996,34.178 L104.996,34.523 C104.481,34.5 103.964,34.479 103.416,34.479 C102.855,34.479 102.281,34.5 101.698,34.523 L101.698,34.178 L101.824,34.178 C102.085,34.178 102.533,34.135 102.533,33.848 C102.533,33.697 102.431,33.389 102.301,33.022 L101.856,31.691 L99.253,31.691 L98.89,32.885 Z" id="Fill-24" fill="#1A1919"></path>
        <path d="M100.511,27.822 L100.539,27.815 L100.511,27.822 Z M99.54,31.002 L101.545,31.002 L100.548,27.93 L99.54,31.002 Z M99.402,31.102 L100.5,27.758 L100.562,27.758 L100.562,27.807 L100.55,27.811 L100.562,27.807 L100.562,27.758 L100.596,27.758 L101.684,31.102 L99.402,31.102 Z M101.746,34.469 C102.311,34.451 102.869,34.428 103.416,34.428 C103.949,34.428 104.447,34.451 104.946,34.469 L104.946,34.231 L104.928,34.231 C104.537,34.234 104.267,34.078 104.125,33.742 C103.976,33.395 103.836,32.969 103.702,32.568 L101.591,26.574 C101.556,26.482 101.522,26.379 101.494,26.297 C101.482,26.285 101.486,26.285 101.476,26.285 C101.47,26.285 101.462,26.285 101.455,26.285 C101.431,26.285 101.417,26.293 101.389,26.301 C101.167,26.443 100.707,26.67 100.367,26.76 C100.297,27.195 100.091,27.766 99.941,28.19 L98.109,33.451 C97.933,33.949 97.532,34.231 97.065,34.231 L97.047,34.231 L97.047,34.469 C97.439,34.451 97.836,34.428 98.234,34.428 C98.677,34.428 99.13,34.451 99.568,34.469 L99.568,34.231 L99.496,34.231 C99.121,34.227 98.6,34.186 98.586,33.779 C98.586,33.551 98.726,33.256 98.839,32.871 L98.89,32.885 L98.839,32.869 L99.217,31.645 L101.888,31.645 L102.347,33.006 C102.477,33.375 102.582,33.68 102.582,33.848 C102.564,34.199 102.082,34.225 101.824,34.231 L101.746,34.231 L101.746,34.469 Z M104.992,34.572 C104.479,34.551 103.964,34.525 103.416,34.525 C102.855,34.525 102.285,34.551 101.698,34.572 L101.646,34.576 L101.646,34.127 L101.824,34.127 C102.087,34.127 102.48,34.068 102.48,33.848 C102.482,33.717 102.382,33.402 102.255,33.039 L101.82,31.742 L99.29,31.742 L98.933,32.898 C98.816,33.291 98.681,33.594 98.681,33.779 C98.685,34.059 99.115,34.127 99.496,34.127 L99.67,34.127 L99.67,34.576 L99.619,34.572 C99.16,34.551 98.691,34.525 98.234,34.525 C97.823,34.525 97.41,34.551 96.999,34.572 L96.949,34.576 L96.949,34.127 L97.065,34.127 C97.492,34.127 97.846,33.883 98.011,33.418 L99.848,28.158 C99.999,27.732 100.205,27.162 100.303,26.707 C100.662,26.582 101.123,26.352 101.345,26.213 C101.377,26.201 101.408,26.186 101.455,26.186 C101.482,26.184 101.545,26.193 101.58,26.254 C101.615,26.348 101.65,26.449 101.684,26.541 L103.796,32.537 C103.931,32.938 104.068,33.361 104.216,33.699 C104.349,34.006 104.56,34.127 104.928,34.127 L105.046,34.127 L105.046,34.576 L104.992,34.572 Z" id="Fill-25" fill="#1A1919"></path>
        <path d="M105.501,27.096 C104.64,27.096 104.608,27.303 104.435,28.139 L104.089,28.139 C104.136,27.818 104.195,27.498 104.228,27.164 C104.275,26.844 104.297,26.522 104.297,26.191 L104.572,26.191 C104.664,26.535 104.951,26.522 105.259,26.522 L111.173,26.522 C111.482,26.522 111.767,26.512 111.791,26.168 L112.066,26.215 C112.022,26.522 111.978,26.832 111.941,27.143 C111.914,27.451 111.914,27.762 111.914,28.07 L111.573,28.199 C111.553,27.773 111.494,27.096 110.726,27.096 L108.847,27.096 L108.847,33.193 C108.847,34.078 109.249,34.178 109.798,34.178 L110.014,34.178 L110.014,34.523 C109.569,34.523 108.767,34.479 108.148,34.479 C107.46,34.479 106.656,34.523 106.208,34.523 L106.208,34.178 L106.427,34.178 C107.06,34.178 107.381,34.123 107.381,33.219 L107.381,27.096 L105.501,27.096" id="Fill-26" fill="#1A1919"></path>
        <path d="M110.014,34.572 C109.567,34.572 108.765,34.527 108.148,34.527 C107.462,34.527 106.662,34.572 106.208,34.572 L106.161,34.572 L106.161,34.131 L106.427,34.131 C107.06,34.115 107.312,34.107 107.328,33.219 L107.328,27.145 L105.501,27.145 L105.501,27.047 L107.427,27.047 L107.427,33.219 C107.427,34.137 107.058,34.227 106.427,34.231 L106.259,34.231 L106.259,34.475 C106.712,34.469 107.482,34.428 108.148,34.428 C108.746,34.428 109.513,34.469 109.966,34.475 L109.964,34.231 L109.796,34.231 C109.245,34.227 108.799,34.096 108.797,33.193 L108.797,27.047 L110.726,27.047 C111.498,27.049 111.595,27.701 111.619,28.127 L111.868,28.035 C111.868,27.738 111.868,27.438 111.892,27.137 C111.923,26.842 111.968,26.549 112.008,26.258 L111.837,26.227 C111.783,26.559 111.46,26.578 111.173,26.574 L105.259,26.574 C105.237,26.574 105.218,26.574 105.201,26.574 C104.93,26.576 104.639,26.561 104.535,26.238 L104.347,26.238 C104.343,26.559 104.323,26.865 104.277,27.172 C104.246,27.488 104.189,27.789 104.147,28.09 L104.394,28.09 C104.544,27.293 104.642,27.031 105.501,27.047 L105.501,27.145 C104.65,27.16 104.669,27.303 104.483,28.15 L104.475,28.19 L104.031,28.19 L104.039,28.131 C104.085,27.811 104.143,27.49 104.177,27.16 C104.224,26.838 104.246,26.519 104.246,26.191 L104.246,26.141 L104.608,26.141 L104.618,26.178 C104.699,26.467 104.91,26.469 105.201,26.475 C105.221,26.475 105.239,26.475 105.259,26.475 L111.173,26.475 C111.49,26.469 111.723,26.463 111.742,26.164 L111.744,26.111 L111.798,26.121 L112.125,26.172 L112.115,26.221 C112.066,26.529 112.024,26.838 111.99,27.145 C111.968,27.451 111.968,27.762 111.968,28.07 L111.968,28.106 L111.933,28.119 L111.527,28.268 L111.527,28.199 C111.498,27.77 111.451,27.145 110.726,27.145 L108.896,27.145 L108.896,33.193 C108.908,34.059 109.25,34.119 109.796,34.131 L110.064,34.131 L110.064,34.572 L110.014,34.572" id="Fill-27" fill="#1A1919"></path>
        <path d="M112.489,34.178 L112.649,34.178 C113.064,34.178 113.498,34.123 113.498,33.525 L113.498,27.522 C113.498,26.924 113.064,26.869 112.649,26.869 L112.489,26.869 L112.489,26.522 C112.936,26.522 113.623,26.568 114.184,26.568 C114.757,26.568 115.445,26.522 115.986,26.522 L115.986,26.869 L115.826,26.869 C115.411,26.869 114.973,26.924 114.973,27.522 L114.973,33.525 C114.973,34.123 115.411,34.178 115.826,34.178 L115.986,34.178 L115.986,34.523 C115.434,34.523 114.748,34.479 114.174,34.479 C113.611,34.479 112.936,34.523 112.489,34.523 L112.489,34.178" id="Fill-28" fill="#1A1919"></path>
        <path d="M115.933,34.473 L115.933,34.231 L115.826,34.231 C115.415,34.231 114.927,34.158 114.927,33.525 L114.927,27.522 C114.927,26.889 115.415,26.818 115.826,26.818 L115.933,26.818 L115.933,26.574 C115.405,26.576 114.744,26.619 114.184,26.619 C113.64,26.619 112.982,26.576 112.539,26.574 L112.539,26.818 L112.649,26.818 C113.056,26.818 113.546,26.889 113.546,27.522 L113.546,33.525 C113.546,34.158 113.056,34.231 112.649,34.231 L112.539,34.231 L112.539,34.473 C112.982,34.467 113.628,34.428 114.174,34.428 C114.73,34.428 115.394,34.469 115.933,34.473 Z M115.986,34.572 C115.432,34.572 114.746,34.525 114.174,34.525 C113.613,34.525 112.936,34.572 112.489,34.572 L112.441,34.572 L112.441,34.131 L112.649,34.131 C113.064,34.123 113.443,34.086 113.445,33.525 L113.445,27.522 C113.443,26.963 113.064,26.924 112.649,26.916 L112.441,26.916 L112.441,26.475 L112.489,26.475 C112.936,26.475 113.625,26.519 114.184,26.519 C114.757,26.519 115.443,26.475 115.986,26.475 L116.032,26.475 L116.032,26.916 L115.826,26.916 C115.407,26.924 115.029,26.963 115.025,27.522 L115.025,33.525 C115.029,34.086 115.407,34.123 115.826,34.131 L116.032,34.131 L116.032,34.572 L115.986,34.572 Z" id="Fill-29" fill="#1A1919"></path>
        <path d="M120.728,34.191 C122.955,34.191 123.339,32.231 123.339,30.561 C123.339,28.885 122.437,26.857 120.534,26.857 C118.529,26.857 117.933,28.645 117.933,30.178 C117.933,32.231 118.873,34.191 120.728,34.191 Z M120.556,26.352 C122.999,26.352 124.947,27.865 124.947,30.307 C124.947,32.943 123.056,34.695 120.615,34.695 C118.182,34.695 116.33,33.047 116.33,30.58 C116.33,28.199 118.173,26.352 120.556,26.352 Z" id="Fill-30" fill="#1A1919"></path>
        <path d="M117.881,30.178 C117.885,28.637 118.49,26.805 120.534,26.805 C122.482,26.809 123.388,28.875 123.39,30.561 C123.388,32.231 122.995,34.238 120.728,34.238 L120.728,34.143 C122.91,34.141 123.286,32.231 123.292,30.561 C123.292,28.898 122.396,26.908 120.534,26.906 C118.568,26.908 117.986,28.652 117.982,30.178 C117.984,32.221 118.916,34.137 120.728,34.143 L120.728,34.238 C118.827,34.236 117.885,32.242 117.881,30.178 Z M116.277,30.58 C116.283,28.17 118.148,26.305 120.556,26.301 L120.556,26.402 C118.198,26.402 116.375,28.223 116.375,30.58 C116.378,33.018 118.208,34.643 120.615,34.645 C123.031,34.643 124.894,32.916 124.9,30.305 C124.898,27.895 122.979,26.404 120.556,26.402 L120.556,26.301 C123.017,26.305 124.991,27.834 124.995,30.305 C124.993,32.969 123.08,34.74 120.615,34.746 C118.164,34.74 116.283,33.07 116.277,30.58 Z" id="Fill-31" fill="#1A1919"></path>
        <path d="M132.671,32.266 L132.694,32.242 L132.694,27.945 C132.694,27.006 132.041,26.869 131.693,26.869 L131.447,26.869 L131.447,26.522 C131.982,26.522 132.511,26.568 133.048,26.568 C133.521,26.568 133.99,26.522 134.458,26.522 L134.458,26.869 L134.287,26.869 C133.804,26.869 133.265,26.959 133.265,28.322 L133.265,33.539 C133.265,33.94 133.279,34.34 133.334,34.695 L132.898,34.695 L126.997,28.117 L126.997,32.838 C126.997,33.838 127.191,34.178 128.075,34.178 L128.269,34.178 L128.269,34.523 C127.776,34.523 127.285,34.479 126.791,34.479 C126.275,34.479 125.747,34.523 125.23,34.523 L125.23,34.178 L125.392,34.178 C126.185,34.178 126.421,33.643 126.421,32.725 L126.421,27.898 C126.421,27.256 125.897,26.869 125.378,26.869 L125.23,26.869 L125.23,26.522 C125.667,26.522 126.113,26.568 126.549,26.568 C126.892,26.568 127.224,26.522 127.568,26.522 L132.671,32.266" id="Fill-32" fill="#1A1919"></path>
        <path d="M132.642,32.242 L132.642,32.238 L132.632,32.231 L132.642,32.242 Z M132.671,32.266 L132.708,32.232 L132.671,32.266 Z M132.898,34.645 L133.277,34.645 C133.226,34.301 133.216,33.918 133.216,33.539 L133.216,28.322 C133.216,26.945 133.795,26.82 134.287,26.818 L134.411,26.818 L134.411,26.574 C133.956,26.576 133.503,26.619 133.044,26.619 C132.527,26.619 132.013,26.576 131.494,26.574 L131.494,26.818 L131.693,26.818 C132.05,26.82 132.742,26.977 132.742,27.945 L132.728,32.277 L132.708,32.299 L132.671,32.338 L127.568,26.574 C127.23,26.574 126.896,26.619 126.549,26.619 C126.126,26.619 125.695,26.576 125.28,26.574 L125.28,26.818 L125.378,26.818 C125.918,26.82 126.472,27.227 126.472,27.898 L126.472,32.725 C126.472,33.643 126.217,34.227 125.392,34.231 L125.28,34.231 L125.28,34.473 C125.778,34.469 126.287,34.428 126.791,34.428 C127.269,34.428 127.746,34.469 128.219,34.473 L128.219,34.231 L128.071,34.231 C127.171,34.231 126.947,33.838 126.947,32.838 L126.947,27.988 L132.898,34.645 Z M133.334,34.746 L132.86,34.729 L127.044,28.246 L127.044,32.838 C127.058,33.838 127.21,34.117 128.071,34.127 L128.32,34.127 L128.32,34.572 L128.269,34.572 C127.774,34.572 127.281,34.527 126.791,34.527 C126.277,34.527 125.75,34.572 125.23,34.572 L125.183,34.572 L125.183,34.127 L125.392,34.127 C126.148,34.125 126.366,33.639 126.372,32.725 L126.372,27.898 C126.372,27.287 125.873,26.918 125.378,26.916 L125.183,26.916 L125.183,26.475 L125.23,26.475 C125.669,26.475 126.117,26.519 126.549,26.519 C126.888,26.519 127.218,26.475 127.608,26.492 L132.642,32.16 L132.642,27.945 C132.64,27.033 132.031,26.924 131.693,26.916 L131.394,26.916 L131.394,26.475 L131.445,26.475 C131.984,26.475 132.515,26.519 133.044,26.519 C133.517,26.519 133.982,26.475 134.458,26.475 L134.507,26.475 L134.507,26.916 L134.287,26.916 C133.816,26.93 133.327,26.973 133.317,28.322 L133.317,33.539 C133.317,33.938 133.327,34.338 133.38,34.688 L133.39,34.746 L133.334,34.746 Z" id="Fill-33" fill="#1A1919"></path>
        <path d="M137.974,27.807 L137.952,27.807 L136.885,31.051 L139.032,31.051 L137.974,27.807 Z M136.3,32.885 C136.189,33.273 136.05,33.574 136.05,33.777 C136.05,34.123 136.535,34.178 136.908,34.178 L137.036,34.178 L137.036,34.523 C136.577,34.5 136.108,34.479 135.649,34.479 C135.232,34.479 134.822,34.5 134.413,34.523 L134.413,34.178 L134.476,34.178 C134.925,34.178 135.306,33.914 135.475,33.434 L137.312,28.176 C137.46,27.75 137.666,27.178 137.734,26.752 C138.1,26.627 138.559,26.398 138.777,26.26 C138.812,26.248 138.835,26.238 138.87,26.238 C138.902,26.238 138.923,26.238 138.949,26.272 C138.984,26.363 139.016,26.467 139.054,26.559 L141.162,32.553 C141.296,32.953 141.437,33.379 141.585,33.723 C141.722,34.043 141.965,34.178 142.343,34.178 L142.411,34.178 L142.411,34.523 C141.896,34.5 141.378,34.479 140.83,34.479 C140.268,34.479 139.693,34.5 139.109,34.523 L139.109,34.178 L139.236,34.178 C139.499,34.178 139.948,34.135 139.948,33.848 C139.948,33.697 139.843,33.389 139.716,33.022 L139.271,31.691 L136.671,31.691 L136.3,32.885 Z" id="Fill-34" fill="#1A1919"></path>
        <path d="M137.931,27.822 L137.952,27.815 L137.931,27.822 Z M136.955,31 L138.96,31 L137.961,27.932 L136.955,31 Z M136.816,31.098 L137.919,27.758 L137.974,27.758 L137.974,27.807 L137.963,27.811 L137.974,27.807 L137.974,27.758 L138.011,27.758 L139.095,31.098 L136.816,31.098 Z M139.16,34.471 C139.724,34.451 140.284,34.428 140.83,34.428 C141.362,34.428 141.861,34.451 142.359,34.469 L142.359,34.231 L142.341,34.231 C141.954,34.231 141.681,34.078 141.539,33.742 C141.386,33.395 141.25,32.969 141.113,32.568 L139.007,26.574 C138.972,26.482 138.935,26.379 138.908,26.301 C138.898,26.285 138.898,26.285 138.889,26.285 C138.885,26.285 138.877,26.285 138.87,26.285 C138.845,26.285 138.833,26.293 138.802,26.301 C138.581,26.441 138.124,26.672 137.78,26.76 C137.712,27.195 137.502,27.766 137.357,28.19 L135.521,33.451 C135.346,33.949 134.949,34.231 134.476,34.231 L134.458,34.231 L134.458,34.469 C134.854,34.451 135.25,34.428 135.649,34.428 C136.092,34.428 136.543,34.451 136.988,34.469 L136.988,34.231 L136.908,34.231 C136.537,34.227 136.013,34.186 136,33.777 C136.001,33.551 136.144,33.258 136.256,32.871 L136.3,32.885 L136.256,32.869 L136.632,31.645 L139.306,31.645 L139.763,33.006 C139.892,33.375 139.994,33.68 139.994,33.848 C139.977,34.199 139.497,34.225 139.234,34.231 L139.16,34.231 L139.16,34.471 Z M142.408,34.572 C141.892,34.553 141.375,34.527 140.83,34.527 C140.27,34.527 139.695,34.553 139.111,34.572 L139.06,34.576 L139.06,34.131 L139.234,34.131 C139.5,34.131 139.896,34.068 139.898,33.848 C139.9,33.717 139.797,33.404 139.667,33.039 L139.232,31.742 L136.702,31.742 L136.349,32.898 C136.235,33.293 136.096,33.594 136.1,33.777 C136.1,34.059 136.529,34.131 136.908,34.131 L137.083,34.131 L137.083,34.576 L137.032,34.572 C136.575,34.553 136.104,34.527 135.649,34.527 C135.236,34.527 134.826,34.553 134.413,34.572 L134.363,34.576 L134.363,34.131 L134.476,34.131 C134.904,34.127 135.263,33.881 135.429,33.418 L137.263,28.158 C137.41,27.732 137.617,27.162 137.716,26.707 C138.078,26.582 138.539,26.352 138.759,26.213 C138.789,26.201 138.824,26.188 138.87,26.188 C138.898,26.184 138.958,26.193 138.996,26.256 C139.028,26.346 139.062,26.449 139.099,26.541 L141.208,32.537 C141.344,32.938 141.483,33.361 141.632,33.701 C141.767,34.006 141.973,34.127 142.341,34.131 L142.458,34.131 L142.458,34.576 L142.408,34.572 Z" id="Fill-35" fill="#1A1919"></path>
        <path d="M145.3,33.4 C145.3,33.859 145.619,33.996 145.985,34.043 C146.456,34.078 146.97,34.078 147.5,34.02 C147.979,33.965 148.394,33.688 148.598,33.4 C148.781,33.147 148.882,32.828 148.955,32.574 L149.287,32.574 C149.16,33.229 149,33.871 148.861,34.523 C147.853,34.523 146.843,34.479 145.838,34.479 C144.828,34.479 143.819,34.523 142.81,34.523 L142.81,34.178 L142.968,34.178 C143.384,34.178 143.831,34.123 143.831,33.41 L143.831,27.522 C143.831,26.924 143.384,26.869 142.968,26.869 L142.81,26.869 L142.81,26.522 C143.417,26.522 144.015,26.568 144.621,26.568 C145.206,26.568 145.779,26.522 146.365,26.522 L146.365,26.869 L146.076,26.869 C145.642,26.869 145.3,26.881 145.3,27.488 L145.3,33.4" id="Fill-36" fill="#1A1919"></path>
        <path d="M148.822,34.473 C148.955,33.852 149.105,33.242 149.225,32.623 L148.99,32.623 C148.92,32.875 148.818,33.182 148.636,33.43 C148.423,33.729 147.999,34.008 147.5,34.068 C147.2,34.102 146.903,34.115 146.623,34.115 C146.402,34.115 146.183,34.106 145.977,34.092 C145.607,34.049 145.244,33.891 145.248,33.4 L145.248,27.488 C145.248,26.85 145.649,26.818 146.076,26.818 L146.314,26.818 L146.314,26.574 C145.75,26.576 145.19,26.619 144.621,26.619 C144.025,26.619 143.445,26.576 142.859,26.574 L142.859,26.818 L142.968,26.818 C143.378,26.818 143.878,26.889 143.878,27.52 L143.878,33.41 C143.878,34.152 143.38,34.231 142.968,34.231 L142.859,34.231 L142.859,34.473 C143.847,34.471 144.841,34.428 145.838,34.428 C146.833,34.428 147.827,34.471 148.822,34.473 Z M148.861,34.572 C147.851,34.572 146.843,34.527 145.838,34.527 C144.828,34.527 143.819,34.572 142.808,34.572 L142.761,34.572 L142.761,34.131 L142.968,34.131 C143.384,34.121 143.779,34.092 143.783,33.41 L143.783,27.52 C143.779,26.963 143.388,26.924 142.968,26.916 L142.761,26.916 L142.761,26.475 L142.808,26.475 C143.419,26.475 144.015,26.519 144.621,26.519 C145.204,26.519 145.777,26.475 146.365,26.475 L146.41,26.475 L146.41,26.916 L146.076,26.916 C145.632,26.928 145.354,26.908 145.344,27.488 L145.344,33.4 C145.35,33.828 145.628,33.941 145.989,33.994 C146.189,34.008 146.404,34.016 146.623,34.016 C146.903,34.016 147.194,34.002 147.494,33.971 C147.958,33.914 148.359,33.646 148.558,33.373 C148.735,33.127 148.835,32.813 148.903,32.563 L148.915,32.523 L149.347,32.523 L149.335,32.586 C149.208,33.24 149.049,33.881 148.911,34.535 L148.899,34.572 L148.861,34.572 Z" id="Fill-37" fill="#1A1919"></path>
        <g id="Group-41">
            <mask id="mask-2" fill="white">
                <use xlink:href="#path-1"></use>
            </mask>
            <g id="Clip-39"></g>
            <path d="M148.955,27.408 L149.095,27.408 C149.251,27.408 149.324,27.291 149.324,27.102 C149.324,26.908 149.209,26.842 149.087,26.842 L148.955,26.842 L148.955,27.408 Z M148.546,28.045 L148.546,27.984 C148.693,27.965 148.722,27.971 148.722,27.877 L148.722,26.984 C148.722,26.857 148.708,26.815 148.55,26.822 L148.55,26.76 L149.169,26.76 C149.379,26.76 149.576,26.863 149.576,27.08 C149.576,27.262 149.458,27.393 149.291,27.445 L149.488,27.723 C149.582,27.846 149.686,27.965 149.755,28.006 L149.755,28.045 L149.52,28.045 C149.408,28.045 149.31,27.807 149.087,27.49 L148.955,27.49 L148.955,27.889 C148.955,27.971 148.982,27.965 149.128,27.984 L149.128,28.045 L148.546,28.045 Z M149.146,28.387 C149.686,28.387 150.101,27.928 150.101,27.408 C150.101,26.889 149.694,26.424 149.146,26.424 C148.602,26.424 148.189,26.889 148.189,27.408 C148.189,27.928 148.602,28.387 149.146,28.387 Z M149.146,26.199 C149.836,26.199 150.353,26.731 150.353,27.408 C150.353,28.086 149.836,28.611 149.146,28.611 C148.458,28.611 147.939,28.086 147.939,27.408 C147.939,26.731 148.458,26.199 149.146,26.199 Z" id="Fill-38" fill="#1A1919" mask="url(#mask-2)"></path>
            <path d="M31.865,20.94 C31.856,15.989 28.761,11.767 24.401,10.095 L24.401,31.785 C28.761,30.111 31.856,25.893 31.865,20.94 Z M16.081,31.781 L16.081,10.097 C11.725,11.774 8.635,15.991 8.624,20.94 C8.635,25.889 11.725,30.106 16.081,31.781 Z M20.243,2.606 C10.118,2.61 1.916,10.815 1.914,20.94 C1.916,31.064 10.118,39.268 20.243,39.27 C30.369,39.268 38.574,31.064 38.577,20.94 C38.574,10.815 30.369,2.61 20.243,2.606 Z M20.199,41 C9.119,41.053 0,32.076 0,21.149 C0,9.208 9.119,0.948 20.199,0.95 L25.391,0.95 C36.339,0.948 46.333,9.204 46.333,21.149 C46.333,32.072 36.339,41 25.391,41 L20.199,41 Z" id="Fill-40" fill="#184977" mask="url(#mask-2)"></path>
        </g>
    </g>
</svg>