<?xml version="1.0" encoding="UTF-8"?>
<svg width="74px" height="46px" viewBox="0 0 74 46" version="1.1" xmlns="http://www.w3.org/2000/svg" xmlns:xlink="http://www.w3.org/1999/xlink">
    <!-- Generator: Sketch 50.2 (55047) - http://www.bohemiancoding.com/sketch -->
    <title>visa</title>
    <desc>Created with Sketch.</desc>
    <defs></defs>
    <g id="Page-1" stroke="none" stroke-width="1" fill="none" fill-rule="evenodd">
        <g id="visa" fill-rule="nonzero">
            <path d="M73.4,43.2 C73.4,44.7 72.2,45.9 70.7,45.9 L3.5,45.9 C2,45.9 0.8,44.7 0.8,43.2 L0.8,2.8 C0.8,1.3 2,0.1 3.5,0.1 L70.7,0.1 C72.2,0.1 73.4,1.3 73.4,2.8 L73.4,43.2 Z" id="Shape" fill="#1A1F71"></path>
            <path d="M28.4,13.4 L20.3,32.7 L15,32.7 L11,17.3 C10.8,16.4 10.5,16 9.8,15.6 C8.6,15 6.6,14.3 4.9,14 L5,13.4 L13.5,13.4 C14.6,13.4 15.6,14.1 15.8,15.4 L17.9,26.6 L23.1,13.5 L28.4,13.5 L28.4,13.4 Z M49.1,26.4 C49.1,21.3 42.1,21 42.1,18.8 C42.1,18.1 42.8,17.4 44.2,17.2 C44.9,17.1 46.9,17 49.1,18.1 L50,14 C48.8,13.6 47.3,13.1 45.3,13.1 C40.4,13.1 36.9,15.7 36.9,19.5 C36.9,22.3 39.4,23.8 41.3,24.7 C43.2,25.6 43.9,26.2 43.9,27.1 C43.9,28.4 42.4,29 40.9,29 C38.4,29 36.9,28.3 35.8,27.8 L34.9,32 C36.1,32.5 38.2,33 40.4,33 C45.6,33 49,30.4 49.1,26.4 Z M62.1,32.7 L66.7,32.7 L62.7,13.4 L58.4,13.4 C57.4,13.4 56.6,14 56.3,14.8 L48.8,32.7 L54,32.7 L55,29.8 L61.4,29.8 L62.1,32.7 Z M56.5,25.9 L59.1,18.7 L60.6,25.9 L56.5,25.9 Z M35.5,13.4 L31.4,32.7 L26.4,32.7 L30.5,13.4 L35.5,13.4 Z" id="Shape" fill="#FFFFFF"></path>
        </g>
    </g>
</svg>