<?xml version="1.0" encoding="UTF-8"?>
<svg width="512px" height="446px" viewBox="0 0 512 446" version="1.1" xmlns="http://www.w3.org/2000/svg" xmlns:xlink="http://www.w3.org/1999/xlink">
    <title>ftx</title>
    <g id="Page-1" stroke="none" stroke-width="1" fill="none" fill-rule="evenodd">
        <g id="ftx" fill-rule="nonzero">
            <path d="M144.672624,0.028145927 C267.015292,-0.00938197568 389.365637,-0.00938197568 511.723658,0.028145927 C511.761186,39.5740263 511.761186,79.1130835 511.723658,118.645317 C389.377578,118.682845 267.027233,118.682845 144.672624,118.645317 C144.63339,79.0994369 144.63339,39.5603798 144.672624,0.028145927 Z" id="Path" fill="#02A6C2"></path>
            <path d="M0.153523238,163.271964 C39.6243478,163.067266 79.1019957,163.067266 118.586467,163.271964 C118.791164,202.742789 118.791164,242.220436 118.586467,281.704908 C79.1037015,281.907899 39.6260536,281.911311 0.153523238,281.715142 C-0.0511744128,242.237495 -0.0511744128,202.756435 0.153523238,163.271964 Z" id="Path" fill="#5FCADE"></path>
            <path d="M144.764738,163.271964 C233.069599,163.084325 321.368489,163.084325 409.661409,163.271964 C409.849049,202.742789 409.849049,242.220436 409.661409,281.704908 C321.358254,281.889135 233.059364,281.889135 144.764738,281.704908 C144.58051,242.232377 144.58051,202.754729 144.764738,163.271964 Z" id="Path" fill="#5FCADE"></path>
            <path d="M144.874763,326.551604 C184.27906,326.123445 223.676535,326.123445 263.067186,326.551604 C263.476582,365.930315 263.482552,405.327789 263.085097,444.744028 C223.6808,445.132954 184.284178,445.12613 144.895232,444.723558 C144.485837,405.348259 144.479014,365.957608 144.874763,326.551604 Z" id="Path" fill="#ABEBF4"></path>
        </g>
    </g>
</svg>