<svg width="1200" height="700" viewBox="0 0 1200 700" fill="none" xmlns="http://www.w3.org/2000/svg">
<rect width="1200" height="700" fill="#FFF8EB" fill-opacity="0.35"/>
<mask id="mask0_2424_4048" style="mask-type:alpha" maskUnits="userSpaceOnUse" x="0" y="0" width="1200" height="700">
<rect width="1200" height="700" fill="#FFF8EB" fill-opacity="0.3"/>
</mask>
<g mask="url(#mask0_2424_4048)">
<path d="M3.6999 637.1L-11.2001 614.6C-11.8001 613.7 -11.6001 612.4 -10.6001 611.8C-9.7001 611.2 -8.4001 611.4 -7.8001 612.4L3.6999 629.9L16.8999 609.9L30.0999 629.9L43.2999 609.9L58.1999 632.4C58.7999 633.3 58.5999 634.6 57.5999 635.2C56.6999 635.8 55.3999 635.6 54.7999 634.6L43.2999 617.1L30.0999 637.1L16.8999 617.1L3.6999 637.1Z" fill="#FFE8AE"/>
<path d="M31.2 618.5L15.9 595.3C15.1 594.1 15.5 592.6 16.6 591.8C17.8 591 19.3 591.4 20.1 592.5L31.2 609.3L44.4 589.3L57.6 609.3L70.8 589.3L86.1 612.5C86.9 613.7 86.5 615.2 85.4 616C84.2 616.8 82.7 616.4 81.9 615.3L70.8 598.5L57.6 618.5L44.4 598.5L31.2 618.5Z" fill="#FFFDF8"/>
<path d="M54.8999 667.9H78.1999V646.8H54.8999V667.9ZM82.1999 671.9H50.8999V642.8H82.1999V671.9Z" fill="#FFE8AE"/>
<path d="M86 579.1H109.3V558H86V579.1ZM113.2 583.1H82V554H113.3V583.1H113.2Z" fill="#FFE8AE"/>
<path d="M144.6 637.1L129.7 614.6C129.1 613.7 129.3 612.4 130.3 611.8C131.2 611.2 132.5 611.4 133.1 612.4L144.6 629.9L157.8 609.9L171 629.9L184.2 609.9L199.1 632.4C199.7 633.3 199.5 634.6 198.5 635.2C197.6 635.8 196.3 635.6 195.7 634.6L184.2 617.1L171 637.1L157.8 617.1L144.6 637.1Z" fill="#FFE8AE"/>
<path d="M172.1 618.5L156.8 595.3C156 594.1 156.4 592.6 157.5 591.8C158.7 591 160.2 591.4 161 592.5L172.1 609.3L185.3 589.3L198.5 609.3L211.7 589.3L227 612.5C227.8 613.7 227.4 615.2 226.3 616C225.1 616.8 223.6 616.4 222.8 615.3L211.7 598.5L198.5 618.5L185.3 598.5L172.1 618.5Z" fill="#FFFDF8"/>
<path d="M195.8 667.9H219.1V646.8H195.8V667.9ZM223.1 671.9H191.8V642.8H223.1V671.9Z" fill="#FFE8AE"/>
<path d="M226.9 579.1H250.2V558H226.9V579.1ZM254.2 583.1H222.9V554H254.2V583.1Z" fill="#FFE8AE"/>
<path d="M117 595.9H130.8V583.6H117V595.9ZM135.8 600.9H112V578.6H135.8V600.9Z" fill="#FFFDF8"/>
<path d="M285.6 637.1L270.7 614.6C270.1 613.7 270.3 612.4 271.3 611.8C272.2 611.2 273.5 611.4 274.1 612.4L285.6 629.9L298.8 609.9L312 629.9L325.2 609.9L340.1 632.4C340.7 633.3 340.5 634.6 339.5 635.2C338.6 635.8 337.3 635.6 336.7 634.6L325.2 617.1L312 637.1L298.8 617.1L285.6 637.1Z" fill="#FFE8AE"/>
<path d="M313 618.5L297.7 595.3C296.9 594.1 297.3 592.6 298.4 591.8C299.6 591 301.1 591.4 301.9 592.5L313 609.3L326.2 589.3L339.4 609.3L352.6 589.3L367.9 612.5C368.7 613.7 368.3 615.2 367.2 616C366 616.8 364.5 616.4 363.7 615.3L352.6 598.5L339.4 618.5L326.2 598.5L313 618.5Z" fill="#FFFDF8"/>
<path d="M336.8 667.9H360.1V646.8H336.8V667.9ZM364 671.9H332.7V642.8H364V671.9Z" fill="#FFE8AE"/>
<path d="M367.8 579.1H391.1V558H367.8V579.1ZM395.1 583.1H363.8V554H395.1V583.1Z" fill="#FFE8AE"/>
<path d="M257.9 595.9H271.7V583.6H257.9V595.9ZM276.7 600.9H252.9V578.6H276.7V600.9Z" fill="#FFFDF8"/>
<path d="M426.5 637.1L411.6 614.6C411 613.7 411.2 612.4 412.2 611.8C413.1 611.2 414.4 611.4 415 612.4L426.5 629.9L439.7 609.9L452.9 629.9L466.1 609.9L481 632.4C481.6 633.3 481.4 634.6 480.4 635.2C479.5 635.8 478.2 635.6 477.6 634.6L466.1 617.1L452.9 637.1L439.7 617.1L426.5 637.1Z" fill="#FFE8AE"/>
<path d="M454 618.5L438.7 595.3C437.9 594.1 438.3 592.6 439.4 591.8C440.6 591 442.1 591.4 442.9 592.5L454 609.3L467.2 589.3L480.4 609.3L493.6 589.3L508.9 612.5C509.7 613.7 509.3 615.2 508.2 616C507 616.8 505.5 616.4 504.7 615.3L493.6 598.5L480.4 618.5L467.2 598.5L454 618.5Z" fill="#FFFDF8"/>
<path d="M477.7 667.9H501V646.8H477.7V667.9ZM505 671.9H473.7V642.8H505V671.9Z" fill="#FFE8AE"/>
<path d="M508.8 579.1H532.1V558H508.8V579.1ZM536 583.1H504.7V554H536V583.1Z" fill="#FFE8AE"/>
<path d="M398.8 595.9H412.6V583.6H398.8V595.9ZM417.6 600.9H393.8V578.6H417.6V600.9Z" fill="#FFFDF8"/>
<path d="M567.4 637.1L552.5 614.6C551.9 613.7 552.1 612.4 553.1 611.8C554 611.2 555.3 611.4 555.9 612.4L567.4 629.9L580.6 609.9L593.8 629.9L607 609.9L621.9 632.4C622.5 633.3 622.3 634.6 621.3 635.2C620.4 635.8 619.1 635.6 618.5 634.6L607 617.1L593.8 637.1L580.6 617.1L567.4 637.1Z" fill="#FFE8AE"/>
<path d="M594.9 618.5L579.6 595.3C578.8 594.1 579.2 592.6 580.3 591.8C581.5 591 583 591.4 583.8 592.5L594.9 609.3L608.1 589.3L621.3 609.3L634.5 589.3L649.8 612.5C650.6 613.7 650.2 615.2 649.1 616C647.9 616.8 646.4 616.4 645.6 615.3L634.5 598.5L621.3 618.5L608.1 598.5L594.9 618.5Z" fill="#FFFDF8"/>
<path d="M618.6 667.9H641.9V646.8H618.6V667.9ZM645.9 671.9H614.6V642.8H645.9V671.9Z" fill="#FFE8AE"/>
<path d="M649.7 579.1H673V558H649.7V579.1ZM677 583.1H645.7V554H677V583.1Z" fill="#FFE8AE"/>
<path d="M539.8 595.9H553.6V583.6H539.8V595.9ZM558.6 600.9H534.8V578.6H558.6V600.9Z" fill="#FFFDF8"/>
<path d="M708.4 637.1L693.5 614.6C692.9 613.7 693.1 612.4 694.1 611.8C695 611.2 696.3 611.4 696.9 612.4L708.4 629.9L721.6 609.9L734.8 629.9L748 609.9L762.9 632.4C763.5 633.3 763.3 634.6 762.3 635.2C761.4 635.8 760.1 635.6 759.5 634.6L748 617.1L734.8 637.1L721.6 617.1L708.4 637.1Z" fill="#FFE8AE"/>
<path d="M735.8 618.5L720.5 595.3C719.7 594.1 720.1 592.6 721.2 591.8C722.4 591 723.9 591.4 724.7 592.5L735.8 609.3L749 589.3L762.2 609.3L775.4 589.3L790.7 612.5C791.5 613.7 791.1 615.2 790 616C788.8 616.8 787.3 616.4 786.5 615.3L775.4 598.5L762.2 618.5L749 598.5L735.8 618.5Z" fill="#FFFDF8"/>
<path d="M759.6 667.9H782.9V646.8H759.6V667.9ZM786.8 671.9H755.5V642.8H786.8V671.9Z" fill="#FFE8AE"/>
<path d="M790.6 579.1H813.9V558H790.6V579.1ZM817.9 583.1H786.6V554H817.9V583.1Z" fill="#FFE8AE"/>
<path d="M680.7 595.9H694.5V583.6H680.7V595.9ZM699.5 600.9H675.7V578.6H699.5V600.9Z" fill="#FFFDF8"/>
<path d="M868.7 633.1L853.8 610.6C853.2 609.7 853.4 608.4 854.4 607.8C855.3 607.2 856.6 607.4 857.2 608.4L868.7 625.9L881.9 605.9L895.1 625.9L908.3 605.9L923.2 628.4C923.8 629.3 923.6 630.6 922.6 631.2C921.7 631.8 920.4 631.6 919.8 630.6L908.3 613.1L895.1 633.1L881.9 613.1L868.7 633.1Z" fill="#FFE8AE"/>
<path d="M896.1 614.5L880.8 591.3C880 590.1 880.4 588.6 881.5 587.8C882.7 587 884.2 587.4 885 588.5L896.1 605.3L909.3 585.3L922.5 605.3L935.7 585.3L951 608.5C951.8 609.7 951.4 611.2 950.3 612C949.1 612.8 947.6 612.4 946.8 611.3L935.7 594.5L922.5 614.5L909.3 594.5L896.1 614.5Z" fill="#FFFDF8"/>
<path d="M919.9 663.9H943.2V642.8H919.9V663.9ZM947.1 667.9H915.8V638.8H947.1V667.9Z" fill="#FFE8AE"/>
<path d="M950.9 575.1H974.2V554H950.9V575.1ZM978.2 579.1H946.9V550H978.2V579.1Z" fill="#FFE8AE"/>
<path d="M841 591.9H854.8V579.6H841V591.9ZM859.8 596.9H836V574.6H859.8V596.9Z" fill="#FFFDF8"/>
<path d="M1029 629.1L1014.1 606.6C1013.5 605.7 1013.7 604.4 1014.7 603.8C1015.6 603.2 1016.9 603.4 1017.5 604.4L1029 621.9L1042.2 601.9L1055.4 621.9L1068.6 601.9L1083.5 624.4C1084.1 625.3 1083.9 626.6 1082.9 627.2C1082 627.8 1080.7 627.6 1080.1 626.6L1068.6 609.1L1055.4 629.1L1042.2 609.1L1029 629.1Z" fill="#FFE8AE"/>
<path d="M1056.4 610.5L1041.1 587.3C1040.3 586.1 1040.7 584.6 1041.8 583.8C1043 583 1044.5 583.4 1045.3 584.5L1056.4 601.3L1069.6 581.3L1082.8 601.3L1096 581.3L1111.3 604.5C1112.1 605.7 1111.7 607.2 1110.6 608C1109.4 608.8 1107.9 608.4 1107.1 607.3L1096 590.5L1082.8 610.5L1069.6 590.5L1056.4 610.5Z" fill="#FFFDF8"/>
<path d="M1080.2 659.9H1103.5V638.8H1080.2V659.9ZM1107.4 663.9H1076.1V634.8H1107.4V663.9Z" fill="#FFE8AE"/>
<path d="M1111.2 571.1H1134.5V550H1111.2V571.1ZM1138.5 575.1H1107.2V546H1138.5V575.1Z" fill="#FFE8AE"/>
<path d="M1001.3 587.9H1015.1V575.6H1001.3V587.9ZM1020.1 592.9H996.3V570.6H1020.1V592.9Z" fill="#FFFDF8"/>
<path d="M1189.3 625.1L1174.4 602.6C1173.8 601.7 1174 600.4 1175 599.8C1175.9 599.2 1177.2 599.4 1177.8 600.4L1189.3 617.9L1202.5 597.9L1215.7 617.9L1228.9 597.9L1243.8 620.4C1244.4 621.3 1244.2 622.6 1243.2 623.2C1242.3 623.8 1241 623.6 1240.4 622.6L1228.9 605.1L1215.7 625.1L1202.5 605.1L1189.3 625.1Z" fill="#FFE8AE"/>
<path d="M1161.6 583.9H1175.4V571.6H1161.6V583.9ZM1180.4 588.9H1156.6V566.6H1180.4V588.9Z" fill="#FFFDF8"/>
<path d="M-6.3001 445.1L-21.2001 422.6C-21.8001 421.7 -21.6001 420.4 -20.6001 419.8C-19.7001 419.2 -18.4001 419.4 -17.8001 420.4L-6.3001 437.9L6.8999 417.9L20.0999 437.9L33.2999 417.9L48.1999 440.4C48.7999 441.3 48.5999 442.6 47.5999 443.2C46.6999 443.8 45.3999 443.6 44.7999 442.6L33.2999 425.1L20.0999 445.1L6.8999 425.1L-6.3001 445.1Z" fill="#FFE8AE"/>
<path d="M21.2 426.5L5.90002 403.3C5.10002 402.1 5.50002 400.6 6.60002 399.8C7.80002 399 9.30002 399.4 10.1 400.5L21.2 417.3L34.4 397.3L47.6 417.3L60.8 397.3L76.1 420.5C76.9 421.7 76.5 423.2 75.4 424C74.2 424.8 72.7 424.4 71.9 423.3L60.8 406.5L47.6 426.5L34.4 406.5L21.2 426.5Z" fill="#FFFDF8"/>
<path d="M44.8999 475.9H68.1999V454.8H44.8999V475.9ZM72.1999 479.9H40.8999V450.8H72.1999V479.9Z" fill="#FFE8AE"/>
<path d="M76 387.1H99.3V366H76V387.1ZM103.2 391.1H72V362H103.3V391.1H103.2Z" fill="#FFE8AE"/>
<path d="M134.6 445.1L119.7 422.6C119.1 421.7 119.3 420.4 120.3 419.8C121.2 419.2 122.5 419.4 123.1 420.4L134.6 437.9L147.8 417.9L161 437.9L174.2 417.9L189.1 440.4C189.7 441.3 189.5 442.6 188.5 443.2C187.6 443.8 186.3 443.6 185.7 442.6L174.2 425.1L161 445.1L147.8 425.1L134.6 445.1Z" fill="#FFE8AE"/>
<path d="M162.1 426.5L146.8 403.3C146 402.1 146.4 400.6 147.5 399.8C148.7 399 150.2 399.4 151 400.5L162.1 417.3L175.3 397.3L188.5 417.3L201.7 397.3L217 420.5C217.8 421.7 217.4 423.2 216.3 424C215.1 424.8 213.6 424.4 212.8 423.3L201.7 406.5L188.5 426.5L175.3 406.5L162.1 426.5Z" fill="#FFFDF8"/>
<path d="M185.8 475.9H209.1V454.8H185.8V475.9ZM213.1 479.9H181.8V450.8H213.1V479.9Z" fill="#FFE8AE"/>
<path d="M216.9 387.1H240.2V366H216.9V387.1ZM244.2 391.1H212.9V362H244.2V391.1Z" fill="#FFE8AE"/>
<path d="M107 403.9H120.8V391.6H107V403.9ZM125.8 408.9H102V386.6H125.8V408.9Z" fill="#FFFDF8"/>
<path d="M275.6 445.1L260.7 422.6C260.1 421.7 260.3 420.4 261.3 419.8C262.2 419.2 263.5 419.4 264.1 420.4L275.6 437.9L288.8 417.9L302 437.9L315.2 417.9L330.1 440.4C330.7 441.3 330.5 442.6 329.5 443.2C328.6 443.8 327.3 443.6 326.7 442.6L315.2 425.1L302 445.1L288.8 425.1L275.6 445.1Z" fill="#FFE8AE"/>
<path d="M303 426.5L287.7 403.3C286.9 402.1 287.3 400.6 288.4 399.8C289.6 399 291.1 399.4 291.9 400.5L303 417.3L316.2 397.3L329.4 417.3L342.6 397.3L357.9 420.5C358.7 421.7 358.3 423.2 357.2 424C356 424.8 354.5 424.4 353.7 423.3L342.6 406.5L329.4 426.5L316.2 406.5L303 426.5Z" fill="#FFFDF8"/>
<path d="M326.8 475.9H350.1V454.8H326.8V475.9ZM354 479.9H322.7V450.8H354V479.9Z" fill="#FFE8AE"/>
<path d="M357.8 387.1H381.1V366H357.8V387.1ZM385.1 391.1H353.8V362H385.1V391.1Z" fill="#FFE8AE"/>
<path d="M247.9 403.9H261.7V391.6H247.9V403.9ZM266.7 408.9H242.9V386.6H266.7V408.9Z" fill="#FFFDF8"/>
<path d="M416.5 445.1L401.6 422.6C401 421.7 401.2 420.4 402.2 419.8C403.1 419.2 404.4 419.4 405 420.4L416.5 437.9L429.7 417.9L442.9 437.9L456.1 417.9L471 440.4C471.6 441.3 471.4 442.6 470.4 443.2C469.5 443.8 468.2 443.6 467.6 442.6L456.1 425.1L442.9 445.1L429.7 425.1L416.5 445.1Z" fill="#FFE8AE"/>
<path d="M444 426.5L428.7 403.3C427.9 402.1 428.3 400.6 429.4 399.8C430.6 399 432.1 399.4 432.9 400.5L444 417.3L457.2 397.3L470.4 417.3L483.6 397.3L498.9 420.5C499.7 421.7 499.3 423.2 498.2 424C497 424.8 495.5 424.4 494.7 423.3L483.6 406.5L470.4 426.5L457.2 406.5L444 426.5Z" fill="#FFFDF8"/>
<path d="M467.7 475.9H491V454.8H467.7V475.9ZM495 479.9H463.7V450.8H495V479.9Z" fill="#FFE8AE"/>
<path d="M498.8 387.1H522.1V366H498.8V387.1ZM526 391.1H494.7V362H526V391.1Z" fill="#FFE8AE"/>
<path d="M388.8 403.9H402.6V391.6H388.8V403.9ZM407.6 408.9H383.8V386.6H407.6V408.9Z" fill="#FFFDF8"/>
<path d="M557.4 445.1L542.5 422.6C541.9 421.7 542.1 420.4 543.1 419.8C544 419.2 545.3 419.4 545.9 420.4L557.4 437.9L570.6 417.9L583.8 437.9L597 417.9L611.9 440.4C612.5 441.3 612.3 442.6 611.3 443.2C610.4 443.8 609.1 443.6 608.5 442.6L597 425.1L583.8 445.1L570.6 425.1L557.4 445.1Z" fill="#FFE8AE"/>
<path d="M584.9 426.5L569.6 403.3C568.8 402.1 569.2 400.6 570.3 399.8C571.5 399 573 399.4 573.8 400.5L584.9 417.3L598.1 397.3L611.3 417.3L624.5 397.3L639.8 420.5C640.6 421.7 640.2 423.2 639.1 424C637.9 424.8 636.4 424.4 635.6 423.3L624.5 406.5L611.3 426.5L598.1 406.5L584.9 426.5Z" fill="#FFFDF8"/>
<path d="M608.6 475.9H631.9V454.8H608.6V475.9ZM635.9 479.9H604.6V450.8H635.9V479.9Z" fill="#FFE8AE"/>
<path d="M639.7 387.1H663V366H639.7V387.1ZM667 391.1H635.7V362H667V391.1Z" fill="#FFE8AE"/>
<path d="M529.8 403.9H543.6V391.6H529.8V403.9ZM548.6 408.9H524.8V386.6H548.6V408.9Z" fill="#FFFDF8"/>
<path d="M698.4 445.1L683.5 422.6C682.9 421.7 683.1 420.4 684.1 419.8C685 419.2 686.3 419.4 686.9 420.4L698.4 437.9L711.6 417.9L724.8 437.9L738 417.9L752.9 440.4C753.5 441.3 753.3 442.6 752.3 443.2C751.4 443.8 750.1 443.6 749.5 442.6L738 425.1L724.8 445.1L711.6 425.1L698.4 445.1Z" fill="#FFE8AE"/>
<path d="M725.8 426.5L710.5 403.3C709.7 402.1 710.1 400.6 711.2 399.8C712.4 399 713.9 399.4 714.7 400.5L725.8 417.3L739 397.3L752.2 417.3L765.4 397.3L780.7 420.5C781.5 421.7 781.1 423.2 780 424C778.8 424.8 777.3 424.4 776.5 423.3L765.4 406.5L752.2 426.5L739 406.5L725.8 426.5Z" fill="#FFFDF8"/>
<path d="M749.6 475.9H772.9V454.8H749.6V475.9ZM776.8 479.9H745.5V450.8H776.8V479.9Z" fill="#FFE8AE"/>
<path d="M780.6 387.1H803.9V366H780.6V387.1ZM807.9 391.1H776.6V362H807.9V391.1Z" fill="#FFE8AE"/>
<path d="M670.7 403.9H684.5V391.6H670.7V403.9ZM689.5 408.9H665.7V386.6H689.5V408.9Z" fill="#FFFDF8"/>
<path d="M858.7 441.1L843.8 418.6C843.2 417.7 843.4 416.4 844.4 415.8C845.3 415.2 846.6 415.4 847.2 416.4L858.7 433.9L871.9 413.9L885.1 433.9L898.3 413.9L913.2 436.4C913.8 437.3 913.6 438.6 912.6 439.2C911.7 439.8 910.4 439.6 909.8 438.6L898.3 421.1L885.1 441.1L871.9 421.1L858.7 441.1Z" fill="#FFE8AE"/>
<path d="M886.1 422.5L870.8 399.3C870 398.1 870.4 396.6 871.5 395.8C872.7 395 874.2 395.4 875 396.5L886.1 413.3L899.3 393.3L912.5 413.3L925.7 393.3L941 416.5C941.8 417.7 941.4 419.2 940.3 420C939.1 420.8 937.6 420.4 936.8 419.3L925.7 402.5L912.5 422.5L899.3 402.5L886.1 422.5Z" fill="#FFFDF8"/>
<path d="M909.9 471.9H933.2V450.8H909.9V471.9ZM937.1 475.9H905.8V446.8H937.1V475.9Z" fill="#FFE8AE"/>
<path d="M940.9 383.1H964.2V362H940.9V383.1ZM968.2 387.1H936.9V358H968.2V387.1Z" fill="#FFE8AE"/>
<path d="M831 399.9H844.8V387.6H831V399.9ZM849.8 404.9H826V382.6H849.8V404.9Z" fill="#FFFDF8"/>
<path d="M1019 437.1L1004.1 414.6C1003.5 413.7 1003.7 412.4 1004.7 411.8C1005.6 411.2 1006.9 411.4 1007.5 412.4L1019 429.9L1032.2 409.9L1045.4 429.9L1058.6 409.9L1073.5 432.4C1074.1 433.3 1073.9 434.6 1072.9 435.2C1072 435.8 1070.7 435.6 1070.1 434.6L1058.6 417.1L1045.4 437.1L1032.2 417.1L1019 437.1Z" fill="#FFE8AE"/>
<path d="M1046.4 418.5L1031.1 395.3C1030.3 394.1 1030.7 392.6 1031.8 391.8C1033 391 1034.5 391.4 1035.3 392.5L1046.4 409.3L1059.6 389.3L1072.8 409.3L1086 389.3L1101.3 412.5C1102.1 413.7 1101.7 415.2 1100.6 416C1099.4 416.8 1097.9 416.4 1097.1 415.3L1086 398.5L1072.8 418.5L1059.6 398.5L1046.4 418.5Z" fill="#FFFDF8"/>
<path d="M1070.2 467.9H1093.5V446.8H1070.2V467.9ZM1097.4 471.9H1066.1V442.8H1097.4V471.9Z" fill="#FFE8AE"/>
<path d="M1101.2 379.1H1124.5V358H1101.2V379.1ZM1128.5 383.1H1097.2V354H1128.5V383.1Z" fill="#FFE8AE"/>
<path d="M991.3 395.9H1005.1V383.6H991.3V395.9ZM1010.1 400.9H986.3V378.6H1010.1V400.9Z" fill="#FFFDF8"/>
<path d="M1179.3 433.1L1164.4 410.6C1163.8 409.7 1164 408.4 1165 407.8C1165.9 407.2 1167.2 407.4 1167.8 408.4L1179.3 425.9L1192.5 405.9L1205.7 425.9L1218.9 405.9L1233.8 428.4C1234.4 429.3 1234.2 430.6 1233.2 431.2C1232.3 431.8 1231 431.6 1230.4 430.6L1218.9 413.1L1205.7 433.1L1192.5 413.1L1179.3 433.1Z" fill="#FFE8AE"/>
<path d="M1206.7 414.5L1191.4 391.3C1190.6 390.1 1191 388.6 1192.1 387.8C1193.3 387 1194.8 387.4 1195.6 388.5L1206.7 405.3L1219.9 385.3L1233.1 405.3L1246.3 385.3L1261.6 408.5C1262.4 409.7 1262 411.2 1260.9 412C1259.7 412.8 1258.2 412.4 1257.4 411.3L1246.3 394.5L1233.1 414.5L1219.9 394.5L1206.7 414.5Z" fill="#FFFDF8"/>
<path d="M1151.6 391.9H1165.4V379.6H1151.6V391.9ZM1170.4 396.9H1146.6V374.6H1170.4V396.9Z" fill="#FFFDF8"/>
<path d="M-16.3001 253.1L-31.2001 230.6C-31.8001 229.7 -31.6001 228.4 -30.6001 227.8C-29.7001 227.2 -28.4001 227.4 -27.8001 228.4L-16.3001 245.9L-3.1001 225.9L10.0999 245.9L23.2999 225.9L38.1999 248.4C38.7999 249.3 38.5999 250.6 37.5999 251.2C36.6999 251.8 35.3999 251.6 34.7999 250.6L23.2999 233.1L10.0999 253.1L-3.1001 233.1L-16.3001 253.1Z" fill="#FFE8AE"/>
<path d="M11.2 234.5L-4.09998 211.3C-4.89998 210.1 -4.49998 208.6 -3.39998 207.8C-2.19998 207 -0.699983 207.4 0.100017 208.5L11.2 225.3L24.4 205.3L37.6 225.3L50.8 205.3L66.1 228.5C66.9 229.7 66.5 231.2 65.4 232C64.2 232.8 62.7 232.4 61.9 231.3L50.8 214.5L37.6 234.5L24.4 214.5L11.2 234.5Z" fill="#FFFDF8"/>
<path d="M34.8999 283.9H58.1999V262.8H34.8999V283.9ZM62.1999 287.9H30.8999V258.8H62.1999V287.9Z" fill="#FFE8AE"/>
<path d="M66 195.1H89.3V174H66V195.1ZM93.2 199.1H62V170H93.3V199.1H93.2Z" fill="#FFE8AE"/>
<path d="M124.6 253.1L109.7 230.6C109.1 229.7 109.3 228.4 110.3 227.8C111.2 227.2 112.5 227.4 113.1 228.4L124.6 245.9L137.8 225.9L151 245.9L164.2 225.9L179.1 248.4C179.7 249.3 179.5 250.6 178.5 251.2C177.6 251.8 176.3 251.6 175.7 250.6L164.2 233.1L151 253.1L137.8 233.1L124.6 253.1Z" fill="#FFE8AE"/>
<path d="M152.1 234.5L136.8 211.3C136 210.1 136.4 208.6 137.5 207.8C138.7 207 140.2 207.4 141 208.5L152.1 225.3L165.3 205.3L178.5 225.3L191.7 205.3L207 228.5C207.8 229.7 207.4 231.2 206.3 232C205.1 232.8 203.6 232.4 202.8 231.3L191.7 214.5L178.5 234.5L165.3 214.5L152.1 234.5Z" fill="#FFFDF8"/>
<path d="M175.8 283.9H199.1V262.8H175.8V283.9ZM203.1 287.9H171.8V258.8H203.1V287.9Z" fill="#FFE8AE"/>
<path d="M206.9 195.1H230.2V174H206.9V195.1ZM234.2 199.1H202.9V170H234.2V199.1Z" fill="#FFE8AE"/>
<path d="M97 211.9H110.8V199.6H97V211.9ZM115.8 216.9H92V194.6H115.8V216.9Z" fill="#FFFDF8"/>
<path d="M265.6 253.1L250.7 230.6C250.1 229.7 250.3 228.4 251.3 227.8C252.2 227.2 253.5 227.4 254.1 228.4L265.6 245.9L278.8 225.9L292 245.9L305.2 225.9L320.1 248.4C320.7 249.3 320.5 250.6 319.5 251.2C318.6 251.8 317.3 251.6 316.7 250.6L305.2 233.1L292 253.1L278.8 233.1L265.6 253.1Z" fill="#FFE8AE"/>
<path d="M293 234.5L277.7 211.3C276.9 210.1 277.3 208.6 278.4 207.8C279.6 207 281.1 207.4 281.9 208.5L293 225.3L306.2 205.3L319.4 225.3L332.6 205.3L347.9 228.5C348.7 229.7 348.3 231.2 347.2 232C346 232.8 344.5 232.4 343.7 231.3L332.6 214.5L319.4 234.5L306.2 214.5L293 234.5Z" fill="#FFFDF8"/>
<path d="M316.8 283.9H340.1V262.8H316.8V283.9ZM344 287.9H312.7V258.8H344V287.9Z" fill="#FFE8AE"/>
<path d="M347.8 195.1H371.1V174H347.8V195.1ZM375.1 199.1H343.8V170H375.1V199.1Z" fill="#FFE8AE"/>
<path d="M237.9 211.9H251.7V199.6H237.9V211.9ZM256.7 216.9H232.9V194.6H256.7V216.9Z" fill="#FFFDF8"/>
<path d="M406.5 253.1L391.6 230.6C391 229.7 391.2 228.4 392.2 227.8C393.1 227.2 394.4 227.4 395 228.4L406.5 245.9L419.7 225.9L432.9 245.9L446.1 225.9L461 248.4C461.6 249.3 461.4 250.6 460.4 251.2C459.5 251.8 458.2 251.6 457.6 250.6L446.1 233.1L432.9 253.1L419.7 233.1L406.5 253.1Z" fill="#FFE8AE"/>
<path d="M434 234.5L418.7 211.3C417.9 210.1 418.3 208.6 419.4 207.8C420.6 207 422.1 207.4 422.9 208.5L434 225.3L447.2 205.3L460.4 225.3L473.6 205.3L488.9 228.5C489.7 229.7 489.3 231.2 488.2 232C487 232.8 485.5 232.4 484.7 231.3L473.6 214.5L460.4 234.5L447.2 214.5L434 234.5Z" fill="#FFFDF8"/>
<path d="M457.7 283.9H481V262.8H457.7V283.9ZM485 287.9H453.7V258.8H485V287.9Z" fill="#FFE8AE"/>
<path d="M488.8 195.1H512.1V174H488.8V195.1ZM516 199.1H484.7V170H516V199.1Z" fill="#FFE8AE"/>
<path d="M378.8 211.9H392.6V199.6H378.8V211.9ZM397.6 216.9H373.8V194.6H397.6V216.9Z" fill="#FFFDF8"/>
<path d="M547.4 253.1L532.5 230.6C531.9 229.7 532.1 228.4 533.1 227.8C534 227.2 535.3 227.4 535.9 228.4L547.4 245.9L560.6 225.9L573.8 245.9L587 225.9L601.9 248.4C602.5 249.3 602.3 250.6 601.3 251.2C600.4 251.8 599.1 251.6 598.5 250.6L587 233.1L573.8 253.1L560.6 233.1L547.4 253.1Z" fill="#FFE8AE"/>
<path d="M574.9 234.5L559.6 211.3C558.8 210.1 559.2 208.6 560.3 207.8C561.5 207 563 207.4 563.8 208.5L574.9 225.3L588.1 205.3L601.3 225.3L614.5 205.3L629.8 228.5C630.6 229.7 630.2 231.2 629.1 232C627.9 232.8 626.4 232.4 625.6 231.3L614.5 214.5L601.3 234.5L588.1 214.5L574.9 234.5Z" fill="#FFFDF8"/>
<path d="M598.6 283.9H621.9V262.8H598.6V283.9ZM625.9 287.9H594.6V258.8H625.9V287.9Z" fill="#FFE8AE"/>
<path d="M629.7 195.1H653V174H629.7V195.1ZM657 199.1H625.7V170H657V199.1Z" fill="#FFE8AE"/>
<path d="M519.8 211.9H533.6V199.6H519.8V211.9ZM538.6 216.9H514.8V194.6H538.6V216.9Z" fill="#FFFDF8"/>
<path d="M688.4 253.1L673.5 230.6C672.9 229.7 673.1 228.4 674.1 227.8C675 227.2 676.3 227.4 676.9 228.4L688.4 245.9L701.6 225.9L714.8 245.9L728 225.9L742.9 248.4C743.5 249.3 743.3 250.6 742.3 251.2C741.4 251.8 740.1 251.6 739.5 250.6L728 233.1L714.8 253.1L701.6 233.1L688.4 253.1Z" fill="#FFE8AE"/>
<path d="M715.8 234.5L700.5 211.3C699.7 210.1 700.1 208.6 701.2 207.8C702.4 207 703.9 207.4 704.7 208.5L715.8 225.3L729 205.3L742.2 225.3L755.4 205.3L770.7 228.5C771.5 229.7 771.1 231.2 770 232C768.8 232.8 767.3 232.4 766.5 231.3L755.4 214.5L742.2 234.5L729 214.5L715.8 234.5Z" fill="#FFFDF8"/>
<path d="M739.6 283.9H762.9V262.8H739.6V283.9ZM766.8 287.9H735.5V258.8H766.8V287.9Z" fill="#FFE8AE"/>
<path d="M770.6 195.1H793.9V174H770.6V195.1ZM797.9 199.1H766.6V170H797.9V199.1Z" fill="#FFE8AE"/>
<path d="M660.7 211.9H674.5V199.6H660.7V211.9ZM679.5 216.9H655.7V194.6H679.5V216.9Z" fill="#FFFDF8"/>
<path d="M848.7 249.1L833.8 226.6C833.2 225.7 833.4 224.4 834.4 223.8C835.3 223.2 836.6 223.4 837.2 224.4L848.7 241.9L861.9 221.9L875.1 241.9L888.3 221.9L903.2 244.4C903.8 245.3 903.6 246.6 902.6 247.2C901.7 247.8 900.4 247.6 899.8 246.6L888.3 229.1L875.1 249.1L861.9 229.1L848.7 249.1Z" fill="#FFE8AE"/>
<path d="M876.1 230.5L860.8 207.3C860 206.1 860.4 204.6 861.5 203.8C862.7 203 864.2 203.4 865 204.5L876.1 221.3L889.3 201.3L902.5 221.3L915.7 201.3L931 224.5C931.8 225.7 931.4 227.2 930.3 228C929.1 228.8 927.6 228.4 926.8 227.3L915.7 210.5L902.5 230.5L889.3 210.5L876.1 230.5Z" fill="#FFFDF8"/>
<path d="M899.9 279.9H923.2V258.8H899.9V279.9ZM927.1 283.9H895.8V254.8H927.1V283.9Z" fill="#FFE8AE"/>
<path d="M930.9 191.1H954.2V170H930.9V191.1ZM958.2 195.1H926.9V166H958.2V195.1Z" fill="#FFE8AE"/>
<path d="M821 207.9H834.8V195.6H821V207.9ZM839.8 212.9H816V190.6H839.8V212.9Z" fill="#FFFDF8"/>
<path d="M1009 245.1L994.1 222.6C993.5 221.7 993.7 220.4 994.7 219.8C995.6 219.2 996.9 219.4 997.5 220.4L1009 237.9L1022.2 217.9L1035.4 237.9L1048.6 217.9L1063.5 240.4C1064.1 241.3 1063.9 242.6 1062.9 243.2C1062 243.8 1060.7 243.6 1060.1 242.6L1048.6 225.1L1035.4 245.1L1022.2 225.1L1009 245.1Z" fill="#FFE8AE"/>
<path d="M1036.4 226.5L1021.1 203.3C1020.3 202.1 1020.7 200.6 1021.8 199.8C1023 199 1024.5 199.4 1025.3 200.5L1036.4 217.3L1049.6 197.3L1062.8 217.3L1076 197.3L1091.3 220.5C1092.1 221.7 1091.7 223.2 1090.6 224C1089.4 224.8 1087.9 224.4 1087.1 223.3L1076 206.5L1062.8 226.5L1049.6 206.5L1036.4 226.5Z" fill="#FFFDF8"/>
<path d="M1060.2 275.9H1083.5V254.8H1060.2V275.9ZM1087.4 279.9H1056.1V250.8H1087.4V279.9Z" fill="#FFE8AE"/>
<path d="M1091.2 187.1H1114.5V166H1091.2V187.1ZM1118.5 191.1H1087.2V162H1118.5V191.1Z" fill="#FFE8AE"/>
<path d="M981.3 203.9H995.1V191.6H981.3V203.9ZM1000.1 208.9H976.3V186.6H1000.1V208.9Z" fill="#FFFDF8"/>
<path d="M1169.3 241.1L1154.4 218.6C1153.8 217.7 1154 216.4 1155 215.8C1155.9 215.2 1157.2 215.4 1157.8 216.4L1169.3 233.9L1182.5 213.9L1195.7 233.9L1208.9 213.9L1223.8 236.4C1224.4 237.3 1224.2 238.6 1223.2 239.2C1222.3 239.8 1221 239.6 1220.4 238.6L1208.9 221.1L1195.7 241.1L1182.5 221.1L1169.3 241.1Z" fill="#FFE8AE"/>
<path d="M1196.7 222.5L1181.4 199.3C1180.6 198.1 1181 196.6 1182.1 195.8C1183.3 195 1184.8 195.4 1185.6 196.5L1196.7 213.3L1209.9 193.3L1223.1 213.3L1236.3 193.3L1251.6 216.5C1252.4 217.7 1252 219.2 1250.9 220C1249.7 220.8 1248.2 220.4 1247.4 219.3L1236.3 202.5L1223.1 222.5L1209.9 202.5L1196.7 222.5Z" fill="#FFFDF8"/>
<path d="M1141.6 199.9H1155.4V187.6H1141.6V199.9ZM1160.4 204.9H1136.6V182.6H1160.4V204.9Z" fill="#FFFDF8"/>
<path d="M-26.3001 61.0999L-41.2001 38.5999C-41.8001 37.6999 -41.6001 36.3999 -40.6001 35.7999C-39.7001 35.1999 -38.4001 35.3999 -37.8001 36.3999L-26.3001 53.8999L-13.1001 33.8999L0.0999031 53.8999L13.2999 33.8999L28.1999 56.3999C28.7999 57.2999 28.5999 58.5999 27.5999 59.1999C26.6999 59.7999 25.3999 59.5999 24.7999 58.5999L13.2999 41.0999L0.0999031 61.0999L-13.1001 41.0999L-26.3001 61.0999Z" fill="#FFE8AE"/>
<path d="M1.20002 42.5001L-14.1 19.3C-14.9 18.1 -14.5 16.6 -13.4 15.8C-12.2 15 -10.7 15.4001 -9.89998 16.5001L1.20002 33.3L14.4 13.3L27.6 33.3L40.8 13.3L56.1 36.5001C56.9 37.7001 56.5 39.2001 55.4 40.0001C54.2 40.8001 52.7 40.4 51.9 39.3L40.8 22.5001L27.6 42.5001L14.4 22.5001L1.20002 42.5001Z" fill="#FFFDF8"/>
<path d="M24.8999 91.9001H48.1999V70.8H24.8999V91.9001ZM52.1999 95.9001H20.8999V66.8H52.1999V95.9001Z" fill="#FFE8AE"/>
<path d="M56 3.10001H79.3V-18H56V3.10001ZM83.2 7.10001H52V-22H83.3V7.10001H83.2Z" fill="#FFE8AE"/>
<path d="M114.6 61.0999L99.7 38.5999C99.1 37.6999 99.3 36.3999 100.3 35.7999C101.2 35.1999 102.5 35.3999 103.1 36.3999L114.6 53.8999L127.8 33.8999L141 53.8999L154.2 33.8999L169.1 56.3999C169.7 57.2999 169.5 58.5999 168.5 59.1999C167.6 59.7999 166.3 59.5999 165.7 58.5999L154.2 41.0999L141 61.0999L127.8 41.0999L114.6 61.0999Z" fill="#FFE8AE"/>
<path d="M142.1 42.5001L126.8 19.3C126 18.1 126.4 16.6 127.5 15.8C128.7 15 130.2 15.4001 131 16.5001L142.1 33.3L155.3 13.3L168.5 33.3L181.7 13.3L197 36.5001C197.8 37.7001 197.4 39.2001 196.3 40.0001C195.1 40.8001 193.6 40.4 192.8 39.3L181.7 22.5001L168.5 42.5001L155.3 22.5001L142.1 42.5001Z" fill="#FFFDF8"/>
<path d="M165.8 91.9001H189.1V70.8H165.8V91.9001ZM193.1 95.9001H161.8V66.8H193.1V95.9001Z" fill="#FFE8AE"/>
<path d="M196.9 3.10001H220.2V-18H196.9V3.10001ZM224.2 7.10001H192.9V-22H224.2V7.10001Z" fill="#FFE8AE"/>
<path d="M87 19.9001H100.8V7.6001H87V19.9001ZM105.8 24.9001H82V2.6001H105.8V24.9001Z" fill="#FFFDF8"/>
<path d="M255.6 61.0999L240.7 38.5999C240.1 37.6999 240.3 36.3999 241.3 35.7999C242.2 35.1999 243.5 35.3999 244.1 36.3999L255.6 53.8999L268.8 33.8999L282 53.8999L295.2 33.8999L310.1 56.3999C310.7 57.2999 310.5 58.5999 309.5 59.1999C308.6 59.7999 307.3 59.5999 306.7 58.5999L295.2 41.0999L282 61.0999L268.8 41.0999L255.6 61.0999Z" fill="#FFE8AE"/>
<path d="M283 42.5001L267.7 19.3C266.9 18.1 267.3 16.6 268.4 15.8C269.6 15 271.1 15.4001 271.9 16.5001L283 33.3L296.2 13.3L309.4 33.3L322.6 13.3L337.9 36.5001C338.7 37.7001 338.3 39.2001 337.2 40.0001C336 40.8001 334.5 40.4 333.7 39.3L322.6 22.5001L309.4 42.5001L296.2 22.5001L283 42.5001Z" fill="#FFFDF8"/>
<path d="M306.8 91.9001H330.1V70.8H306.8V91.9001ZM334 95.9001H302.7V66.8H334V95.9001Z" fill="#FFE8AE"/>
<path d="M337.8 3.10001H361.1V-18H337.8V3.10001ZM365.1 7.10001H333.8V-22H365.1V7.10001Z" fill="#FFE8AE"/>
<path d="M227.9 19.9001H241.7V7.6001H227.9V19.9001ZM246.7 24.9001H222.9V2.6001H246.7V24.9001Z" fill="#FFFDF8"/>
<path d="M396.5 61.0999L381.6 38.5999C381 37.6999 381.2 36.3999 382.2 35.7999C383.1 35.1999 384.4 35.3999 385 36.3999L396.5 53.8999L409.7 33.8999L422.9 53.8999L436.1 33.8999L451 56.3999C451.6 57.2999 451.4 58.5999 450.4 59.1999C449.5 59.7999 448.2 59.5999 447.6 58.5999L436.1 41.0999L422.9 61.0999L409.7 41.0999L396.5 61.0999Z" fill="#FFE8AE"/>
<path d="M424 42.5001L408.7 19.3C407.9 18.1 408.3 16.6 409.4 15.8C410.6 15 412.1 15.4001 412.9 16.5001L424 33.3L437.2 13.3L450.4 33.3L463.6 13.3L478.9 36.5001C479.7 37.7001 479.3 39.2001 478.2 40.0001C477 40.8001 475.5 40.4 474.7 39.3L463.6 22.5001L450.4 42.5001L437.2 22.5001L424 42.5001Z" fill="#FFFDF8"/>
<path d="M447.7 91.9001H471V70.8H447.7V91.9001ZM475 95.9001H443.7V66.8H475V95.9001Z" fill="#FFE8AE"/>
<path d="M478.8 3.10001H502.1V-18H478.8V3.10001ZM506 7.10001H474.7V-22H506V7.10001Z" fill="#FFE8AE"/>
<path d="M368.8 19.9001H382.6V7.6001H368.8V19.9001ZM387.6 24.9001H363.8V2.6001H387.6V24.9001Z" fill="#FFFDF8"/>
<path d="M537.4 61.0999L522.5 38.5999C521.9 37.6999 522.1 36.3999 523.1 35.7999C524 35.1999 525.3 35.3999 525.9 36.3999L537.4 53.8999L550.6 33.8999L563.8 53.8999L577 33.8999L591.9 56.3999C592.5 57.2999 592.3 58.5999 591.3 59.1999C590.4 59.7999 589.1 59.5999 588.5 58.5999L577 41.0999L563.8 61.0999L550.6 41.0999L537.4 61.0999Z" fill="#FFE8AE"/>
<path d="M564.9 42.5001L549.6 19.3C548.8 18.1 549.2 16.6 550.3 15.8C551.5 15 553 15.4001 553.8 16.5001L564.9 33.3L578.1 13.3L591.3 33.3L604.5 13.3L619.8 36.5001C620.6 37.7001 620.2 39.2001 619.1 40.0001C617.9 40.8001 616.4 40.4 615.6 39.3L604.5 22.5001L591.3 42.5001L578.1 22.5001L564.9 42.5001Z" fill="#FFFDF8"/>
<path d="M588.6 91.9001H611.9V70.8H588.6V91.9001ZM615.9 95.9001H584.6V66.8H615.9V95.9001Z" fill="#FFE8AE"/>
<path d="M619.7 3.10001H643V-18H619.7V3.10001ZM647 7.10001H615.7V-22H647V7.10001Z" fill="#FFE8AE"/>
<path d="M509.8 19.9001H523.6V7.6001H509.8V19.9001ZM528.6 24.9001H504.8V2.6001H528.6V24.9001Z" fill="#FFFDF8"/>
<path d="M678.4 61.0999L663.5 38.5999C662.9 37.6999 663.1 36.3999 664.1 35.7999C665 35.1999 666.3 35.3999 666.9 36.3999L678.4 53.8999L691.6 33.8999L704.8 53.8999L718 33.8999L732.9 56.3999C733.5 57.2999 733.3 58.5999 732.3 59.1999C731.4 59.7999 730.1 59.5999 729.5 58.5999L718 41.0999L704.8 61.0999L691.6 41.0999L678.4 61.0999Z" fill="#FFE8AE"/>
<path d="M705.8 42.5001L690.5 19.3C689.7 18.1 690.1 16.6 691.2 15.8C692.4 15 693.9 15.4001 694.7 16.5001L705.8 33.3L719 13.3L732.2 33.3L745.4 13.3L760.7 36.5001C761.5 37.7001 761.1 39.2001 760 40.0001C758.8 40.8001 757.3 40.4 756.5 39.3L745.4 22.5001L732.2 42.5001L719 22.5001L705.8 42.5001Z" fill="#FFFDF8"/>
<path d="M729.6 91.9001H752.9V70.8H729.6V91.9001ZM756.8 95.9001H725.5V66.8H756.8V95.9001Z" fill="#FFE8AE"/>
<path d="M760.6 3.10001H783.9V-18H760.6V3.10001ZM787.9 7.10001H756.6V-22H787.9V7.10001Z" fill="#FFE8AE"/>
<path d="M650.7 19.9001H664.5V7.6001H650.7V19.9001ZM669.5 24.9001H645.7V2.6001H669.5V24.9001Z" fill="#FFFDF8"/>
<path d="M838.7 57.0999L823.8 34.5999C823.2 33.6999 823.4 32.3999 824.4 31.7999C825.3 31.1999 826.6 31.3999 827.2 32.3999L838.7 49.8999L851.9 29.8999L865.1 49.8999L878.3 29.8999L893.2 52.3999C893.8 53.2999 893.6 54.5999 892.6 55.1999C891.7 55.7999 890.4 55.5999 889.8 54.5999L878.3 37.0999L865.1 57.0999L851.9 37.0999L838.7 57.0999Z" fill="#FFE8AE"/>
<path d="M866.1 38.5001L850.8 15.3C850 14.1 850.4 12.6 851.5 11.8C852.7 11 854.2 11.4001 855 12.5001L866.1 29.3L879.3 9.30005L892.5 29.3L905.7 9.30005L921 32.5001C921.8 33.7001 921.4 35.2001 920.3 36.0001C919.1 36.8001 917.6 36.4 916.8 35.3L905.7 18.5001L892.5 38.5001L879.3 18.5001L866.1 38.5001Z" fill="#FFFDF8"/>
<path d="M889.9 87.9001H913.2V66.8H889.9V87.9001ZM917.1 91.9001H885.8V62.8H917.1V91.9001Z" fill="#FFE8AE"/>
<path d="M920.9 -0.899994H944.2V-22H920.9V-0.899994ZM948.2 3.10001H916.9V-26H948.2V3.10001Z" fill="#FFE8AE"/>
<path d="M811 15.9001H824.8V3.6001H811V15.9001ZM829.8 20.9001H806V-1.3999H829.8V20.9001Z" fill="#FFFDF8"/>
<path d="M999 53.0999L984.1 30.5999C983.5 29.6999 983.7 28.3999 984.7 27.7999C985.6 27.1999 986.9 27.3999 987.5 28.3999L999 45.8999L1012.2 25.8999L1025.4 45.8999L1038.6 25.8999L1053.5 48.3999C1054.1 49.2999 1053.9 50.5999 1052.9 51.1999C1052 51.7999 1050.7 51.5999 1050.1 50.5999L1038.6 33.0999L1025.4 53.0999L1012.2 33.0999L999 53.0999Z" fill="#FFE8AE"/>
<path d="M1026.4 34.5001L1011.1 11.3C1010.3 10.1 1010.7 8.60005 1011.8 7.80005C1013 7.00005 1014.5 7.40006 1015.3 8.50006L1026.4 25.3L1039.6 5.30005L1052.8 25.3L1066 5.30005L1081.3 28.5001C1082.1 29.7001 1081.7 31.2001 1080.6 32.0001C1079.4 32.8001 1077.9 32.4 1077.1 31.3L1066 14.5001L1052.8 34.5001L1039.6 14.5001L1026.4 34.5001Z" fill="#FFFDF8"/>
<path d="M1050.2 83.9001H1073.5V62.8H1050.2V83.9001ZM1077.4 87.9001H1046.1V58.8H1077.4V87.9001Z" fill="#FFE8AE"/>
<path d="M971.3 11.9001H985.1V-0.399902H971.3V11.9001ZM990.1 16.9001H966.3V-5.3999H990.1V16.9001Z" fill="#FFFDF8"/>
<path d="M1159.3 49.0999L1144.4 26.5999C1143.8 25.6999 1144 24.3999 1145 23.7999C1145.9 23.1999 1147.2 23.3999 1147.8 24.3999L1159.3 41.8999L1172.5 21.8999L1185.7 41.8999L1198.9 21.8999L1213.8 44.3999C1214.4 45.2999 1214.2 46.5999 1213.2 47.1999C1212.3 47.7999 1211 47.5999 1210.4 46.5999L1198.9 29.0999L1185.7 49.0999L1172.5 29.0999L1159.3 49.0999Z" fill="#FFE8AE"/>
<path d="M1186.7 30.5001L1171.4 7.30005C1170.6 6.10005 1171 4.60005 1172.1 3.80005C1173.3 3.00005 1174.8 3.40006 1175.6 4.50006L1186.7 21.3L1199.9 1.30005L1213.1 21.3L1226.3 1.30005L1241.6 24.5001C1242.4 25.7001 1242 27.2001 1240.9 28.0001C1239.7 28.8001 1238.2 28.4 1237.4 27.3L1226.3 10.5001L1213.1 30.5001L1199.9 10.5001L1186.7 30.5001Z" fill="#FFFDF8"/>
<path d="M1131.6 7.90009H1145.4V-4.3999H1131.6V7.90009ZM1150.4 12.9001H1126.6V-9.3999H1150.4V12.9001Z" fill="#FFFDF8"/>
</g>
</svg>
