<svg width="1200" height="700" viewBox="0 0 1200 700" fill="none" xmlns="http://www.w3.org/2000/svg">
<rect width="1200" height="700" fill="#FFF8EB" fill-opacity="0.35"/>
<mask id="mask0_2424_4269" style="mask-type:alpha" maskUnits="userSpaceOnUse" x="0" y="0" width="1200" height="700">
<rect width="1200" height="700" fill="#FFF8EB" fill-opacity="0.3"/>
</mask>
<g mask="url(#mask0_2424_4269)">
<path fill-rule="evenodd" clip-rule="evenodd" d="M281.393 125.965L270.38 116.291C268.987 115.481 267.482 114.88 265.915 114.505C252.223 111.975 239.87 105.724 225.879 103.492C215.444 100.334 205.445 95.8843 196.113 90.2459C182.279 91.1231 168.448 88.4595 155.929 82.5067C154.59 81.1672 151.613 77.4464 148.041 72.9815C149.232 70.6002 151.018 67.0283 152.804 63.1587L176.765 57.8008C182.784 59.0643 188.665 60.9084 194.327 63.3075C203.257 67.7724 213.675 66.433 222.605 71.1955C231.535 75.9581 241.06 77.4464 249.99 81.1672C258.92 84.888 265.915 88.7576 277.226 94.4131L303.569 98.4316L311.904 94.8596L319.643 104.236L329.466 100.962L341.819 111.826C337.651 120.161 333.931 126.709 330.21 134.3L316.22 144.569L324.108 149.034C325.447 153.35 327.084 158.559 329.168 164.661L321.28 175.079V182.521L329.168 187.73C332.889 193.088 326.043 196.065 326.191 200.678C326.34 205.292 326.191 208.417 325.298 213.031C320.306 213.407 315.338 214.053 310.415 214.966C305.7 216.477 301.078 218.266 296.574 220.324L283.179 209.906C279.641 209.85 276.11 209.552 272.612 209.013C268.847 207.508 264.964 206.313 261.004 205.441C256.76 205.668 252.561 206.418 248.502 207.673C236.893 202.018 223.052 206.929 210.401 204.25C198.2 200.876 185.54 199.469 172.896 200.083C164.859 196.362 158.013 194.874 153.25 188.176C156.524 183.563 159.799 179.098 164.412 173.293L177.807 166.745L201.174 176.568C207.276 177.907 214.866 175.675 221.861 179.544C228.856 182.095 236.388 182.813 243.739 181.628C251.181 181.628 258.622 181.628 266.213 181.628C273.803 181.628 279.161 179.395 285.412 178.354C285.412 170.912 277.226 173.293 274.696 169.275L259.813 172.549L248.651 160.643C248.651 160.643 247.46 159.154 246.865 159.154C235.107 159.154 224.986 152.457 212.931 153.648C207.227 154.259 201.46 153.494 196.113 151.415C186.439 147.248 174.086 150.373 165.603 140.253L169.77 130.133L167.24 122.096L183.909 116.44L231.237 129.686L238.977 125.072L257.432 133.109H287.198L299.997 142.485H308.927C308.927 140.253 309.969 138.914 310.415 137.425C310.862 135.937 310.415 135.788 309.076 135.639L281.393 125.965Z" fill="#FBF1D8"/>
<path fill-rule="evenodd" clip-rule="evenodd" d="M1238.23 734.388V752.099L1225.43 763.559C1222.75 762.517 1219.92 762.22 1218.43 760.583C1210.1 751.206 1202.21 741.383 1194.32 732.156C1194.32 727.691 1194.32 723.673 1193.28 719.803C1176.18 690.988 1155.58 664.394 1131.96 640.625C1131.96 639.881 1128.99 640.625 1126.75 640.625C1127.78 646.587 1130.52 652.122 1134.64 656.55C1145.98 670.841 1154.92 686.875 1161.13 704.027C1165.93 715.91 1171.91 727.279 1178.99 737.96L1191.35 740.639C1194.49 743.843 1196.79 747.778 1198.04 752.09C1199.28 756.403 1199.44 760.958 1198.49 765.345C1193.5 773.288 1185.68 779.035 1176.61 781.419L1170.36 778.74C1165.45 784.396 1160.24 790.349 1155.48 796.748H1129.43L1115.74 781.865C1113.21 769.495 1107.58 757.971 1099.37 748.378C1092.59 740.512 1086.93 731.748 1082.55 722.333C1076.32 713.098 1071.32 703.092 1067.67 692.567C1067.67 688.995 1062.76 686.316 1061.12 682.893C1059.89 679.27 1059.05 675.529 1058.59 671.731C1066.03 668.159 1071.54 662.801 1081.36 664.884C1083.96 667.176 1086.22 669.833 1088.06 672.772C1095.2 688.846 1105.92 702.539 1112.91 718.761C1116.74 726.583 1121.33 734.011 1126.61 740.937C1129.73 745.402 1133.45 749.569 1136.87 753.885L1142.53 752.843C1142.96 749.932 1142.96 746.973 1142.53 744.062C1140.42 732.464 1136.77 721.201 1131.67 710.575C1123.03 693.906 1117.08 675.303 1102.2 663.247C1099.37 655.359 1096.84 648.364 1094.76 641.816C1094.89 639.443 1095.66 637.149 1096.96 635.163C1098.27 633.178 1100.07 631.571 1102.2 630.505L1117.08 629.314L1122.14 616.961C1123.77 616.301 1125.47 615.802 1127.2 615.473H1144.47C1179.86 651.666 1211.29 691.53 1238.23 734.388V734.388Z" fill="#FBF1D8"/>
<path fill-rule="evenodd" clip-rule="evenodd" d="M819.417 218.838V239.377C816.44 242.503 814.357 246.223 810.933 248.009C799.112 253.357 789.754 262.981 784.739 274.948L773.726 276.585C769.41 273.013 765.242 269.292 761.522 266.315C760.778 264.596 760.229 262.799 759.885 260.958C758.716 253.873 759.919 246.601 763.308 240.27C765.5 235.58 766.86 230.543 767.326 225.387C761.968 223.006 759.736 227.173 756.61 229.257C753.485 231.34 749.764 233.573 746.341 235.805C745.318 242.071 742.97 248.047 739.454 253.334C735.938 258.621 731.334 263.098 725.951 266.464C718.51 265.423 715.086 259.767 710.175 254.409C710.175 251.284 710.175 247.265 710.175 244.289C710.751 242.507 711.447 240.767 712.259 239.079C719.007 228.265 724.029 216.465 727.142 204.104C730.09 194.548 734.509 185.51 740.239 177.315C740.239 172.403 741.132 166.152 741.727 159.604L750.062 149.632C750.062 131.028 761.819 113.317 761.224 94.2672C765.689 88.9092 771.047 91.737 774.768 90.5464C785.545 93.7095 794.868 100.557 801.111 109.894C794.86 122.099 797.241 136.982 790.841 149.781C784.442 162.58 787.567 175.826 779.381 190.709C784.293 188.031 786.972 187.584 787.567 186.096C794.264 172.701 803.641 160.943 809.296 146.953C813.541 135.77 819.354 125.246 826.561 115.699C829.445 111.037 831.744 106.039 833.407 100.816L840.402 99.9227C852.011 103.941 855.285 114.806 860.643 123.14V142.042L840.253 182.375C838.667 185.125 837.226 187.957 835.937 190.858C834.002 195.174 832.96 199.788 830.728 203.955C828.495 208.123 823.584 213.183 819.417 218.838ZM783.846 197.407C775.214 195.919 775.214 195.919 776.702 204.253L783.846 197.407Z" fill="#FBF1D8"/>
<path fill-rule="evenodd" clip-rule="evenodd" d="M1053.68 191.158L1042.66 211.399L1025.7 223.156C1019.3 217.501 1012.9 211.548 1006.2 205.743H1000.99L998.015 212.589C1002.77 224.233 1009.13 235.154 1016.92 245.034C1018.7 246.969 1018.26 250.839 1018.85 253.518L1001.88 265.722L981.495 270.931C978.418 266.391 975.037 262.065 971.374 257.983C967.951 254.708 963.04 252.923 959.617 249.797C949.798 242.657 941.71 233.399 935.953 222.71C920.177 207.827 908.865 188.925 891.303 175.233C887.36 171.847 883.632 168.218 880.141 164.368C880.141 160.201 880.141 155.438 879.397 149.485L892.048 142.937C914.932 146.898 935.434 159.465 949.347 178.061C964.23 181.93 973.011 195.623 987.002 202.618L992.359 198.599C993.252 192.795 986.109 194.73 984.769 191.158C983.558 188.428 982.062 185.833 980.304 183.419L963.933 175.084C945.627 154.694 922.409 141.448 906.187 121.356C907.675 116.296 909.163 111.087 910.949 105.58L923.302 99.478C925.035 99.8016 926.73 100.3 928.362 100.966C937.326 104.891 945.94 109.571 954.11 114.956C960.068 119.263 966.709 122.534 973.756 124.63C991.624 130.665 1007.62 141.228 1020.19 155.29L1041.92 163.178C1042.96 164.49 1043.81 165.943 1044.45 167.494C1047.58 175.531 1050.4 182.823 1053.68 191.158Z" fill="#FBF1D8"/>
<path fill-rule="evenodd" clip-rule="evenodd" d="M201.472 328.676V317.216L209.211 310.667H223.35C228.554 313.914 232.983 318.261 236.326 323.404C239.669 328.547 241.844 334.36 242.698 340.434L254.306 352.935C256.539 359.037 258.027 363.502 260.111 367.818C263.98 376.451 269.785 384.19 274.994 392.376C280.203 400.561 281.245 408.449 285.561 416.04C287.155 419.668 289.867 422.692 293.3 424.672C296.426 426.309 297.914 430.774 299.7 433.304C301.486 435.834 300.593 435.685 300.444 436.281L293.895 453.099C287.645 459.796 275.887 455.182 272.315 466.493V471.702C279.208 476.339 284.427 483.07 287.198 490.901C283.328 496.855 283.18 505.785 273.952 509.059C268.017 507.869 262.429 505.349 257.609 501.689C252.788 498.028 248.86 493.322 246.121 487.925C242.725 482.76 238.672 478.057 234.066 473.935C235.107 471.851 235.703 470.363 236.447 469.023C228.708 459.796 222.457 449.675 213.825 440.894C206.221 433.854 200.535 424.993 197.304 415.147C195.116 410.07 192.098 405.392 188.374 401.305C174.916 383.93 166.014 363.465 162.478 341.773C161.79 339.489 160.841 337.292 159.65 335.225C161.436 330.313 163.222 325.104 165.455 319.151H180.338C187.333 322.425 188.672 330.164 192.839 336.266C192.839 341.475 192.839 346.982 192.839 351.149C197.007 360.079 200.43 367.967 205.192 378.385L209.211 381.362C212.485 388.357 215.759 396.245 219.927 403.687C224.094 411.128 229.601 418.57 233.47 426.309L253.86 448.634C255.902 440.718 256.457 432.492 255.497 424.374C246.865 408.003 242.549 389.994 232.428 375.111C222.308 360.228 212.039 344.303 201.472 328.676Z" fill="#FBF1D8"/>
<path fill-rule="evenodd" clip-rule="evenodd" d="M1063.65 380.319C1071.28 371.318 1076.96 360.826 1080.32 349.511C1085.08 340.432 1089.25 331.205 1093.86 321.531L1112.17 316.619C1119.01 328.972 1109.19 339.241 1107.7 350.553C1096.99 366.775 1095.94 386.718 1085.38 402.792C1083.51 414.592 1080.27 426.131 1075.7 437.172C1078.22 441.73 1079.54 446.85 1079.54 452.055C1079.54 457.26 1078.22 462.381 1075.7 466.938L1086.42 467.682L1098.92 434.642C1102.45 422.607 1107.13 410.944 1112.91 399.816C1117.4 388.877 1122.78 378.325 1128.99 368.263C1127.35 364.84 1125.86 362.161 1123.93 358.143C1127.65 348.535 1132.66 339.474 1138.81 331.205C1141.86 329.44 1145.48 328.935 1148.9 329.796C1152.32 330.658 1155.26 332.818 1157.11 335.818C1157.65 337.266 1158.05 338.761 1158.3 340.283C1158.32 358.52 1153.66 376.455 1144.76 392.374C1136.43 412.02 1128.84 431.814 1119.91 451.906C1114.54 461.668 1112.21 472.81 1113.21 483.905C1113.61 488.858 1113.61 493.835 1113.21 498.788L1106.21 506.378H1084.78L1075.41 497.746C1074.36 490.156 1073.77 485.542 1073.17 481.077L1071.24 479.291L1063.05 491.495L1049.96 492.686L1035.07 484.798V461.58C1042.66 445.507 1052.04 428.689 1058.44 410.978C1061.71 400.857 1068.56 390.737 1063.65 380.319Z" fill="#FBF1D8"/>
<path fill-rule="evenodd" clip-rule="evenodd" d="M140.9 235.356L126.91 243.244C122.892 241.459 120.064 239.97 116.492 238.184H77.9446L66.3358 223.301C66.3358 218.39 66.3358 209.609 66.3358 200.977C66.3358 192.344 68.866 181.777 62.0198 173.294V149.481C58.4908 140.074 55.85 130.358 54.1317 120.459C53.3686 111.895 50.8346 103.584 46.6902 96.0509V73.5775L56.0665 65.5406L74.075 72.0892L81.9631 93.372C80.7956 101.765 80.7956 110.28 81.9631 118.673C84.7658 126.031 86.081 133.872 85.8327 141.742C84.7909 150.076 89.8511 156.625 90.5952 164.662C90.8665 169.619 90.8665 174.588 90.5952 179.545C95.0602 186.54 95.209 194.428 102.948 198C104.437 192.196 104.437 192.196 100.865 185.796V161.983L93.1254 147.1C94.0184 140.7 96.8461 134.598 95.0602 130.282C90.9218 115.785 89.5088 100.645 90.8929 85.6328C90.8929 77.7447 90.8929 69.7079 90.8929 62.4152C93.423 56.0154 95.5067 50.2111 97.888 44.2578C100.557 42.7639 103.594 42.0551 106.649 42.2131C109.704 42.3711 112.652 43.3895 115.152 45.1508C116.492 57.8014 115.152 71.1962 115.152 84.5909C114.096 94.1794 115.745 103.872 119.915 112.571C121.999 116.292 119.915 121.947 120.808 126.71C119.981 134.579 121.212 142.528 124.38 149.779C125.785 152.692 126.203 155.983 125.57 159.155C125.27 182.81 130.36 206.222 140.454 227.617C140.985 230.161 141.136 232.769 140.9 235.356V235.356ZM109.646 217.05C109.646 211.395 109.646 211.395 103.99 206.037C102.651 212.585 102.651 212.585 109.646 217.05Z" fill="#FBF1D8"/>
<path fill-rule="evenodd" clip-rule="evenodd" d="M657.788 630.206L649.156 620.978L655.704 603.565C674.682 595.192 694.709 589.435 715.236 586.45L743.663 570.078L749.319 558.767C736.239 557.802 723.107 557.802 710.027 558.767C701.693 563.53 695.144 568.143 687.554 571.418C675.32 575.614 663.59 581.155 652.579 587.938C649.736 589.934 646.475 591.254 643.044 591.795C639.613 592.337 636.103 592.087 632.784 591.063L625.938 584.813V569.929C629.063 566.655 632.487 563.232 636.356 558.916L651.239 557.576C657.613 553.202 664.514 549.652 671.778 547.009C684.726 542.545 696.781 535.55 710.027 531.233C716.764 528.322 723.237 524.837 729.375 520.815L753.635 517.541C754.528 517.541 758.248 519.029 761.969 519.773C765.816 520.304 769.695 520.553 773.578 520.518L778.787 526.024C779.893 530.268 780.147 534.69 779.534 539.033C778.921 543.375 777.453 547.553 775.215 551.326L802.302 559.66L809.595 581.389C808.256 583.175 807.958 584.217 807.363 584.515L797.242 588.087L792.033 594.784L775.811 599.547C777.596 599.547 776.704 599.547 775.811 599.547C765.988 592.998 756.76 598.058 747.533 600.886C744.391 601.538 741.375 602.694 738.603 604.309C725.992 613.317 711.289 618.952 695.888 620.681C688.025 622.755 680.275 625.239 672.671 628.122C667.754 629.105 662.785 629.801 657.788 630.206Z" fill="#FBF1D8"/>
<path fill-rule="evenodd" clip-rule="evenodd" d="M1273.35 276.284C1274.78 278.041 1276.49 279.55 1278.41 280.749C1281.52 281.666 1284.71 282.313 1287.93 282.684V302.478L1281.39 309.176C1270.03 311.941 1258.04 310.404 1247.75 304.86C1242.84 310.367 1251.62 313.641 1249.39 318.552L1238.52 337.156C1217.74 333.784 1198.93 322.868 1185.69 306.497L1126.16 281.047H1102.19L1090.29 270.926L1088.8 261.252C1094.16 255.448 1099.81 249.792 1105.77 243.542L1128.98 256.936L1139.4 257.829C1151.86 265.311 1164.9 271.782 1178.4 277.177C1197.04 283.346 1214.64 292.276 1230.63 303.669C1232.21 303.99 1233.83 303.99 1235.4 303.669C1239.71 300.841 1238.82 296.972 1237.63 291.763C1222.97 280.691 1207.5 270.741 1191.34 261.997C1176.35 256.396 1161.9 249.421 1148.18 241.16C1146.94 240.077 1145.37 239.448 1143.72 239.374C1134.04 239.374 1128.83 232.826 1123.77 225.235L1138.66 210.352H1151.61C1165.06 222.271 1180.08 232.287 1196.26 240.118C1213.97 249.941 1232.27 258.871 1249.54 269.885C1257.6 273.603 1266.1 276.303 1274.84 277.921L1273.35 276.284Z" fill="#FBF1D8"/>
<path fill-rule="evenodd" clip-rule="evenodd" d="M874.782 343.558H906.186L919.283 355.762V382.552L925.831 390.142L936.845 391.779C939.524 396.542 942.351 402.049 944.882 406.663C941.393 419.448 933.278 430.482 922.11 437.619L914.669 434.643C907.525 437.768 899.786 441.935 892.344 435.387L827.901 463.069C824.497 462.536 821.258 461.241 818.423 459.283C815.589 457.325 813.233 454.753 811.529 451.758L816.441 436.875C831.324 430.327 846.207 422.885 861.09 417.825C875.655 412.524 889.872 406.31 903.655 399.221L897.702 392.672H877.015L868.829 399.37C868.829 399.37 867.192 400.263 866.597 399.37C858.857 395.054 853.351 403.388 846.207 402.644C837.049 409.404 826.365 413.8 815.101 415.444C811.355 417.029 807.53 418.42 803.641 419.611C801.462 419.664 799.292 419.31 797.241 418.569C792.479 412.02 795.604 405.621 794.711 400.263C796.916 396.169 799.968 392.591 803.663 389.768C807.359 386.945 811.613 384.942 816.143 383.891C833.705 379.278 848.29 369.008 865.704 364.99C868.829 357.4 871.657 351.149 874.782 343.558Z" fill="#FBF1D8"/>
<path fill-rule="evenodd" clip-rule="evenodd" d="M1027.78 41.7284L1014.98 24.464C1011.71 10.4739 1019.45 -1.28372 1023.91 -14.5297C1018.97 -27.6989 1017.94 -42.0136 1020.93 -55.7558C1023.29 -59.8901 1024.45 -64.5959 1024.29 -69.3511C1024.14 -74.1063 1022.66 -78.7248 1020.04 -82.6941C1019.69 -83.5397 1019.54 -84.4512 1019.58 -85.3642C1019.62 -86.2772 1019.87 -87.1696 1020.29 -87.9784C1020.72 -88.7873 1021.32 -89.493 1022.04 -90.0457C1022.77 -90.5984 1023.61 -90.9847 1024.51 -91.1775L1041.03 -83.5871L1049.06 -68.704C1049.06 -65.7274 1049.06 -62.4531 1049.06 -59.3277C1048.02 -46.7391 1049.07 -34.0642 1052.19 -21.8224C1053.08 -19.7387 1050.1 -16.1668 1048.91 -13.1902L1056.5 -4.1115C1059.3 -7.84688 1061.74 -11.8327 1063.8 -16.018C1065.5 -20.8973 1066.94 -25.8656 1068.11 -30.901C1062.01 -36.2589 1069.75 -40.8727 1069.15 -45.7841C1068.41 -49.5305 1068.51 -53.3947 1069.43 -57.0999C1070.36 -60.8051 1072.09 -64.2596 1074.51 -67.2157C1072.58 -76.2944 1065.73 -82.8429 1071.24 -94.1541L1077.94 -100.703L1098.18 -89.9868C1099.96 -76.1456 1098.18 -62.602 1098.18 -49.2072C1097.67 -36.0251 1095.93 -22.9198 1092.97 -10.0647C1096.69 -2.47435 1100.26 4.81834 1103.53 11.5157C1101 22.3037 1094.46 31.7227 1085.23 37.8588H1072.43L1060.82 29.5242C1052.04 29.5242 1054.27 40.3889 1044.45 42.6213L1027.78 41.7284Z" fill="#FBF1D8"/>
<path fill-rule="evenodd" clip-rule="evenodd" d="M715.234 180.143L699.607 191.901L683.384 232.978C676.241 240.866 667.013 238.336 657.339 237.74C653.767 233.722 649.898 229.704 646.177 225.685V214.225C650.493 205.742 655.404 195.77 661.06 185.203V161.39L669.692 150.079C671.776 132.666 676.389 115.402 680.557 96.0536C680.557 96.0536 680.557 93.5235 679.217 91.291C677.878 89.0585 678.175 88.4632 677.729 87.1237C678.051 86.3565 678.504 85.6514 679.068 85.0401L695.44 75.9614L707.495 81.3193L720.443 98.4349C722.229 105.876 719.253 113.318 724.462 121.355C726.197 125.805 726.197 130.745 724.462 135.196C722.378 142.638 717.913 150.079 716.276 157.074C715.354 164.727 715.005 172.438 715.234 180.143Z" fill="#FBF1D8"/>
<path fill-rule="evenodd" clip-rule="evenodd" d="M-14.0361 74.7662C-12.0247 71.4681 -8.97371 68.9324 -5.36329 67.5583C-1.75287 66.1842 2.21199 66.0496 5.90725 67.1759L15.7301 77.4452C16.2738 79.094 16.6722 80.7872 16.9207 82.5054C15.424 92.7353 16.2895 103.172 19.4508 113.016C23.9158 121.946 18.1114 132.513 25.8506 140.252C25.5864 148.13 26.4891 156.004 28.5295 163.618C31.0795 171.18 31.7937 179.241 30.6131 187.133C30.6131 188.622 29.2737 189.961 28.2319 191.896C27.19 193.831 30.3155 198.742 31.0596 202.463C31.8038 206.184 31.0596 208.714 32.2503 211.988C39.8268 215.001 46.3488 220.177 51.003 226.871C51.003 241.754 51.003 241.754 34.3339 265.121C34.3339 265.121 32.9944 266.311 32.3991 266.311C26.5947 266.311 20.7903 266.311 14.3906 266.311C12.1255 261.467 10.1378 256.498 8.43738 251.428C7.38007 246.826 6.6834 242.149 6.35374 237.438C5.46076 228.955 0.102854 221.364 1.44233 212.137C2.03819 203.416 2.03819 194.664 1.44233 185.943C1.44233 181.18 3.07947 175.078 0.698174 171.953C-6.4457 162.725 0.698181 151.116 -6.44569 142.187C-7.4631 140.961 -8.08573 139.456 -8.23166 137.87C-9.8688 127.006 -5.85037 115.546 -10.9106 104.979C-13.7146 95.1689 -14.7725 84.9424 -14.0361 74.7662V74.7662Z" fill="#FBF1D8"/>
<path fill-rule="evenodd" clip-rule="evenodd" d="M625.937 181.63H596.17L587.389 185.648L563.576 180.439C557.028 171.211 541.55 173.742 533.81 163.175L512.825 161.686L483.059 131.92L491.84 117.037L505.384 115.4C515.355 117.632 521.904 124.479 531.429 125.372C539.508 126.143 547.487 127.739 555.242 130.134C563.428 133.715 572.392 135.15 581.287 134.301L599.296 142.785L604.356 140.552L634.122 145.464C636.132 146.787 638.024 148.281 639.778 149.929C641.973 152.115 644.012 154.452 645.88 156.924C644.377 162.166 641.837 167.054 638.411 171.297C634.986 175.541 630.744 179.054 625.937 181.63Z" fill="#FBF1D8"/>
<path fill-rule="evenodd" clip-rule="evenodd" d="M128.396 8.39348L116.489 -3.51299C115.978 -6.66746 115.978 -9.88368 116.489 -13.0381C120.31 -25.7118 124.781 -38.1805 129.884 -50.3947C139.409 -68.7008 149.678 -86.2629 157.269 -105.611C166.406 -124.027 177.216 -141.563 189.565 -157.999C193.286 -163.655 201.769 -165.441 204.448 -172.138H219.331L228.559 -162.315C230.27 -157.981 230.759 -153.261 229.972 -148.668C229.184 -144.075 227.151 -139.787 224.094 -136.27C219.927 -134.038 215.313 -132.103 211.294 -129.424C206.352 -126.748 201.959 -123.163 198.346 -118.857C188.563 -106.42 180.826 -92.5037 175.426 -77.6307C172.069 -68.5606 167.936 -59.7968 163.073 -51.4365C163.966 -49.0552 164.859 -46.2274 165.901 -43.102C162.627 -38.0417 158.757 -32.9815 155.781 -28.2189C153.621 -21.3974 150.568 -14.8915 146.702 -8.87088C141.79 -3.6618 143.279 3.33324 138.218 8.39348H128.396Z" fill="#FBF1D8"/>
<path fill-rule="evenodd" clip-rule="evenodd" d="M233.62 -132.847L239.722 -136.27L236.001 -145.795C239.275 -148.326 242.549 -150.707 245.526 -153.237C248.503 -155.767 251.033 -158.595 254.605 -162.167C258.537 -163.199 262.639 -163.414 266.658 -162.8C270.676 -162.185 274.527 -160.754 277.971 -158.595C280.65 -151.451 283.478 -143.712 286.603 -134.782C283.031 -127.34 275.739 -123.024 270.381 -116.625L259.07 -114.095C251.628 -110.969 251.033 -104.421 249.842 -97.872C234.543 -81.748 222.2 -63.0576 213.379 -42.6558C212.185 -38.9298 211.387 -35.0887 210.997 -31.1959C207.599 -15.7452 199.299 -1.80654 187.333 8.54196C180.189 7.50015 176.617 1.99339 171.26 -3.51335C171.26 -6.48996 172.301 -10.2107 173.343 -13.7826C174.385 -17.3546 176.171 -18.0987 176.171 -20.1824C177.533 -35.1534 182.652 -49.5383 191.054 -62.0038C196.412 -71.529 201.174 -81.203 205.937 -91.7699C209.622 -99.7647 214.657 -107.065 220.82 -113.35C225.861 -119.307 230.159 -125.854 233.62 -132.847Z" fill="#FBF1D8"/>
<path fill-rule="evenodd" clip-rule="evenodd" d="M1278.86 491.2L1269.63 492.093L1256.68 506.977C1251.32 514.865 1245.22 524.241 1238.97 533.32C1236.43 537.336 1233.54 541.121 1230.34 544.631C1223.61 551.5 1217.35 558.809 1211.59 566.509C1203.6 575.909 1194.78 584.576 1185.24 592.405C1180.04 591.215 1175.57 589.875 1170.36 588.685L1162.32 591.661C1157.56 588.238 1158.31 584.368 1159.65 579.159L1170.51 576.332C1170.51 575.141 1172.89 573.801 1173.04 572.462C1175.25 562.235 1180.93 553.087 1189.11 546.565C1203.7 530.573 1217.31 513.725 1229.89 496.112C1241.53 480.7 1250.02 463.153 1254.9 444.468L1264.42 434.645H1281.98L1287.94 440.747V475.722L1275.58 483.908C1275.58 486.289 1277.37 488.968 1278.41 491.647L1278.86 491.2Z" fill="#FBF1D8"/>
<path fill-rule="evenodd" clip-rule="evenodd" d="M642.012 75.5134L654.662 88.164V102.005L638.291 118.079C635.463 116.74 633.38 114.805 631.147 114.656C619.732 114.347 608.393 112.698 597.363 109.744C587.673 108.868 578.068 107.226 568.638 104.833C559.857 101.41 549.588 101.708 540.212 99.0287C527.161 95.3972 515.53 87.8681 506.874 77.4482L510.743 70.0067L533.663 52.147C537.27 52.3057 540.833 53.0082 544.23 54.2306C551.225 58.1002 559.113 55.4213 567.001 57.6537C576.695 65.737 588.652 70.6238 601.232 71.6438C614.614 74.6068 628.311 75.9065 642.012 75.5134V75.5134Z" fill="#FBF1D8"/>
<path fill-rule="evenodd" clip-rule="evenodd" d="M331.55 768.765L323.067 791.834H293.301C289.729 788.411 284.222 785.285 281.841 780.82C277.376 772.188 266.958 769.36 262.79 760.133C258.076 751.429 250.101 744.952 240.615 742.124C228.411 727.241 210.849 720.544 197.9 706.405C192.675 701.332 186.996 696.748 180.934 692.713C179.594 686.734 179.594 680.534 180.934 674.555C189.406 672.21 198.266 671.602 206.979 672.769C214.123 679.913 220.076 687.652 226.327 694.052C231.231 699.416 237.02 703.896 243.442 707.298C251.502 712.693 259.161 718.661 266.362 725.158C277.505 733.347 289.725 739.958 302.677 744.803C314.584 749.551 324.689 757.937 331.55 768.765V768.765Z" fill="#FBF1D8"/>
<path fill-rule="evenodd" clip-rule="evenodd" d="M390.635 357.849L397.63 356.956L409.388 341.329C409.928 339.943 410.278 338.491 410.429 337.012C411.791 321.464 416.084 306.315 423.08 292.363C426.982 283.783 429.927 274.799 431.861 265.574C433.203 261.001 435.372 256.713 438.261 252.923C442.428 246.97 453.144 248.161 453.144 238.04L463.711 238.933C466.003 245.321 466.567 252.2 465.348 258.876L457.46 268.55C457.46 281.201 447.935 293.107 451.06 305.758C447.488 310.074 444.958 313.2 441.982 317.069C440.576 329.635 436.894 341.839 431.117 353.086C433.344 370.068 430.98 387.335 424.271 403.093C419.442 410.626 411.856 415.968 403.137 417.976L389.593 410.684C382.896 400.712 388.105 392.824 391.081 384.341C391.081 376.899 384.086 369.458 386.319 361.867C387.672 361.699 388.936 361.103 389.926 360.166C390.917 359.229 391.582 358 391.826 356.658L390.635 357.849Z" fill="#FBF1D8"/>
<path fill-rule="evenodd" clip-rule="evenodd" d="M224.096 502.958C219.185 509.209 222.31 519.031 212.487 524.24H198.944L188.972 515.757C177.738 492.627 164.596 470.474 149.681 449.527C142.312 440.155 137.218 429.202 134.798 417.529C126.852 408.327 120.785 397.658 116.938 386.126C115.446 380.7 112.863 375.636 109.347 371.243C106.531 367.287 104.136 363.047 102.204 358.592V336.565C104.59 334.988 107.301 333.968 110.135 333.581C112.969 333.195 115.854 333.452 118.575 334.332C119.617 336.267 121.552 338.797 122.742 341.476C126.689 350.906 131.366 360.012 136.732 368.712C141.155 375.259 144.566 382.433 146.853 389.995C149.208 398.375 153.093 406.247 158.313 413.213C167.411 425.376 174.96 438.625 180.786 452.653C186.144 464.708 197.009 472.596 202.516 484.205C211.031 488.749 218.409 495.159 224.096 502.958V502.958Z" fill="#FBF1D8"/>
<path fill-rule="evenodd" clip-rule="evenodd" d="M500.622 613.237L493.925 632.883L483.06 638.241L470.112 631.841L456.122 611.749C454.014 597.037 450.424 582.577 445.406 568.588C444.317 565.61 442.647 562.879 440.495 560.551C435.248 553.603 431.775 545.48 430.374 536.887C427.924 525.394 423.599 514.382 417.575 504.293C414.721 500.694 412.739 496.483 411.784 491.991C410.828 487.498 410.926 482.845 412.068 478.397L424.421 467.085L442.727 476.015C444.215 478.843 445.555 480.331 445.555 481.671C445.753 491.026 447.513 500.282 450.764 509.056C452.699 515.009 456.866 520.069 456.122 527.064C456.237 531.036 457.768 534.837 460.438 537.78C470.856 550.133 471.898 567.546 483.953 578.857C485.739 591.806 498.092 599.842 500.622 613.237Z" fill="#FBF1D8"/>
<path fill-rule="evenodd" clip-rule="evenodd" d="M197.453 657.887C197.453 646.874 187.779 638.391 192.839 626.335L201.62 624.549C244.186 658.334 286.9 691.821 340.926 707.299C343.903 712.508 346.73 717.271 349.112 721.14C347.326 728.731 345.689 736.024 343.754 743.167C330.21 742.126 318.304 733.196 304.76 734.238L291.514 717.866C286.371 716.915 281.37 715.315 276.631 713.104C254.598 699.828 233.602 684.903 213.825 668.454C208.723 664.409 203.24 660.87 197.453 657.887V657.887Z" fill="#FBF1D8"/>
<path fill-rule="evenodd" clip-rule="evenodd" d="M769.262 631.695C769.262 626.933 770.304 622.319 770.75 618.449C777.001 612.794 780.127 620.682 785.633 619.64L794.563 615.771C801.112 620.384 811.232 619.342 818.674 626.04V650.746C813.316 655.806 802.898 653.871 798.73 662.503L788.461 657.89C775.495 660.889 762.762 664.818 750.36 669.647C744.439 671.736 738.296 673.135 732.054 673.815L721.934 681.256C712.806 681.733 703.713 682.727 694.698 684.233C685.429 686.767 675.973 688.558 666.42 689.591L655.704 684.679V670.987C664.871 664.579 675.255 660.121 686.214 657.89C694.369 657.12 702.301 654.796 709.581 651.043C722.15 645.32 735.487 641.46 749.17 639.583C756.307 638.254 763.126 635.577 769.262 631.695V631.695Z" fill="#FBF1D8"/>
<path fill-rule="evenodd" clip-rule="evenodd" d="M1028.67 613.984V632.737L1021.38 639.137H1008.58L991.02 628.123C981.643 608.329 960.063 595.083 951.58 572.61L936.697 564.126C935.357 559.661 934.018 555.047 932.232 549.243L908.716 536.146L893.833 516.054C896.512 510.547 899.638 504.445 902.763 497.748L915.265 496.408C929.471 507.452 941.744 520.78 951.58 535.848C954.416 541.614 958.929 546.387 964.528 549.541C966.909 550.731 968.1 554.601 970.035 556.982C976.583 565.019 983.876 572.609 989.68 581.242C995.621 589.791 1003.67 596.661 1013.05 601.185C1019.18 604.174 1024.53 608.558 1028.67 613.984V613.984Z" fill="#FBF1D8"/>
<path fill-rule="evenodd" clip-rule="evenodd" d="M385.875 362.16L376.499 370.941C372.629 372.132 364.89 374.364 357.002 376.299C354.235 376.654 351.434 376.654 348.667 376.299L340.631 356.058C343.326 346.568 348.457 337.948 355.514 331.055C357.079 318.464 360.646 306.204 366.081 294.74V268.992C369.355 260.062 372.183 252.025 376.052 241.31V222.259C379.27 218.34 383.347 215.215 387.966 213.124C392.586 211.034 397.625 210.034 402.693 210.204C407.046 221.405 407.046 233.83 402.693 245.03L405.372 251.281C401.625 260.93 398.737 270.891 396.74 281.047C394.098 290.039 392.011 299.185 390.489 308.432C388.938 319.22 386.038 329.771 381.857 339.836C383.196 346.831 393.614 349.658 391.084 358.439C389.149 360.077 387.363 361.863 385.577 363.648L385.875 362.16Z" fill="#FBF1D8"/>
<path fill-rule="evenodd" clip-rule="evenodd" d="M387.808 609.817C390.189 594.041 377.092 581.391 381.111 566.805L370.99 553.708V534.062C361.436 516.316 357.935 495.936 361.019 476.018C362.346 472.824 364.833 470.25 367.981 468.814C371.128 467.378 374.703 467.187 377.985 468.279L385.724 474.53C385.832 488.513 388.401 502.367 393.315 515.459C394.211 517.623 394.909 519.865 395.398 522.156C396.547 538.05 401.664 553.401 410.282 566.805C413.09 572.699 415.525 578.763 417.574 584.962L428.439 592.255C429.481 597.911 430.225 603.269 431.564 608.627C432.203 610.742 433.156 612.748 434.392 614.58C434.392 619.789 430.225 621.575 428.141 624.849C426.058 628.123 424.867 630.207 422.783 633.928H407.9C403.138 631.844 401.5 626.337 398.524 621.575C395.257 617.388 391.674 613.458 387.808 609.817V609.817Z" fill="#FBF1D8"/>
<path fill-rule="evenodd" clip-rule="evenodd" d="M539.465 399.37C546.609 401.9 552.116 403.389 557.176 405.77C568.272 412.382 580.248 417.393 592.746 420.653C602.123 429.732 615.666 432.559 625.936 440.745C632.165 444.132 638.899 446.493 645.879 447.74L653.172 444.763L657.19 456.521L672.073 458.158L679.515 470.214V487.776C676.356 490.611 672.661 492.784 668.647 494.164C664.633 495.545 660.383 496.105 656.148 495.812C645.852 492.721 636.523 487.032 629.061 479.292L617.155 476.613C616.262 473.488 615.071 469.767 614.029 466.046L610.011 463.516C598.253 457.861 586.644 452.056 574.887 446.549C568.371 443.244 561.541 440.601 554.497 438.661C549.572 437.529 544.926 435.417 540.835 432.451C536.744 429.484 533.292 425.725 530.684 421.397C530.684 418.42 530.684 414.402 530.684 409.788C532.619 406.365 535.447 403.686 539.465 399.37Z" fill="#FBF1D8"/>
<path fill-rule="evenodd" clip-rule="evenodd" d="M543.634 577.818C547.802 592.702 555.69 605.947 542.592 619.045L530.984 624.7C511.933 617.854 511.933 617.854 505.087 610.71L510.445 594.19C506.575 586.771 504.824 578.428 505.385 570.079C498.092 551.624 492.585 534.36 484.4 518.137C476.214 501.915 472.196 486.139 465.647 470.66L483.209 459.2C484.995 460.689 487.376 461.879 488.418 463.814C501.544 486.407 512.174 510.361 520.119 535.253C522.033 539.493 523.625 543.871 524.882 548.35C527.297 560.144 533.973 570.635 543.634 577.818V577.818Z" fill="#FBF1D8"/>
<path fill-rule="evenodd" clip-rule="evenodd" d="M579.653 348.769C584.266 354.276 589.327 360.527 592.154 363.652C613.137 372.182 632.904 383.441 650.943 397.139L667.463 388.507C668.502 388.405 669.549 388.405 670.588 388.507C679.602 392.167 687.43 398.244 693.21 406.069C693.94 407.469 694.443 408.976 694.699 410.534C694.699 415.296 694.699 420.059 694.699 424.226C691.573 432.412 683.536 433.751 676.393 437.77L639.483 426.012L633.083 416.041C618.2 413.808 608.079 399.967 593.345 395.353C580.254 389.095 567.751 381.674 555.989 373.177V350.853C557.179 349.811 557.774 348.769 558.37 348.769H579.653Z" fill="#FBF1D8"/>
<path fill-rule="evenodd" clip-rule="evenodd" d="M1045.34 566.802L1057.55 568.588L1067.81 577.965C1068.71 588.383 1078.08 597.015 1072.73 607.731C1067.52 611.303 1061.56 609.368 1055.91 609.814C1049.71 608.676 1043.89 606.011 1038.98 602.062C1034.07 598.112 1030.22 593.002 1027.78 587.192C1015.19 570.249 1001.57 554.095 987 538.822C983.959 535.165 981.126 531.339 978.516 527.362C975.242 523.939 971.372 521.111 964.973 515.753L944.434 487.029V475.123L952.173 467.979C954.852 467.979 956.787 467.979 957.978 469.318C974.854 483.256 989.861 499.313 1002.63 517.093C1006.73 523.015 1011.31 528.59 1016.32 533.762C1024.91 541.124 1032.38 549.697 1038.5 559.212C1040.45 562.015 1042.75 564.565 1045.34 566.802Z" fill="#FBF1D8"/>
<path fill-rule="evenodd" clip-rule="evenodd" d="M1273.8 276.585C1272.01 274.054 1270.08 271.524 1268.44 268.994C1264.27 262.892 1254.75 262.743 1252.36 255.004C1246.56 252.027 1240.61 249.497 1235.1 246.223C1217.09 235.358 1198.34 225.833 1180.93 214.076C1171.45 206.521 1160.57 200.907 1148.93 197.555C1146.01 196.508 1143.25 195.055 1140.74 193.239C1137.47 186.393 1145.8 183.565 1144.76 178.356C1150.93 175.628 1157.77 174.799 1164.41 175.975C1176.01 186.393 1194.17 188.923 1202.06 199.788C1211.17 206.319 1220.83 212.045 1230.93 216.903C1240.39 220.189 1249.64 224.066 1258.62 228.512C1270.39 227.848 1282.15 230.097 1292.85 235.061L1301.48 242.949C1303.76 248.817 1304.43 255.19 1303.41 261.404L1296.42 274.352C1291.21 276.733 1288.23 272.864 1284.07 271.673L1273.35 275.84L1273.8 276.585Z" fill="#FBF1D8"/>
<path fill-rule="evenodd" clip-rule="evenodd" d="M618.197 306.948C619.239 308.734 619.983 310.222 620.876 311.561C622.076 312.621 623.371 313.568 624.746 314.389C629.062 316.473 633.824 318.259 637.992 320.64C652.571 327.887 668.364 332.378 684.576 333.886C692.464 335.225 700.203 337.756 709.43 339.988L717.765 348.174C719.684 352.646 720.214 357.593 719.285 362.37C718.356 367.148 716.011 371.536 712.556 374.963L697.673 380.023L662.697 363.652L657.637 366.033L642.754 353.68C640.231 353.623 637.728 353.222 635.313 352.49C624.82 348.02 614.84 342.432 605.546 335.821C596.322 328.483 586.344 322.147 575.78 316.919V300.697L581.436 295.488C584.835 295.231 588.254 295.533 591.556 296.381C599.955 301.014 608.906 304.564 618.197 306.948V306.948Z" fill="#FBF1D8"/>
<path fill-rule="evenodd" clip-rule="evenodd" d="M954.11 -68.9999V-56.4981C942.054 -40.4244 923.451 -29.7085 912.139 -11.8489C892.471 -0.989354 874.844 13.213 860.049 30.1214L839.51 39.7954C833.408 46.1951 831.176 56.7621 820.013 60.6317L815.548 58.3992C815.548 56.7621 815.548 55.7203 815.548 55.2738L833.557 35.6282L824.329 23.424L831.324 11.3687C832.657 10.3903 834.048 9.49554 835.492 8.68977C844.413 4.74359 852.534 -0.805312 859.453 -7.68159C872.402 -21.0764 885.945 -34.1735 897.405 -45.6334L912.288 -49.8007C919.192 -60.1393 927.622 -69.3724 937.292 -77.1855C940.268 -76.1437 943.245 -75.2507 945.924 -74.0601C948.746 -72.5296 951.479 -70.8401 954.11 -68.9999V-68.9999Z" fill="#FBF1D8"/>
<path fill-rule="evenodd" clip-rule="evenodd" d="M917.052 611.154L856.329 546.264C854.543 541.054 852.311 534.506 850.227 528.106C851.83 525.245 854.333 522.994 857.348 521.702C860.362 520.41 863.719 520.15 866.896 520.962C879.278 530.555 890.514 541.542 900.383 553.705C907.575 561.212 914.286 569.165 920.475 577.518C930.298 593.294 946.818 603.712 955.748 619.935C957.233 621.944 959.171 623.576 961.404 624.697C966.017 634.074 969.589 641.069 973.905 649.403C971.971 653.422 969.589 658.184 966.91 663.245H957.385C943.395 655.059 936.102 641.218 925.089 630.948C920.773 626.334 920.178 618.893 917.052 611.154Z" fill="#FBF1D8"/>
<path fill-rule="evenodd" clip-rule="evenodd" d="M815.102 1.99177L798.433 8.83797L792.331 4.37306C791.484 2.87492 790.834 1.2743 790.396 -0.38952C790.396 -6.64041 790.396 -13.0401 789.354 -19.7375C806.988 -44.5275 826.92 -67.5992 848.886 -88.6461C856.477 -95.6412 862.876 -103.529 871.806 -113.65L882.224 -118.71C888.178 -114.692 897.107 -114.692 899.489 -105.018C891.722 -91.5385 882.488 -78.9602 871.955 -67.5122C870.331 -65.7135 868.591 -64.0232 866.746 -62.4519C846.401 -43.6784 828.992 -21.9547 815.102 1.99177V1.99177Z" fill="#FBF1D8"/>
<path fill-rule="evenodd" clip-rule="evenodd" d="M1192.98 128.647C1194.47 120.164 1195.96 111.68 1198.04 98.881C1195.81 88.4628 1186.43 75.3657 1188.67 60.9291C1181.52 47.2367 1175.12 34.4372 1168.13 21.0425L1176.61 4.96875H1191.49C1194.96 6.65024 1197.93 9.21198 1200.09 12.3982C1202.26 15.5843 1203.56 19.2835 1203.85 23.1261C1205.33 38.0092 1213.37 49.7668 1215.46 63.9057C1218.57 76.8851 1223.27 89.4318 1229.45 101.262C1236.29 117.782 1235.99 118.973 1233.61 145.911L1221.11 157.371L1206.23 150.525C1205.48 147.002 1204.38 143.562 1202.95 140.256C1199.91 136.156 1196.58 132.277 1192.98 128.647V128.647Z" fill="#FBF1D8"/>
<path fill-rule="evenodd" clip-rule="evenodd" d="M500.326 25.3603C500.326 21.7883 501.07 18.6629 501.367 15.8351C506.422 14.5562 511.393 12.9656 516.251 11.0725C519.204 9.59209 522.421 8.71144 525.716 8.48153C529.011 8.25162 532.32 8.67701 535.45 9.73306C548.074 13.2793 561.212 14.6384 574.295 13.7515C580.992 13.7515 587.541 13.7515 594.238 13.7515C600.935 13.7515 605.251 15.9839 612.098 17.3234L620.73 13.9003L649.752 24.3185V43.6665C648.535 44.6602 647.241 45.556 645.882 46.3454C644.328 47.1921 642.592 47.6516 640.822 47.6849C629.808 45.8989 619.986 56.0194 609.716 51.5545C599.539 48.4934 588.936 47.0864 578.313 47.3872C570.519 45.2146 562.552 43.7207 554.5 42.9223C546.166 43.6665 537.831 42.9223 529.645 42.9223L514.762 30.2717L500.326 25.3603Z" fill="#FBF1D8"/>
<path fill-rule="evenodd" clip-rule="evenodd" d="M1024.95 409.638C1026.44 415.145 1027.78 419.461 1028.97 424.521C1030.16 429.581 1030.91 433.451 1032.1 438.362C1028.97 441.934 1029.27 448.929 1021.98 449.971C1020.04 454.138 1018.26 458.454 1016.02 463.366L998.014 455.031L989.68 440.148V418.27L997.419 413.061C1000.87 403.64 1003.46 393.927 1005.16 384.039C1007.52 372.56 1011.01 361.343 1015.58 350.552C1017.21 345.343 1019.3 340.283 1021.53 334.181L1032.54 323.018C1031.65 319.893 1030.91 317.065 1029.72 313.047L1037.31 304.861L1046.83 306.201C1047.75 307.804 1048.5 309.5 1049.06 311.261C1048.65 323.733 1046.19 336.053 1041.77 347.724C1040.61 350.632 1039.86 353.688 1039.54 356.803C1039.12 364.603 1037.3 372.265 1034.18 379.425C1031.5 389.992 1027.78 398.773 1024.95 409.638Z" fill="#FBF1D8"/>
<path fill-rule="evenodd" clip-rule="evenodd" d="M837.127 306.055C850.746 301.517 863.483 294.671 874.781 285.814H886.241C889.366 290.13 892.045 294 895.171 297.721C898.296 301.441 900.826 303.376 902.761 305.311C907.077 317.813 897.254 323.617 894.873 332.398H864.065L836.085 339.84L786.673 369.606L780.125 363.802C782.357 356.806 784.589 350.258 787.566 341.328C793.817 335.672 802.449 328.826 811.825 320.045L822.541 317.366C827.006 314.687 832.513 309.925 837.127 306.055Z" fill="#FBF1D8"/>
<path fill-rule="evenodd" clip-rule="evenodd" d="M1158.9 -67.2122C1156.81 -64.3844 1155.48 -62.4496 1153.99 -60.6636C1152.5 -58.8777 1151.16 -56.794 1149.52 -54.8592C1149.37 -44.7604 1147.76 -34.7361 1144.76 -25.0931C1140.89 -16.9074 1145.8 -6.34043 1139.85 2.44058C1137.91 5.4172 1139.85 10.1798 1139.85 14.1982V41.7319C1136.5 51.6114 1130.02 60.1288 1121.39 65.9913H1108C1106.81 64.2053 1105.32 63.0147 1105.17 61.6752C1104.89 47.5175 1108.11 33.5099 1114.55 20.8956C1113.17 7.94723 1114.02 -5.14174 1117.08 -17.8004C1116.18 -19.884 1115.29 -21.2235 1114.1 -23.6048L1126.6 -54.7104C1125.41 -61.1101 1124.37 -67.2122 1123.33 -72.2724C1134.19 -85.816 1134.19 -85.6672 1145.5 -85.9648C1153.09 -82.3929 1154.43 -74.8026 1158.9 -67.2122Z" fill="#FBF1D8"/>
<path fill-rule="evenodd" clip-rule="evenodd" d="M959.019 59.7402C972.948 55.1048 988.146 56.1751 1001.29 62.7168C1002.92 65.0981 1005.16 68.3724 1008.28 72.5396C1024.96 80.2106 1040.44 90.2349 1054.27 102.306L1079.57 111.533C1083.89 119.272 1088.06 126.416 1092.37 135.049C1091.03 138.174 1089.54 141.597 1087.61 145.764C1083.74 147.55 1079.57 150.08 1074.96 151.718C1072.09 152.111 1069.19 152.111 1066.33 151.718C1059.33 145.02 1051.44 138.174 1044 130.435C1032.66 118.952 1019.9 108.951 1006.05 100.669C990.673 91.7608 976.473 80.9608 963.782 68.5212C961.83 65.807 960.23 62.8565 959.019 59.7402V59.7402Z" fill="#FBF1D8"/>
<path fill-rule="evenodd" clip-rule="evenodd" d="M36.8669 515.012H28.0859C11.8633 522.304 0.701024 534.211 -13.4379 542.099C-18.7958 545.075 -21.9212 551.475 -27.1303 556.982H-50.1991C-52.4433 555.46 -54.2902 553.423 -55.5849 551.04C-56.8797 548.658 -57.5846 546 -57.6406 543.289C-55.2586 537.271 -50.6852 532.379 -44.8412 529.597C-29.9581 522.007 -19.2423 507.124 -1.53143 504.296L20.942 487.18C20.942 482.12 21.835 475.869 22.2815 469.767C24.1451 467.137 26.5936 464.975 29.4344 463.451C32.2751 461.927 35.4307 461.083 38.6529 460.986C42.6713 459.795 41.0342 452.651 48.6245 453.693L56.8102 466.642C55.3219 469.618 53.8336 472.297 52.0476 475.423C53.3871 478.697 54.8754 482.269 56.6614 486.883C54.1313 490.157 50.857 493.58 48.178 497.45C45.4991 501.319 43.7131 505.784 41.4806 509.951C40.1365 510.103 38.8809 510.697 37.9111 511.64C36.9412 512.583 36.3122 513.821 36.1227 515.16L36.8669 515.012Z" fill="#FBF1D8"/>
<path fill-rule="evenodd" clip-rule="evenodd" d="M525.031 241.163C525.793 244.995 525.793 248.94 525.031 252.772C517.887 266.911 516.547 282.538 510.148 297.421C505.982 306.759 504.241 316.998 505.087 327.187C505.087 332.694 505.087 338.35 505.087 343.857L498.241 356.061L475.619 360.228C473.386 357.4 470.261 353.679 466.094 348.321V327.039C474.555 315.291 480.994 302.213 485.144 288.343C485.144 284.92 485.144 277.776 486.037 269.59L504.343 256.046C502.855 253.367 501.813 251.284 500.325 248.307C501.367 246.224 502.855 243.396 504.343 240.866L507.618 235.21C514.464 232.233 519.524 233.871 525.031 241.163Z" fill="#FBF1D8"/>
<path fill-rule="evenodd" clip-rule="evenodd" d="M41.48 510.545C53.1224 509.946 64.7313 512.247 75.2646 517.243C78.3901 520.368 76.7529 524.684 77.6459 528.256C78.7367 531.848 80.0286 535.376 81.5155 538.823L65.7394 552.069L55.619 548.795C46.9894 555.861 39.1545 563.846 32.2525 572.608C23.4451 586.934 12.3316 599.707 -0.639066 610.411H-8.97358L-17.3081 597.76V585.556C-8.22943 579.305 -3.31801 570.673 4.86768 563.38C13.0534 556.088 19.7507 550.879 24.2157 547.009C29.1271 533.465 37.1639 525.875 37.6104 515.01C38.9641 514.884 40.2338 514.299 41.2085 513.351C42.1832 512.404 42.8043 511.151 42.9683 509.801L41.48 510.545Z" fill="#FBF1D8"/>
<path fill-rule="evenodd" clip-rule="evenodd" d="M-56.4515 464.41C-41.5684 453.099 -34.871 436.43 -20.8809 425.118L20.6429 391.929L29.7215 395.055C30.9122 392.971 32.1028 391.036 33.2935 388.804C39.6932 389.697 42.0745 394.757 46.0929 399.52V412.765C44.732 414.83 43.0775 416.685 41.1815 418.272C37.1642 420.963 32.8109 423.115 28.2332 424.672C3.22051 434.062 -17.8 451.772 -31.2991 474.828C-36.3593 481.823 -40.6754 489.711 -44.545 495.218L-56.7491 501.32L-63 495.367C-61.0652 484.055 -58.6839 474.977 -56.4515 464.41Z" fill="#FBF1D8"/>
<path fill-rule="evenodd" clip-rule="evenodd" d="M388.85 29.2244L376.349 21.9317V7.04867C377.904 5.00169 379.703 3.15239 381.707 1.54193C400.162 -10.0669 418.914 -21.378 437.369 -33.1356C446.299 -38.7912 454.485 -45.4886 462.522 -51.293L484.4 -46.5304V-30.7543L473.684 -23.7593C451.955 -9.57075 430.176 4.3201 408.347 17.9133C402.692 22.3782 395.697 25.5037 388.85 29.2244Z" fill="#FBF1D8"/>
</g>
</svg>
