<svg width="1200" height="700" viewBox="0 0 1200 700" fill="none" xmlns="http://www.w3.org/2000/svg">
<rect width="1200" height="700" fill="#FFF8EB" fill-opacity="0.35"/>
<mask id="mask0_2424_4580" style="mask-type:alpha" maskUnits="userSpaceOnUse" x="0" y="0" width="1200" height="700">
<rect width="1200" height="700" fill="#FFF8EB" fill-opacity="0.3"/>
</mask>
<g mask="url(#mask0_2424_4580)">
<path d="M136.055 -48C147.014 -41.9855 160.859 -24.4834 169.913 -15.4298C179.546 -5.79633 191.369 7.94493 201.852 18.4411C217.486 34.0633 234.023 50.6123 251.049 67.625C255.724 72.3126 263.361 82.4613 268.293 82.9633C275.08 83.6462 287.779 72.841 295.132 68.8998C321.212 54.9393 354.103 44.9069 387.138 39.5106C436.401 31.4873 488.571 36.8064 530.243 49.0925C613.067 73.5233 668.539 124.446 710.406 192.201C724.184 225.943 739.372 260.02 744.908 302.728C750.459 345.42 746.842 393.211 746.842 441.376C746.842 465.253 746.196 489.362 746.196 513.565C746.196 561.587 745.554 608.375 745.554 654.768V662.232C745.545 683.355 745.375 704.223 743.005 724.402C734.967 722.741 730.456 715.039 725.115 709.693C693.562 678.151 662.935 645.095 629.285 613.874C624.428 609.368 618.451 599.075 612.668 598.539C605.997 597.919 592.502 609.147 587.119 611.955C561.901 625.155 532.861 635.317 501.514 641.347C457.071 649.873 406.015 649.5 363.507 639.438C293.703 622.905 237.59 583.262 198.04 535.292C192.334 528.374 188.085 520.22 182.701 512.287C161.091 480.467 146.255 448.988 136.699 404.314C127.851 362.857 130.311 310.003 130.323 258.022C130.337 183.121 132.874 105.913 132.874 29.2978C132.874 4.41643 133.492 -22.9252 134.78 -46.0938C134.741 -47.1757 135.243 -47.7298 136.055 -48ZM447.146 195.933C370.8 195.933 308.909 257.824 308.909 334.17C308.909 410.516 370.8 472.407 447.146 472.407C523.492 472.407 585.383 410.516 585.383 334.17C585.383 257.824 523.492 195.933 447.146 195.933Z" fill="#FFF8E8"/>
</g>
</svg>
