<?xml version="1.0" encoding="UTF-8"?>
<svg width="281px" height="137px" viewBox="0 0 281 137" version="1.1" xmlns="http://www.w3.org/2000/svg" xmlns:xlink="http://www.w3.org/1999/xlink">
    <!-- Generator: Sketch 50.2 (55047) - http://www.bohemiancoding.com/sketch -->
    <title>DCI_logo_2color_rev</title>
    <desc>Created with Sketch.</desc>
    <defs></defs>
    <g id="DCI_logo_2color_rev" stroke="none" stroke-width="1" fill="none" fill-rule="evenodd">
        <polygon id="Fill-1" points="0.5 136.5 280.5 136.5 280.5 0.5 0.5 0.5"></polygon>
        <polygon id="Stroke-2" stroke="#1A1919" points="0.5 136.5 280.5 136.5 280.5 0.5 0.5 0.5"></polygon>
        <path d="M20.329,72.932 C20.329,56.357 33.647,42.92 50.078,42.92 C66.508,42.92 79.826,56.357 79.826,72.932 C79.826,89.508 66.508,102.944 50.078,102.944 C33.647,102.944 20.329,89.508 20.329,72.932" id="Fill-4" fill="#FFFFFE"></path>
        <path d="M103.387,70.021 C103.387,72.541 105.172,72.832 106.758,72.832 C113.761,72.832 116.06,67.505 116.06,62.633 C116.06,56.521 112.171,52.106 105.915,52.106 C104.586,52.106 103.973,52.2 103.387,52.236 L103.387,70.021 Z M100.212,54.686 C100.212,51.746 98.689,51.939 97.232,51.906 L97.232,51.061 C98.494,51.121 99.79,51.121 101.056,51.121 C102.417,51.121 104.264,51.061 106.664,51.061 C115.056,51.061 119.625,56.712 119.625,62.502 C119.625,65.741 117.747,73.881 106.274,73.881 C104.624,73.881 103.097,73.817 101.576,73.817 C100.117,73.817 98.689,73.851 97.232,73.881 L97.232,73.029 C99.173,72.832 100.117,72.769 100.212,70.546 L100.212,54.686 Z" id="Fill-5" fill="#FFFFFE"></path>
        <path d="M124.232,53.904 C123.386,53.904 122.642,53.119 122.642,52.27 C122.642,51.452 123.419,50.696 124.232,50.696 C125.072,50.696 125.82,51.385 125.82,52.27 C125.82,53.152 125.105,53.904 124.232,53.904 Z M120.763,73.029 L121.377,73.029 C122.286,73.029 122.932,73.029 122.932,71.947 L122.932,63.09 C122.932,61.65 122.449,61.454 121.247,60.805 L121.247,60.28 C122.771,59.819 124.585,59.204 124.717,59.101 C124.944,58.974 125.135,58.94 125.3,58.94 C125.46,58.94 125.525,59.134 125.525,59.395 L125.525,71.947 C125.525,73.029 126.241,73.029 127.146,73.029 L127.695,73.029 L127.695,73.881 C126.594,73.881 125.46,73.817 124.295,73.817 C123.128,73.817 121.962,73.851 120.763,73.881 L120.763,73.029 Z" id="Fill-6" fill="#FFFFFE"></path>
        <path d="M130.776,63.285 C130.776,62.078 130.42,61.751 128.897,61.132 L128.897,60.508 C130.289,60.05 131.617,59.623 133.174,58.94 C133.271,58.94 133.367,59.003 133.367,59.262 L133.367,61.393 C135.219,60.05 136.806,58.94 138.979,58.94 C141.734,58.94 142.704,60.965 142.704,63.515 L142.704,71.947 C142.704,73.029 143.42,73.029 144.324,73.029 L144.909,73.029 L144.909,73.881 C143.771,73.881 142.639,73.817 141.476,73.817 C140.307,73.817 139.141,73.851 137.972,73.881 L137.972,73.029 L138.557,73.029 C139.465,73.029 140.109,73.029 140.109,71.947 L140.109,63.485 C140.109,61.617 138.979,60.705 137.129,60.705 C136.091,60.705 134.441,61.553 133.367,62.275 L133.367,71.947 C133.367,73.029 134.085,73.029 134.993,73.029 L135.575,73.029 L135.575,73.881 C134.441,73.881 133.304,73.817 132.134,73.817 C130.972,73.817 129.802,73.851 128.636,73.881 L128.636,73.029 L129.224,73.029 C130.131,73.029 130.776,73.029 130.776,71.947 L130.776,63.285" id="Fill-7" fill="#FFFFFE"></path>
        <path d="M153.112,63.809 C153.919,63.809 154.013,63.385 154.013,62.994 C154.013,61.323 153.01,59.983 151.195,59.983 C149.22,59.983 147.858,61.454 147.469,63.809 L153.112,63.809 Z M147.375,64.858 C147.306,65.152 147.306,65.641 147.375,66.753 C147.564,69.861 149.545,72.411 152.136,72.411 C153.919,72.411 155.316,71.429 156.513,70.219 L156.966,70.676 C155.474,72.671 153.629,74.371 150.972,74.371 C145.816,74.371 144.781,69.337 144.781,67.244 C144.781,60.835 149.058,58.94 151.324,58.94 C153.95,58.94 156.774,60.604 156.803,64.07 C156.803,64.271 156.803,64.464 156.774,64.662 L156.478,64.858 L147.375,64.858 Z" id="Fill-8" fill="#FFFFFE"></path>
        <path d="M157.547,73.029 L158.427,73.029 C159.333,73.029 159.976,73.029 159.976,71.947 L159.976,62.764 C159.976,61.751 158.78,61.553 158.293,61.29 L158.293,60.805 C160.658,59.789 161.959,58.94 162.251,58.94 C162.441,58.94 162.54,59.034 162.54,59.364 L162.54,62.306 L162.609,62.306 C163.416,61.032 164.779,58.94 166.754,58.94 C167.564,58.94 168.6,59.492 168.6,60.671 C168.6,61.553 167.988,62.342 167.077,62.342 C166.071,62.342 166.071,61.553 164.938,61.553 C164.388,61.553 162.573,62.306 162.573,64.271 L162.573,71.947 C162.573,73.029 163.219,73.029 164.128,73.029 L165.941,73.029 L165.941,73.881 C164.159,73.851 162.801,73.817 161.406,73.817 C160.076,73.817 158.717,73.851 157.547,73.881 L157.547,73.029" id="Fill-9" fill="#FFFFFE"></path>
        <path d="M170.024,69.337 C170.449,71.492 171.744,73.327 174.111,73.327 C176.021,73.327 176.73,72.147 176.73,71.004 C176.73,67.148 169.671,68.385 169.671,63.124 C169.671,61.29 171.132,58.94 174.696,58.94 C175.731,58.94 177.125,59.234 178.389,59.886 L178.617,63.221 L177.871,63.221 C177.549,61.163 176.412,59.983 174.337,59.983 C173.04,59.983 171.812,60.738 171.812,62.142 C171.812,65.971 179.329,64.791 179.329,69.925 C179.329,72.081 177.611,74.371 173.756,74.371 C172.454,74.371 170.934,73.915 169.799,73.263 L169.443,69.5 L170.024,69.337" id="Fill-10" fill="#FFFFFE"></path>
        <path d="M208.594,56.976 L207.783,56.976 C207.169,53.152 204.479,51.615 200.852,51.615 C197.12,51.615 191.706,54.131 191.706,61.975 C191.706,68.585 196.382,73.327 201.367,73.327 C204.575,73.327 207.235,71.104 207.884,67.669 L208.627,67.863 L207.884,72.638 C206.523,73.49 202.856,74.371 200.716,74.371 C193.134,74.371 188.342,69.433 188.342,62.078 C188.342,55.375 194.269,50.566 200.623,50.566 C203.25,50.566 205.774,51.418 208.271,52.3 L208.594,56.976" id="Fill-11" fill="#FFFFFE"></path>
        <path d="M209.76,73.029 L210.378,73.029 C211.286,73.029 211.936,73.029 211.936,71.947 L211.936,53.743 C211.936,51.615 211.448,51.548 210.216,51.19 L210.216,50.666 C211.512,50.241 212.873,49.656 213.556,49.259 C213.909,49.065 214.171,48.898 214.268,48.898 C214.465,48.898 214.525,49.095 214.525,49.359 L214.525,71.947 C214.525,73.029 215.24,73.029 216.148,73.029 L216.699,73.029 L216.699,73.881 C215.602,73.881 214.465,73.817 213.294,73.817 C212.131,73.817 210.964,73.851 209.76,73.881 L209.76,73.029" id="Fill-12" fill="#FFFFFE"></path>
        <path d="M230.573,72.081 C230.573,72.671 230.926,72.702 231.479,72.702 C231.866,72.702 232.356,72.671 232.777,72.671 L232.777,73.36 C231.38,73.49 228.726,74.175 228.104,74.371 L227.944,74.274 L227.944,71.628 C226.003,73.229 224.507,74.371 222.204,74.371 C220.455,74.371 218.644,73.229 218.644,70.486 L218.644,62.112 C218.644,61.259 218.512,60.441 216.702,60.28 L216.702,59.658 C217.87,59.623 220.455,59.431 220.88,59.431 C221.239,59.431 221.239,59.658 221.239,60.377 L221.239,68.812 C221.239,69.791 221.239,72.604 224.059,72.604 C225.157,72.604 226.616,71.753 227.977,70.616 L227.977,61.814 C227.977,61.163 226.422,60.805 225.258,60.474 L225.258,59.886 C228.173,59.689 229.992,59.431 230.313,59.431 C230.573,59.431 230.573,59.658 230.573,60.02 L230.573,72.081" id="Fill-13" fill="#FFFFFE"></path>
        <path d="M237.02,70.186 C237.02,71.429 238.186,73.521 240.361,73.521 C243.831,73.521 245.288,70.085 245.288,67.175 C245.288,63.646 242.629,60.705 240.104,60.705 C238.897,60.705 237.896,61.49 237.02,62.245 L237.02,70.186 Z M237.02,61.29 C238.316,60.183 240.07,58.94 241.851,58.94 C245.61,58.94 247.879,62.245 247.879,65.804 C247.879,70.085 244.769,74.371 240.128,74.371 C237.731,74.371 236.472,73.587 235.626,73.229 L234.654,73.979 L233.977,73.621 C234.262,71.692 234.426,69.791 234.426,67.8 L234.426,53.743 C234.426,51.615 233.942,51.548 232.709,51.19 L232.709,50.666 C234.009,50.241 235.366,49.656 236.049,49.259 C236.401,49.065 236.663,48.898 236.764,48.898 C236.957,48.898 237.02,49.095 237.02,49.359 L237.02,61.29 Z" id="Fill-14" fill="#FFFFFE"></path>
        <path d="M97.196,92.891 L97.442,92.891 C98.076,92.891 98.748,92.805 98.748,91.878 L98.748,82.557 C98.748,81.629 98.076,81.544 97.442,81.544 L97.196,81.544 L97.196,81.005 C97.885,81.005 98.941,81.078 99.808,81.078 C100.688,81.078 101.746,81.005 102.574,81.005 L102.574,81.544 L102.328,81.544 C101.694,81.544 101.021,81.629 101.021,82.557 L101.021,91.878 C101.021,92.805 101.694,92.891 102.328,92.891 L102.574,92.891 L102.574,93.427 C101.728,93.427 100.669,93.357 99.789,93.357 C98.924,93.357 97.885,93.427 97.196,93.427 L97.196,92.891" id="Fill-15" fill="#FFFFFE"></path>
        <path d="M102.498,93.351 L102.5,92.972 L102.329,92.972 C101.699,92.972 100.948,92.859 100.944,91.878 L100.944,82.557 C100.948,81.575 101.699,81.466 102.329,81.466 L102.498,81.466 L102.498,81.087 C101.684,81.087 100.662,81.157 99.808,81.157 C98.971,81.157 97.957,81.09 97.273,81.087 L97.273,81.466 L97.442,81.466 C98.07,81.466 98.822,81.575 98.822,82.557 L98.822,91.878 C98.822,92.859 98.07,92.972 97.442,92.972 L97.273,92.972 L97.273,93.351 C97.957,93.342 98.953,93.278 99.789,93.278 C100.647,93.278 101.669,93.345 102.498,93.351 Z M102.574,93.502 C101.722,93.502 100.666,93.432 99.789,93.432 C98.925,93.432 97.888,93.502 97.196,93.502 L97.118,93.502 L97.118,92.817 L97.442,92.817 C98.082,92.802 98.665,92.747 98.669,91.878 L98.669,82.557 C98.665,81.687 98.082,81.629 97.442,81.617 L97.118,81.617 L97.118,80.932 L97.196,80.932 C97.888,80.932 98.944,81.002 99.808,81.002 C100.685,81.002 101.74,80.932 102.574,80.932 L102.652,80.932 L102.652,81.617 L102.329,81.617 C101.688,81.629 101.103,81.687 101.1,82.557 L101.1,91.878 C101.103,92.747 101.688,92.802 102.329,92.817 L102.652,92.817 L102.652,93.502 L102.574,93.502 Z" id="Fill-16" fill="#FFFFFE"></path>
        <path d="M114.69,89.922 L114.726,89.885 L114.726,83.215 C114.726,81.756 113.721,81.544 113.188,81.544 L112.803,81.544 L112.803,81.005 C113.631,81.005 114.444,81.078 115.272,81.078 C115.993,81.078 116.721,81.005 117.438,81.005 L117.438,81.544 L117.178,81.544 C116.436,81.544 115.604,81.684 115.604,83.8 L115.604,91.898 C115.604,92.521 115.626,93.141 115.711,93.693 L115.041,93.693 L105.96,83.481 L105.96,90.811 C105.96,92.362 106.257,92.891 107.615,92.891 L107.916,92.891 L107.916,93.427 C107.158,93.427 106.399,93.357 105.64,93.357 C104.851,93.357 104.037,93.427 103.244,93.427 L103.244,92.891 L103.49,92.891 C104.708,92.891 105.079,92.06 105.079,90.635 L105.079,83.142 C105.079,82.145 104.264,81.544 103.474,81.544 L103.244,81.544 L103.244,81.005 C103.912,81.005 104.602,81.078 105.271,81.078 C105.799,81.078 106.313,81.005 106.842,81.005 L114.69,89.922" id="Fill-17" fill="#FFFFFE"></path>
        <path d="M114.649,89.885 L114.649,89.879 L114.635,89.867 L114.649,89.885 Z M114.69,89.922 L114.748,89.87 L114.69,89.922 Z M115.041,93.614 L115.626,93.614 C115.545,93.08 115.532,92.486 115.532,91.898 L115.532,83.8 C115.532,81.665 116.417,81.466 117.178,81.466 L117.365,81.466 L117.365,81.087 C116.667,81.09 115.973,81.157 115.272,81.157 C114.465,81.157 113.679,81.09 112.88,81.087 L112.88,81.466 L113.188,81.466 C113.732,81.466 114.8,81.708 114.8,83.215 L114.779,89.94 L114.741,89.974 L114.682,90.031 L106.842,81.087 C106.317,81.087 105.806,81.157 105.271,81.157 C104.624,81.157 103.96,81.09 103.321,81.087 L103.318,81.466 L103.474,81.466 C104.302,81.466 105.153,82.103 105.153,83.142 L105.153,90.635 C105.153,92.06 104.76,92.965 103.49,92.972 L103.321,92.965 L103.321,93.351 C104.085,93.342 104.869,93.278 105.64,93.278 C106.38,93.278 107.111,93.342 107.838,93.351 L107.838,92.972 L107.615,92.972 C106.228,92.965 105.884,92.359 105.884,90.811 L105.884,83.282 L115.041,93.614 Z M115.711,93.772 L114.985,93.744 L106.033,83.682 L106.033,90.811 C106.057,92.359 106.29,92.799 107.615,92.817 L107.995,92.817 L107.995,93.502 L107.916,93.502 C107.152,93.502 106.394,93.432 105.64,93.432 C104.854,93.432 104.043,93.502 103.241,93.502 L103.165,93.502 L103.165,92.817 L103.49,92.817 C104.657,92.808 104.99,92.054 105.004,90.635 L105.004,83.142 C105.002,82.196 104.23,81.62 103.474,81.617 L103.165,81.617 L103.165,80.932 L103.241,80.932 C103.917,80.932 104.604,81.002 105.271,81.002 C105.794,81.002 106.305,80.932 106.9,80.959 L114.649,89.759 L114.649,83.215 C114.641,81.799 113.705,81.629 113.188,81.617 L112.723,81.617 L112.723,80.932 L112.803,80.932 C113.634,80.932 114.447,81.002 115.272,81.002 C115.988,81.002 116.712,80.932 117.438,80.932 L117.519,80.932 L117.519,81.617 L117.178,81.617 C116.448,81.638 115.703,81.705 115.682,83.8 L115.682,91.898 C115.682,92.517 115.7,93.138 115.785,93.681 L115.801,93.772 L115.711,93.772 Z" id="Fill-18" fill="#FFFFFE"></path>
        <path d="M120.081,81.896 C118.756,81.896 118.709,82.218 118.441,83.515 L117.913,83.515 C117.985,83.018 118.071,82.521 118.127,82.002 C118.195,81.505 118.231,81.005 118.231,80.492 L118.655,80.492 C118.798,81.026 119.237,81.005 119.715,81.005 L128.813,81.005 C129.289,81.005 129.729,80.99 129.766,80.456 L130.186,80.529 C130.121,81.005 130.049,81.487 129.995,81.969 C129.959,82.448 129.959,82.93 129.959,83.409 L129.431,83.608 C129.397,82.949 129.306,81.896 128.126,81.896 L125.234,81.896 L125.234,91.361 C125.234,92.735 125.854,92.891 126.698,92.891 L127.032,92.891 L127.032,93.427 C126.345,93.427 125.108,93.357 124.158,93.357 C123.102,93.357 121.864,93.427 121.175,93.427 L121.175,92.891 L121.511,92.891 C122.484,92.891 122.974,92.805 122.974,91.401 L122.974,81.896 L120.081,81.896" id="Fill-19" fill="#FFFFFE"></path>
        <path d="M127.034,93.502 C126.339,93.502 125.105,93.432 124.158,93.432 C123.102,93.432 121.87,93.502 121.175,93.502 L121.102,93.502 L121.102,92.817 L121.511,92.817 C122.484,92.793 122.876,92.78 122.896,91.401 L122.896,81.972 L120.081,81.972 L120.081,81.82 L123.051,81.82 L123.051,91.401 C123.051,92.826 122.48,92.972 121.511,92.972 L121.252,92.972 L121.252,93.348 C121.949,93.342 123.133,93.278 124.158,93.278 C125.078,93.278 126.256,93.342 126.953,93.348 L126.953,92.972 L126.698,92.972 C125.844,92.972 125.154,92.763 125.154,91.361 L125.154,81.82 L128.126,81.82 C129.31,81.823 129.465,82.835 129.502,83.497 L129.887,83.355 C129.887,82.893 129.89,82.427 129.918,81.956 C129.968,81.502 130.034,81.047 130.1,80.592 L129.833,80.547 C129.745,81.063 129.253,81.093 128.812,81.087 L119.715,81.087 C119.68,81.087 119.649,81.087 119.623,81.087 C119.207,81.087 118.756,81.065 118.6,80.571 L118.306,80.571 C118.306,81.063 118.27,81.539 118.201,82.014 C118.15,82.502 118.071,82.972 118.006,83.439 L118.383,83.439 C118.617,82.202 118.766,81.799 120.081,81.82 L120.081,81.972 C118.777,81.999 118.807,82.218 118.517,83.534 L118.508,83.595 L117.825,83.595 L117.836,83.503 C117.904,83.006 117.997,82.509 118.05,81.99 C118.122,81.496 118.157,81.002 118.157,80.492 L118.157,80.414 L118.716,80.414 L118.728,80.471 C118.849,80.92 119.172,80.923 119.623,80.932 C119.652,80.932 119.68,80.932 119.715,80.932 L128.812,80.932 C129.301,80.923 129.66,80.914 129.689,80.45 L129.696,80.368 L129.775,80.383 L130.271,80.462 L130.262,80.538 C130.193,81.017 130.124,81.496 130.072,81.972 C130.036,82.448 130.036,82.93 130.036,83.409 L130.036,83.464 L129.986,83.484 L129.361,83.716 L129.357,83.608 C129.31,82.942 129.239,81.972 128.126,81.972 L125.31,81.972 L125.31,91.361 C125.327,92.705 125.856,92.799 126.698,92.817 L127.106,92.817 L127.106,93.502 L127.034,93.502" id="Fill-20" fill="#FFFFFE"></path>
        <path d="M130.752,92.891 L130.999,92.891 C131.633,92.891 132.302,92.805 132.302,91.878 L132.302,82.557 C132.302,81.629 131.633,81.544 130.999,81.544 L130.752,81.544 L130.752,81.005 C131.823,81.005 133.665,81.078 135.142,81.078 C136.624,81.078 138.456,81.005 139.652,81.005 C139.624,81.772 139.641,82.949 139.693,83.731 L139.16,83.873 C139.077,82.717 138.863,81.793 137.012,81.793 L134.565,81.793 L134.565,86.449 L136.657,86.449 C137.718,86.449 137.95,85.851 138.052,84.889 L138.577,84.889 C138.545,85.583 138.527,86.273 138.527,86.969 C138.527,87.647 138.545,88.321 138.577,88.996 L138.052,89.104 C137.95,88.036 137.896,87.341 136.676,87.341 L134.565,87.341 L134.565,91.485 C134.565,92.645 135.585,92.645 136.712,92.645 C138.83,92.645 139.762,92.502 140.291,90.473 L140.783,90.598 C140.556,91.543 140.344,92.481 140.186,93.427 C139.06,93.427 137.029,93.357 135.44,93.357 C133.854,93.357 131.757,93.427 130.752,93.427 L130.752,92.891" id="Fill-21" fill="#FFFFFE"></path>
        <path d="M140.121,93.348 C140.273,92.45 140.475,91.55 140.694,90.655 L140.344,90.567 C139.815,92.56 138.794,92.735 136.712,92.721 C135.599,92.721 134.488,92.721 134.481,91.485 L134.481,87.266 L136.676,87.266 C137.907,87.251 138.031,88.002 138.119,89.015 L138.5,88.936 C138.468,88.281 138.45,87.621 138.45,86.969 C138.45,86.302 138.468,85.635 138.5,84.962 L138.119,84.962 C138.021,85.893 137.735,86.541 136.657,86.529 L134.481,86.529 L134.481,81.711 L137.012,81.711 C138.846,81.702 139.152,82.657 139.227,83.773 L139.609,83.67 C139.579,83.167 139.561,82.527 139.561,81.933 C139.561,81.624 139.567,81.338 139.576,81.087 C138.377,81.09 136.59,81.157 135.142,81.157 C133.693,81.157 131.906,81.09 130.827,81.087 L130.827,81.466 L130.999,81.466 C131.627,81.466 132.378,81.575 132.381,82.557 L132.381,91.878 C132.378,92.859 131.627,92.965 130.999,92.972 L130.827,92.972 L130.827,93.348 C131.852,93.345 133.893,93.278 135.44,93.278 C136.998,93.278 138.98,93.345 140.121,93.348 Z M140.186,93.502 C139.053,93.502 137.026,93.43 135.44,93.43 C133.854,93.43 131.759,93.502 130.752,93.502 L130.674,93.502 L130.674,92.817 L130.999,92.817 C131.636,92.805 132.219,92.747 132.225,91.878 L132.225,82.557 C132.219,81.69 131.636,81.633 130.999,81.617 L130.674,81.617 L130.674,80.932 L130.752,80.932 C131.826,80.932 133.665,81.002 135.142,81.002 C136.622,81.002 138.454,80.932 139.652,80.932 L139.732,80.932 L139.732,81.011 C139.717,81.277 139.711,81.593 139.711,81.933 C139.711,82.545 139.732,83.218 139.766,83.724 L139.766,83.788 L139.709,83.807 L139.089,83.97 L139.086,83.876 C138.98,82.724 138.83,81.884 137.012,81.869 L134.635,81.869 L134.635,86.371 L136.657,86.371 C137.677,86.365 137.854,85.838 137.976,84.88 L137.981,84.81 L138.659,84.81 L138.659,84.889 C138.623,85.583 138.602,86.273 138.602,86.969 C138.602,87.642 138.623,88.317 138.659,88.996 L138.659,89.058 L138.596,89.072 L137.981,89.194 L137.976,89.111 C137.854,88.027 137.848,87.433 136.676,87.417 L134.635,87.414 L134.635,91.485 C134.638,92.568 135.562,92.563 136.712,92.568 C138.837,92.556 139.686,92.45 140.216,90.452 L140.234,90.38 L140.31,90.395 L140.875,90.543 L140.857,90.616 C140.629,91.556 140.42,92.498 140.262,93.438 L140.249,93.502 L140.186,93.502 Z" id="Fill-22" fill="#FFFFFE"></path>
        <path d="M145.424,87.021 L146.285,87.021 C148.051,87.021 149.001,86.347 149.001,84.246 C149.001,82.666 147.996,81.647 146.425,81.647 C145.894,81.647 145.668,81.705 145.424,81.72 L145.424,87.021 Z M143.167,82.893 C143.167,81.593 142.461,81.544 141.914,81.544 L141.593,81.544 L141.593,81.005 C142.158,81.005 143.252,81.078 144.33,81.078 C145.383,81.078 146.232,81.005 147.17,81.005 C149.387,81.005 151.362,81.611 151.362,84.14 C151.362,85.74 150.308,86.717 148.915,87.274 L151.931,91.823 C152.423,92.577 152.772,92.786 153.64,92.891 L153.64,93.427 C153.058,93.427 152.494,93.357 151.913,93.357 C151.362,93.357 150.8,93.427 150.253,93.427 C148.896,91.632 147.73,89.709 146.584,87.66 L145.424,87.66 L145.424,91.468 C145.424,92.842 146.057,92.891 146.867,92.891 L147.188,92.891 L147.188,93.427 C146.178,93.427 145.156,93.357 144.151,93.357 C143.305,93.357 142.478,93.427 141.593,93.427 L141.593,92.891 L141.914,92.891 C142.563,92.891 143.167,92.593 143.167,91.932 L143.167,82.893 Z" id="Fill-23" fill="#FFFFFE"></path>
        <path d="M146.285,86.944 C148.029,86.926 148.912,86.317 148.928,84.249 C148.918,82.697 147.96,81.732 146.425,81.723 C145.947,81.723 145.725,81.766 145.499,81.79 L145.499,86.944 L146.285,86.944 Z M145.422,87.097 L145.345,87.097 L145.345,81.647 L145.412,81.642 C145.652,81.62 145.891,81.575 146.425,81.575 C148.029,81.575 149.075,82.627 149.078,84.249 C149.073,86.371 148.063,87.097 146.285,87.097 L145.422,87.097 Z M145.422,87.584 L146.626,87.584 L146.647,87.624 C147.795,89.67 148.956,91.59 150.253,93.351 C150.793,93.351 151.36,93.278 151.906,93.278 C152.471,93.278 153.016,93.339 153.563,93.348 L153.563,92.957 C152.734,92.856 152.349,92.605 151.867,91.868 L148.796,87.235 L148.887,87.199 C150.266,86.65 151.286,85.701 151.289,84.137 C151.286,81.672 149.384,81.096 147.17,81.087 C146.238,81.087 145.388,81.157 144.33,81.157 C143.29,81.157 142.246,81.09 141.671,81.087 L141.671,81.466 L141.914,81.466 C142.461,81.466 143.237,81.557 143.237,82.893 L143.237,91.932 C143.237,92.647 142.578,92.972 141.914,92.972 L141.671,92.972 L141.671,93.348 C142.52,93.345 143.32,93.278 144.148,93.278 C145.137,93.278 146.13,93.345 147.107,93.348 L147.107,92.972 L146.867,92.972 C146.063,92.972 145.345,92.872 145.345,91.468 L145.345,87.584 L145.422,87.584 Z M153.64,93.502 C153.049,93.502 152.488,93.432 151.906,93.432 C151.372,93.432 150.805,93.502 150.19,93.476 C148.841,91.683 147.682,89.772 146.541,87.739 L145.499,87.739 L145.499,91.468 C145.517,92.808 146.051,92.796 146.867,92.817 L147.262,92.817 L147.262,93.502 L147.182,93.502 C146.173,93.502 145.147,93.432 144.148,93.432 C143.305,93.432 142.48,93.502 141.593,93.502 L141.521,93.502 L141.521,92.817 L141.914,92.817 C142.549,92.812 143.08,92.532 143.086,91.932 L143.086,82.893 C143.074,81.633 142.461,81.635 141.914,81.617 L141.521,81.617 L141.521,80.932 L141.593,80.932 C142.167,80.932 143.255,81.002 144.33,81.002 C145.381,81.002 146.229,80.932 147.17,80.932 C149.39,80.932 151.438,81.557 151.443,84.137 C151.443,85.743 150.389,86.747 149.03,87.305 L151.992,91.779 C152.485,92.521 152.79,92.705 153.648,92.817 L153.713,92.823 L153.713,93.502 L153.64,93.502 Z" id="Fill-24" fill="#FFFFFE"></path>
        <path d="M165.611,89.922 L165.644,89.885 L165.644,83.215 C165.644,81.756 164.64,81.544 164.113,81.544 L163.724,81.544 L163.724,81.005 C164.557,81.005 165.361,81.078 166.194,81.078 C166.918,81.078 167.64,81.005 168.366,81.005 L168.366,81.544 L168.103,81.544 C167.36,81.544 166.531,81.684 166.531,83.8 L166.531,91.898 C166.531,92.521 166.546,93.141 166.633,93.693 L165.966,93.693 L156.884,83.481 L156.884,90.811 C156.884,92.362 157.184,92.891 158.543,92.891 L158.843,92.891 L158.843,93.427 C158.083,93.427 157.322,93.357 156.565,93.357 C155.771,93.357 154.96,93.427 154.169,93.427 L154.169,92.891 L154.41,92.891 C155.63,92.891 156,92.06 156,90.635 L156,83.142 C156,82.145 155.189,81.544 154.396,81.544 L154.169,81.544 L154.169,81.005 C154.835,81.005 155.528,81.078 156.195,81.078 C156.723,81.078 157.234,81.005 157.764,81.005 L165.611,89.922" id="Fill-25" fill="#FFFFFE"></path>
        <path d="M165.569,89.885 L165.569,89.879 L165.559,89.867 L165.569,89.885 Z M165.611,89.922 L165.668,89.87 L165.611,89.922 Z M165.966,93.614 L166.543,93.614 C166.47,93.083 166.453,92.486 166.453,91.898 L166.453,83.8 C166.453,81.665 167.346,81.469 168.103,81.466 L168.286,81.466 L168.286,81.087 C167.592,81.09 166.895,81.157 166.194,81.157 C165.386,81.157 164.598,81.09 163.803,81.087 L163.803,81.466 L164.113,81.466 C164.655,81.469 165.725,81.708 165.725,83.215 L165.701,89.94 L165.668,89.974 L165.611,90.034 L157.764,81.087 C157.239,81.087 156.727,81.157 156.195,81.157 C155.541,81.157 154.883,81.09 154.242,81.087 L154.242,81.466 L154.396,81.466 C155.225,81.469 156.074,82.1 156.074,83.142 L156.074,90.631 C156.074,92.06 155.675,92.965 154.41,92.972 L154.242,92.972 L154.242,93.348 C155.005,93.342 155.791,93.278 156.565,93.278 C157.301,93.278 158.034,93.342 158.765,93.348 L158.765,92.972 L158.543,92.972 C157.154,92.972 156.805,92.362 156.803,90.811 L156.803,83.282 L165.966,93.614 Z M166.633,93.772 L165.909,93.744 L156.958,83.682 L156.958,90.811 C156.981,92.362 157.212,92.799 158.543,92.817 L158.917,92.817 L158.917,93.502 L158.841,93.502 C158.077,93.502 157.319,93.43 156.565,93.43 C155.775,93.43 154.96,93.502 154.169,93.502 L154.085,93.502 L154.085,92.817 L154.41,92.817 C155.574,92.812 155.909,92.054 155.922,90.631 L155.922,83.142 C155.919,82.193 155.152,81.62 154.396,81.617 L154.085,81.617 L154.085,80.932 L154.169,80.932 C154.839,80.932 155.531,81.002 156.195,81.002 C156.715,81.002 157.225,80.932 157.815,80.953 L165.569,89.759 L165.569,83.215 C165.567,81.799 164.626,81.627 164.113,81.617 L163.646,81.617 L163.646,80.932 L163.724,80.932 C164.559,80.932 165.37,81.002 166.194,81.002 C166.913,81.002 167.637,80.932 168.362,80.932 L168.439,80.932 L168.439,81.617 L168.103,81.617 C167.375,81.635 166.624,81.705 166.606,83.8 L166.606,91.898 C166.606,92.517 166.62,93.133 166.709,93.681 L166.718,93.772 L166.633,93.772 Z" id="Fill-26" fill="#FFFFFE"></path>
        <path d="M173.776,83 L173.74,83 L172.1,88.036 L175.396,88.036 L173.776,83 Z M171.204,90.883 C171.025,91.485 170.811,91.953 170.811,92.269 C170.811,92.805 171.555,92.891 172.136,92.891 L172.331,92.891 L172.331,93.427 C171.622,93.39 170.9,93.357 170.194,93.357 C169.559,93.357 168.927,93.39 168.291,93.427 L168.291,92.891 L168.396,92.891 C169.084,92.891 169.669,92.481 169.927,91.734 L172.752,83.573 C172.98,82.912 173.302,82.023 173.404,81.362 C173.97,81.169 174.676,80.813 175.011,80.598 C175.064,80.58 175.093,80.565 175.149,80.565 C175.201,80.565 175.237,80.565 175.274,80.617 C175.327,80.759 175.379,80.92 175.436,81.063 L178.679,90.367 C178.889,90.989 179.101,91.65 179.329,92.184 C179.542,92.681 179.913,92.891 180.495,92.891 L180.599,92.891 L180.599,93.427 C179.808,93.39 179.013,93.357 178.167,93.357 C177.305,93.357 176.421,93.39 175.524,93.427 L175.524,92.891 L175.718,92.891 C176.121,92.891 176.81,92.823 176.81,92.377 C176.81,92.144 176.653,91.665 176.452,91.095 L175.768,89.03 L171.764,89.03 L171.204,90.883 Z" id="Fill-27" fill="#FFFFFE"></path>
        <path d="M173.699,83.024 L173.74,83.011 L173.699,83.024 Z M172.203,87.96 L175.29,87.96 L173.756,83.19 L172.203,87.96 Z M171.991,88.114 L173.681,82.924 L173.776,82.924 L173.776,83 L173.758,83.006 L173.776,83 L173.776,82.924 L173.829,82.924 L175.503,88.114 L171.991,88.114 Z M175.598,93.342 C176.468,93.314 177.326,93.278 178.167,93.278 C178.988,93.278 179.755,93.314 180.522,93.342 L180.522,92.972 L180.495,92.972 C179.893,92.978 179.478,92.735 179.259,92.214 C179.03,91.674 178.815,91.013 178.607,90.392 L175.361,81.087 C175.307,80.944 175.254,80.783 175.21,80.656 C175.192,80.638 175.198,80.638 175.184,80.638 C175.174,80.638 175.162,80.638 175.149,80.638 C175.113,80.638 175.093,80.65 175.049,80.662 C174.708,80.884 173.999,81.235 173.476,81.374 C173.369,82.051 173.052,82.936 172.821,83.595 L170.002,91.763 C169.731,92.535 169.113,92.972 168.396,92.972 L168.368,92.972 L168.368,93.342 C168.972,93.314 169.582,93.278 170.194,93.278 C170.876,93.278 171.574,93.314 172.247,93.342 L172.247,92.972 L172.136,92.972 C171.559,92.965 170.758,92.901 170.736,92.271 C170.736,91.917 170.952,91.459 171.126,90.861 L171.204,90.883 L171.126,90.858 L171.707,88.957 L175.817,88.957 L176.523,91.07 C176.723,91.644 176.884,92.117 176.884,92.377 C176.856,92.923 176.114,92.962 175.718,92.972 L175.598,92.972 L175.598,93.342 Z M180.592,93.502 C179.804,93.469 179.013,93.43 178.167,93.43 C177.305,93.43 176.428,93.469 175.524,93.502 L175.444,93.508 L175.444,92.812 L175.718,92.812 C176.124,92.812 176.728,92.721 176.728,92.377 C176.73,92.175 176.577,91.687 176.383,91.123 L175.712,89.109 L171.82,89.109 L171.271,90.903 C171.09,91.514 170.883,91.983 170.883,92.271 C170.889,92.705 171.55,92.812 172.136,92.812 L172.404,92.812 L172.404,93.508 L172.325,93.502 C171.619,93.469 170.897,93.43 170.194,93.43 C169.562,93.43 168.927,93.469 168.295,93.502 L168.217,93.508 L168.217,92.812 L168.396,92.812 C169.053,92.812 169.598,92.432 169.852,91.711 L172.679,83.545 C172.909,82.885 173.227,81.999 173.378,81.293 C173.93,81.099 174.64,80.741 174.982,80.526 C175.031,80.507 175.077,80.483 175.149,80.483 C175.192,80.48 175.29,80.496 175.343,80.589 C175.396,80.735 175.451,80.893 175.503,81.035 L178.753,90.344 C178.961,90.965 179.171,91.622 179.4,92.146 C179.604,92.623 179.929,92.812 180.495,92.812 L180.677,92.812 L180.677,93.508 L180.592,93.502 Z" id="Fill-28" fill="#FFFFFE"></path>
        <path d="M181.377,81.896 C180.052,81.896 180.002,82.218 179.736,83.515 L179.204,83.515 C179.276,83.018 179.366,82.521 179.417,82.002 C179.489,81.505 179.524,81.005 179.524,80.492 L179.946,80.492 C180.088,81.026 180.53,81.005 181.004,81.005 L190.104,81.005 C190.58,81.005 191.018,80.99 191.054,80.456 L191.478,80.529 C191.411,81.005 191.343,81.487 191.286,81.969 C191.243,82.448 191.243,82.93 191.243,83.409 L190.719,83.608 C190.689,82.949 190.598,81.896 189.416,81.896 L186.525,81.896 L186.525,91.361 C186.525,92.735 187.143,92.891 187.989,92.891 L188.321,92.891 L188.321,93.427 C187.636,93.427 186.401,93.357 185.449,93.357 C184.392,93.357 183.153,93.427 182.465,93.427 L182.465,92.891 L182.802,92.891 C183.775,92.891 184.27,92.805 184.27,91.401 L184.27,81.896 L181.377,81.896" id="Fill-29" fill="#FFFFFE"></path>
        <path d="M188.321,93.502 C187.632,93.502 186.399,93.432 185.449,93.432 C184.395,93.432 183.162,93.502 182.465,93.502 L182.391,93.502 L182.391,92.817 L182.802,92.817 C183.775,92.793 184.163,92.78 184.187,91.401 L184.187,81.972 L181.377,81.972 L181.377,81.82 L184.34,81.82 L184.34,91.401 C184.34,92.826 183.771,92.965 182.802,92.972 L182.543,92.972 L182.543,93.351 C183.241,93.342 184.424,93.278 185.449,93.278 C186.369,93.278 187.55,93.342 188.248,93.351 L188.244,92.972 L187.986,92.972 C187.137,92.965 186.452,92.763 186.449,91.361 L186.449,81.82 L189.416,81.82 C190.604,81.823 190.754,82.835 190.79,83.497 L191.173,83.355 C191.173,82.893 191.173,82.427 191.21,81.96 C191.259,81.502 191.327,81.047 191.389,80.595 L191.126,80.547 C191.042,81.063 190.547,81.093 190.104,81.087 L181.004,81.087 C180.97,81.087 180.941,81.087 180.914,81.087 C180.498,81.09 180.05,81.065 179.89,80.565 L179.602,80.565 C179.595,81.063 179.563,81.539 179.493,82.014 C179.445,82.505 179.357,82.972 179.293,83.439 L179.673,83.439 C179.904,82.202 180.055,81.796 181.377,81.82 L181.377,81.972 C180.066,81.996 180.097,82.218 179.81,83.534 L179.797,83.595 L179.114,83.595 L179.126,83.503 C179.198,83.006 179.287,82.509 179.34,81.996 C179.412,81.496 179.445,81.002 179.445,80.492 L179.445,80.414 L180.002,80.414 L180.018,80.471 C180.143,80.92 180.467,80.923 180.914,80.932 C180.946,80.932 180.974,80.932 181.004,80.932 L190.104,80.932 C190.592,80.923 190.951,80.914 190.979,80.45 L190.982,80.368 L191.065,80.383 L191.568,80.462 L191.553,80.538 C191.478,81.017 191.413,81.496 191.36,81.972 C191.327,82.448 191.327,82.93 191.327,83.409 L191.327,83.464 L191.273,83.484 L190.648,83.716 L190.648,83.608 C190.604,82.942 190.531,81.972 189.416,81.972 L186.6,81.972 L186.6,91.361 C186.618,92.705 187.146,92.799 187.986,92.817 L188.397,92.817 L188.397,93.502 L188.321,93.502" id="Fill-30" fill="#FFFFFE"></path>
        <path d="M192.129,92.891 L192.375,92.891 C193.014,92.891 193.681,92.805 193.681,91.878 L193.681,82.557 C193.681,81.629 193.014,81.544 192.375,81.544 L192.129,81.544 L192.129,81.005 C192.816,81.005 193.873,81.078 194.737,81.078 C195.619,81.078 196.677,81.005 197.51,81.005 L197.51,81.544 L197.263,81.544 C196.624,81.544 195.951,81.629 195.951,82.557 L195.951,91.878 C195.951,92.805 196.624,92.891 197.263,92.891 L197.51,92.891 L197.51,93.427 C196.66,93.427 195.604,93.357 194.723,93.357 C193.855,93.357 192.816,93.427 192.129,93.427 L192.129,92.891" id="Fill-31" fill="#FFFFFE"></path>
        <path d="M197.428,93.348 L197.428,92.972 L197.263,92.972 C196.631,92.972 195.881,92.859 195.881,91.878 L195.881,82.557 C195.881,81.575 196.631,81.466 197.263,81.466 L197.428,81.466 L197.428,81.087 C196.615,81.09 195.599,81.157 194.737,81.157 C193.9,81.157 192.888,81.09 192.205,81.087 L192.205,81.466 L192.375,81.466 C193.002,81.466 193.756,81.575 193.756,82.557 L193.756,91.878 C193.756,92.859 193.002,92.972 192.375,92.972 L192.205,92.972 L192.205,93.348 C192.888,93.339 193.882,93.278 194.723,93.278 C195.578,93.278 196.6,93.342 197.428,93.348 Z M197.51,93.502 C196.657,93.502 195.601,93.43 194.723,93.43 C193.857,93.43 192.816,93.502 192.129,93.502 L192.055,93.502 L192.055,92.817 L192.375,92.817 C193.014,92.805 193.598,92.747 193.6,91.878 L193.6,82.557 C193.598,81.69 193.014,81.629 192.375,81.617 L192.055,81.617 L192.055,80.932 L192.129,80.932 C192.816,80.932 193.876,81.002 194.737,81.002 C195.619,81.002 196.674,80.932 197.51,80.932 L197.58,80.932 L197.58,81.617 L197.263,81.617 C196.619,81.629 196.036,81.69 196.031,82.557 L196.031,91.878 C196.036,92.747 196.619,92.805 197.263,92.817 L197.58,92.817 L197.58,93.502 L197.51,93.502 Z" id="Fill-32" fill="#FFFFFE"></path>
        <path d="M204.807,92.911 C208.232,92.911 208.824,89.867 208.824,87.274 C208.824,84.673 207.437,81.526 204.508,81.526 C201.422,81.526 200.506,84.301 200.506,86.681 C200.506,89.867 201.951,92.911 204.807,92.911 Z M204.543,80.741 C208.3,80.741 211.298,83.091 211.298,86.881 C211.298,90.974 208.389,93.693 204.633,93.693 C200.889,93.693 198.039,91.134 198.039,87.305 C198.039,83.608 200.876,80.741 204.543,80.741 Z" id="Fill-33" fill="#FFFFFE"></path>
        <path d="M200.426,86.681 C200.433,84.288 201.362,81.444 204.508,81.444 C207.505,81.451 208.9,84.658 208.902,87.274 C208.9,89.867 208.295,92.983 204.807,92.983 L204.807,92.836 C208.163,92.833 208.742,89.867 208.751,87.274 C208.751,84.694 207.373,81.605 204.508,81.602 C201.482,81.605 200.587,84.313 200.581,86.681 C200.585,89.852 202.018,92.826 204.807,92.836 L204.807,92.983 C201.881,92.98 200.433,89.885 200.426,86.681 Z M197.957,87.305 C197.967,83.564 200.837,80.669 204.543,80.662 L204.543,80.82 C200.913,80.82 198.108,83.646 198.108,87.305 C198.113,91.089 200.929,93.611 204.633,93.614 C208.35,93.611 211.217,90.932 211.226,86.877 C211.224,83.136 208.271,80.823 204.543,80.82 L204.543,80.662 C208.329,80.669 211.366,83.043 211.371,86.877 C211.369,91.013 208.425,93.763 204.633,93.772 C200.86,93.763 197.967,91.171 197.957,87.305 Z" id="Fill-34" fill="#FFFFFE"></path>
        <path d="M223.184,89.922 L223.219,89.885 L223.219,83.215 C223.219,81.756 222.214,81.544 221.679,81.544 L221.3,81.544 L221.3,81.005 C222.123,81.005 222.938,81.078 223.765,81.078 C224.491,81.078 225.213,81.005 225.935,81.005 L225.935,81.544 L225.669,81.544 C224.927,81.544 224.099,81.684 224.099,83.8 L224.099,91.898 C224.099,92.521 224.119,93.141 224.204,93.693 L223.533,93.693 L214.452,83.481 L214.452,90.811 C214.452,92.362 214.751,92.891 216.111,92.891 L216.41,92.891 L216.41,93.427 C215.651,93.427 214.896,93.357 214.135,93.357 C213.342,93.357 212.528,93.427 211.733,93.427 L211.733,92.891 L211.983,92.891 C213.203,92.891 213.567,92.06 213.567,90.635 L213.567,83.142 C213.567,82.145 212.761,81.544 211.963,81.544 L211.733,81.544 L211.733,81.005 C212.407,81.005 213.093,81.078 213.764,81.078 C214.291,81.078 214.803,81.005 215.331,81.005 L223.184,89.922" id="Fill-35" fill="#FFFFFE"></path>
        <path d="M223.139,89.885 L223.139,89.879 L223.124,89.867 L223.139,89.885 Z M223.184,89.922 L223.24,89.87 L223.184,89.922 Z M223.533,93.614 L224.115,93.614 C224.038,93.08 224.022,92.486 224.022,91.898 L224.022,83.8 C224.022,81.663 224.914,81.469 225.669,81.466 L225.861,81.466 L225.861,81.087 C225.16,81.09 224.465,81.157 223.759,81.157 C222.962,81.157 222.171,81.09 221.372,81.087 L221.372,81.466 L221.679,81.466 C222.229,81.469 223.292,81.711 223.292,83.215 L223.271,89.94 L223.24,89.974 L223.184,90.034 L215.331,81.087 C214.812,81.087 214.298,81.157 213.764,81.157 C213.113,81.157 212.448,81.09 211.811,81.087 L211.811,81.466 L211.963,81.466 C212.794,81.469 213.646,82.1 213.646,83.142 L213.646,90.635 C213.646,92.06 213.254,92.965 211.983,92.972 L211.811,92.972 L211.811,93.348 C212.577,93.342 213.359,93.278 214.135,93.278 C214.872,93.278 215.605,93.342 216.333,93.348 L216.333,92.972 L216.105,92.972 C214.722,92.972 214.376,92.362 214.376,90.811 L214.376,83.282 L223.533,93.614 Z M224.204,93.772 L223.474,93.744 L214.525,83.682 L214.525,90.811 C214.547,92.362 214.782,92.796 216.105,92.812 L216.489,92.812 L216.489,93.502 L216.41,93.502 C215.647,93.502 214.89,93.432 214.135,93.432 C213.345,93.432 212.535,93.502 211.733,93.502 L211.661,93.502 L211.661,92.812 L211.983,92.812 C213.146,92.808 213.481,92.054 213.491,90.635 L213.491,83.142 C213.491,82.193 212.723,81.62 211.963,81.617 L211.661,81.617 L211.661,80.932 L211.733,80.932 C212.41,80.932 213.098,81.002 213.764,81.002 C214.286,81.002 214.794,80.932 215.393,80.959 L223.139,89.759 L223.139,83.215 C223.136,81.799 222.198,81.629 221.679,81.617 L221.219,81.617 L221.219,80.932 L221.298,80.932 C222.126,80.932 222.944,81.002 223.759,81.002 C224.485,81.002 225.201,80.932 225.935,80.932 L226.01,80.932 L226.01,81.617 L225.669,81.617 C224.945,81.638 224.192,81.705 224.177,83.8 L224.177,91.898 C224.177,92.517 224.192,93.138 224.275,93.681 L224.29,93.772 L224.204,93.772 Z" id="Fill-36" fill="#FFFFFE"></path>
        <path d="M231.344,83 L231.309,83 L229.668,88.036 L232.971,88.036 L231.344,83 Z M228.768,90.883 C228.597,91.485 228.384,91.953 228.384,92.269 C228.384,92.805 229.129,92.891 229.703,92.891 L229.9,92.891 L229.9,93.427 C229.193,93.39 228.473,93.357 227.766,93.357 C227.124,93.357 226.492,93.39 225.863,93.427 L225.863,92.891 L225.962,92.891 C226.652,92.891 227.238,92.481 227.499,91.734 L230.325,83.573 C230.554,82.912 230.869,82.023 230.974,81.362 C231.538,81.169 232.244,80.813 232.579,80.598 C232.633,80.58 232.669,80.565 232.722,80.565 C232.771,80.565 232.805,80.565 232.843,80.617 C232.897,80.759 232.947,80.92 233.006,81.063 L236.248,90.367 C236.456,90.989 236.672,91.65 236.9,92.184 C237.11,92.681 237.485,92.891 238.066,92.891 L238.171,92.891 L238.171,93.427 C237.379,93.39 236.582,93.357 235.738,93.357 C234.874,93.357 233.988,93.39 233.091,93.427 L233.091,92.891 L233.285,92.891 C233.689,92.891 234.38,92.823 234.38,92.377 C234.38,92.144 234.221,91.665 234.024,91.095 L233.339,89.03 L229.339,89.03 L228.768,90.883 Z" id="Fill-37" fill="#FFFFFE"></path>
        <path d="M231.277,83.024 L231.309,83.011 L231.277,83.024 Z M229.775,87.957 L232.861,87.957 L231.324,83.193 L229.775,87.957 Z M229.562,88.108 L231.26,82.924 L231.344,82.924 L231.344,83 L231.328,83.006 L231.344,83 L231.344,82.924 L231.401,82.924 L233.068,88.108 L229.562,88.108 Z M233.168,93.345 C234.036,93.314 234.898,93.278 235.738,93.278 C236.557,93.278 237.324,93.314 238.091,93.342 L238.091,92.972 L238.063,92.972 C237.467,92.972 237.049,92.735 236.828,92.214 C236.594,91.674 236.384,91.013 236.174,90.392 L232.934,81.087 C232.879,80.944 232.822,80.783 232.78,80.662 C232.766,80.638 232.766,80.638 232.752,80.638 C232.745,80.638 232.733,80.638 232.722,80.638 C232.685,80.638 232.667,80.65 232.618,80.662 C232.277,80.88 231.574,81.238 231.045,81.374 C230.941,82.051 230.618,82.936 230.394,83.595 L227.569,91.763 C227.3,92.535 226.688,92.972 225.962,92.972 L225.935,92.972 L225.935,93.342 C226.543,93.314 227.151,93.278 227.766,93.278 C228.448,93.278 229.143,93.314 229.826,93.342 L229.826,92.972 L229.703,92.972 C229.131,92.965 228.326,92.901 228.306,92.269 C228.308,91.917 228.528,91.462 228.701,90.861 L228.768,90.883 L228.701,90.858 L229.279,88.957 L233.394,88.957 L234.097,91.07 C234.295,91.644 234.451,92.117 234.451,92.377 C234.426,92.923 233.686,92.962 233.282,92.972 L233.168,92.972 L233.168,93.345 Z M238.166,93.502 C237.372,93.472 236.576,93.432 235.738,93.432 C234.876,93.432 233.991,93.472 233.093,93.502 L233.015,93.508 L233.015,92.817 L233.282,92.817 C233.692,92.817 234.302,92.721 234.304,92.377 C234.307,92.175 234.149,91.689 233.947,91.123 L233.278,89.109 L229.386,89.109 L228.844,90.903 C228.667,91.517 228.453,91.983 228.46,92.269 C228.46,92.705 229.119,92.817 229.703,92.817 L229.974,92.817 L229.974,93.508 L229.894,93.502 C229.19,93.472 228.466,93.432 227.766,93.432 C227.13,93.432 226.499,93.472 225.863,93.502 L225.786,93.508 L225.786,92.817 L225.962,92.817 C226.62,92.812 227.173,92.429 227.428,91.711 L230.25,83.545 C230.475,82.885 230.793,81.999 230.946,81.293 C231.503,81.099 232.212,80.741 232.552,80.526 C232.597,80.507 232.651,80.486 232.722,80.486 C232.766,80.48 232.858,80.496 232.915,80.592 C232.966,80.732 233.019,80.893 233.075,81.035 L236.319,90.344 C236.529,90.965 236.743,91.622 236.973,92.149 C237.18,92.623 237.497,92.812 238.063,92.817 L238.244,92.817 L238.244,93.508 L238.166,93.502 Z" id="Fill-38" fill="#FFFFFE"></path>
        <path d="M242.617,91.683 C242.617,92.396 243.106,92.607 243.67,92.681 C244.395,92.735 245.187,92.735 246.002,92.645 C246.739,92.56 247.377,92.128 247.691,91.683 C247.972,91.289 248.129,90.795 248.24,90.401 L248.75,90.401 C248.556,91.417 248.31,92.414 248.096,93.427 C246.545,93.427 244.99,93.357 243.444,93.357 C241.89,93.357 240.337,93.427 238.785,93.427 L238.785,92.891 L239.028,92.891 C239.668,92.891 240.354,92.805 240.354,91.698 L240.354,82.557 C240.354,81.629 239.668,81.544 239.028,81.544 L238.785,81.544 L238.785,81.005 C239.72,81.005 240.64,81.078 241.571,81.078 C242.472,81.078 243.353,81.005 244.255,81.005 L244.255,81.544 L243.811,81.544 C243.143,81.544 242.617,81.563 242.617,82.505 L242.617,91.683" id="Fill-39" fill="#FFFFFE"></path>
        <path d="M248.035,93.348 C248.24,92.384 248.471,91.437 248.656,90.476 L248.294,90.476 C248.188,90.868 248.029,91.344 247.75,91.729 C247.422,92.192 246.769,92.626 246.002,92.721 C245.539,92.772 245.083,92.793 244.651,92.793 C244.312,92.793 243.976,92.778 243.658,92.757 C243.089,92.689 242.529,92.444 242.536,91.683 L242.536,82.505 C242.536,81.515 243.153,81.466 243.811,81.466 L244.177,81.466 L244.177,81.087 C243.308,81.09 242.447,81.157 241.571,81.157 C240.653,81.157 239.762,81.09 238.86,81.087 L238.86,81.466 L239.028,81.466 C239.659,81.466 240.43,81.575 240.43,82.554 L240.43,91.698 C240.43,92.851 239.663,92.972 239.028,92.972 L238.86,92.972 L238.86,93.348 C240.381,93.345 241.911,93.278 243.444,93.278 C244.977,93.278 246.504,93.345 248.035,93.348 Z M248.096,93.502 C246.542,93.502 244.99,93.432 243.444,93.432 C241.89,93.432 240.337,93.502 238.781,93.502 L238.71,93.502 L238.71,92.817 L239.028,92.817 C239.668,92.802 240.276,92.757 240.281,91.698 L240.281,82.554 C240.276,81.69 239.675,81.629 239.028,81.617 L238.71,81.617 L238.71,80.932 L238.781,80.932 C239.723,80.932 240.64,81.002 241.571,81.002 C242.468,81.002 243.351,80.932 244.255,80.932 L244.324,80.932 L244.324,81.617 L243.811,81.617 C243.128,81.635 242.699,81.605 242.685,82.505 L242.685,91.683 C242.693,92.348 243.122,92.523 243.676,92.605 C243.984,92.626 244.315,92.639 244.651,92.639 C245.083,92.639 245.53,92.616 245.991,92.568 C246.707,92.481 247.322,92.065 247.629,91.641 C247.902,91.259 248.057,90.77 248.16,90.383 L248.178,90.322 L248.844,90.322 L248.826,90.419 C248.629,91.435 248.386,92.429 248.172,93.444 L248.153,93.502 L248.096,93.502 Z" id="Fill-40" fill="#FFFFFE"></path>
        <path d="M248.24,82.381 L248.456,82.381 C248.696,82.381 248.808,82.199 248.808,81.905 C248.808,81.605 248.632,81.502 248.443,81.502 L248.24,81.502 L248.24,82.381 Z M247.611,83.369 L247.611,83.276 C247.837,83.245 247.882,83.254 247.882,83.109 L247.882,81.723 C247.882,81.526 247.861,81.46 247.617,81.472 L247.617,81.374 L248.57,81.374 C248.894,81.374 249.196,81.536 249.196,81.872 C249.196,82.154 249.016,82.357 248.757,82.439 L249.061,82.87 C249.205,83.061 249.365,83.245 249.472,83.309 L249.472,83.369 L249.109,83.369 C248.937,83.369 248.786,83 248.443,82.509 L248.24,82.509 L248.24,83.127 C248.24,83.254 248.282,83.245 248.507,83.276 L248.507,83.369 L247.611,83.369 Z M248.535,83.899 C249.365,83.899 250.004,83.188 250.004,82.381 C250.004,81.575 249.378,80.853 248.535,80.853 C247.697,80.853 247.063,81.575 247.063,82.381 C247.063,83.188 247.697,83.899 248.535,83.899 Z M248.535,80.505 C249.597,80.505 250.392,81.329 250.392,82.381 C250.392,83.433 249.597,84.249 248.535,84.249 C247.475,84.249 246.677,83.433 246.677,82.381 C246.677,81.329 247.475,80.505 248.535,80.505 Z" id="Fill-41" fill="#FFFFFE"></path>
        <path d="M68.07,72.341 C68.057,64.655 63.295,58.1 56.586,55.505 L56.586,89.176 C63.295,86.577 68.057,80.029 68.07,72.341 Z M43.783,89.169 L43.783,55.508 C37.081,58.113 32.325,64.659 32.308,72.341 C32.325,80.022 37.081,86.568 43.783,89.169 Z M50.187,43.88 C34.608,43.887 21.986,56.624 21.983,72.341 C21.986,88.057 34.608,100.791 50.187,100.794 C65.768,100.791 78.395,88.057 78.398,72.341 C78.395,56.624 65.768,43.887 50.187,43.88 Z M50.119,103.48 C33.07,103.562 19.039,89.628 19.039,72.665 C19.039,54.128 33.07,41.307 50.119,41.31 L58.108,41.31 C74.955,41.307 90.332,54.122 90.332,72.665 C90.332,89.622 74.955,103.48 58.108,103.48 L50.119,103.48 Z" id="Fill-42" fill="#184977"></path>
    </g>
</svg>