<?xml version="1.0" encoding="UTF-8"?>
<svg width="380px" height="244px" viewBox="0 0 380 244" version="1.1" xmlns="http://www.w3.org/2000/svg" xmlns:xlink="http://www.w3.org/1999/xlink">
    <!-- Generator: Sketch 50.2 (55047) - http://www.bohemiancoding.com/sketch -->
    <title>discover</title>
    <desc>Created with Sketch.</desc>
    <defs>
        <linearGradient x1="75.5551195%" y1="90.0119454%" x2="40.9921502%" y2="35.8964164%" id="linearGradient-1">
            <stop stop-color="#F89F20" offset="0%"></stop>
            <stop stop-color="#F79A20" offset="25.02%"></stop>
            <stop stop-color="#F68D20" offset="53.31%"></stop>
            <stop stop-color="#F58720" offset="61.96%"></stop>
            <stop stop-color="#F48120" offset="72.32%"></stop>
            <stop stop-color="#F37521" offset="100%"></stop>
        </linearGradient>
        <linearGradient x1="70.0984642%" y1="89.2836177%" x2="19.5836177%" y2="-9.45051195%" id="linearGradient-2">
            <stop stop-color="#F58720" offset="0%"></stop>
            <stop stop-color="#E16F27" offset="35.87%"></stop>
            <stop stop-color="#D4602C" offset="70.3%"></stop>
            <stop stop-color="#D05B2E" offset="98.16%"></stop>
        </linearGradient>
    </defs>
    <g id="Page-1" stroke="none" stroke-width="1" fill="none" fill-rule="evenodd">
        <g id="discover" fill-rule="nonzero">
            <polygon id="XMLID_428_" fill="#FFFFFF" points="1.3 1.9 378.6 1.9 378.6 242.1 1.4 242.1"></polygon>
            <path d="M377.3,135.5 C377.3,135.5 274.2,208.2 85.4,240.8 L377.3,240.8 L377.3,135.5 Z" id="XMLID_427_" fill="#F48120"></path>
            <path d="M378.6,0.5 L0,0.5 L0,243.5 L380,243.5 L380,0.4 L378.6,0.4 L378.6,0.5 Z M377.3,3.2 C377.3,5.9 377.3,238 377.3,240.7 C374.6,240.7 5.5,240.7 2.8,240.7 C2.8,238 2.8,5.9 2.8,3.2 C5.5,3.2 374.5,3.2 377.3,3.2 Z" id="XMLID_2_" fill="#231F20"></path>
            <path d="M33.2,74.8 L17.5,74.8 L17.5,129.8 L33.2,129.8 C41.5,129.8 47.5,127.8 52.8,123.5 C59.1,118.3 62.8,110.5 62.8,102.4 C62.7,86.1 50.6,74.8 33.2,74.8 Z M45.8,116.2 C42.4,119.2 38.1,120.6 31.1,120.6 L28.2,120.6 L28.2,84.2 L31.1,84.2 C38,84.2 42.2,85.4 45.8,88.6 C49.5,91.9 51.7,97 51.7,102.3 C51.7,107.6 49.5,112.9 45.8,116.2 Z" id="Shape" fill="#231F20"></path>
            <rect id="XMLID_422_" fill="#231F20" x="67.7" y="74.8" width="10.7" height="55"></rect>
            <path d="M104.6,95.9 C98.2,93.5 96.3,91.9 96.3,89 C96.3,85.5 99.7,82.9 104.3,82.9 C107.5,82.9 110.2,84.2 112.9,87.4 L118.5,80.1 C113.9,76.1 108.4,74 102.3,74 C92.6,74 85.1,80.8 85.1,89.8 C85.1,97.4 88.6,101.3 98.6,104.9 C102.8,106.4 104.9,107.4 106,108 C108.1,109.4 109.2,111.4 109.2,113.7 C109.2,118.2 105.7,121.5 100.9,121.5 C95.8,121.5 91.7,118.9 89.2,114.2 L82.3,120.9 C87.2,128.2 93.2,131.4 101.3,131.4 C112.4,131.4 120.3,124 120.3,113.3 C120.5,104.4 116.8,100.4 104.6,95.9 Z" id="XMLID_421_" fill="#231F20"></path>
            <path d="M123.8,102.4 C123.8,118.6 136.5,131.1 152.8,131.1 C157.4,131.1 161.4,130.2 166.2,127.9 L166.2,115.3 C161.9,119.6 158.1,121.3 153.3,121.3 C142.5,121.3 134.8,113.5 134.8,102.3 C134.8,91.7 142.7,83.4 152.8,83.4 C157.9,83.4 161.8,85.2 166.2,89.6 L166.2,77 C161.5,74.6 157.6,73.6 153,73.6 C136.9,73.6 123.8,86.4 123.8,102.4 Z" id="XMLID_420_" fill="#231F20"></path>
            <polygon id="XMLID_419_" fill="#231F20" points="251.4 111.8 236.7 74.8 225 74.8 248.3 131.2 254.1 131.2 277.8 74.8 266.2 74.8"></polygon>
            <polygon id="XMLID_418_" fill="#231F20" points="282.7 129.8 313.1 129.8 313.1 120.5 293.4 120.5 293.4 105.7 312.4 105.7 312.4 96.4 293.4 96.4 293.4 84.2 313.1 84.2 313.1 74.8 282.7 74.8"></polygon>
            <path d="M355.6,91.1 C355.6,80.8 348.5,74.9 336.1,74.9 L320.2,74.9 L320.2,129.9 L330.9,129.9 L330.9,107.8 L332.3,107.8 L347.1,129.9 L360.3,129.9 L343,106.7 C351.1,105 355.6,99.5 355.6,91.1 Z M334,100.2 L330.9,100.2 L330.9,83.5 L334.2,83.5 C340.9,83.5 344.5,86.3 344.5,91.7 C344.5,97.2 340.9,100.2 334,100.2 Z" id="Shape" fill="#231F20"></path>
            <circle id="XMLID_415_" fill="url(#linearGradient-1)" cx="199.1" cy="102.5" r="29.3"></circle>
            <circle id="XMLID_414_" fill="url(#linearGradient-2)" opacity="0.65" cx="199.1" cy="102.5" r="29.3"></circle>
            <g id="XMLID_436_" transform="translate(356.000000, 73.000000)" fill="#231F20">
                <path d="M6.4,3.9 C6.4,2.9 5.7,2.4 4.6,2.4 L3,2.4 L3,7.2 L4.2,7.2 L4.2,5.3 L5.6,7.2 L7,7.2 L5.4,5.2 C6,5.1 6.4,4.6 6.4,3.9 Z M4.4,4.6 L4.2,4.6 L4.2,3.3 L4.4,3.3 C5,3.3 5.3,3.5 5.3,3.9 C5.3,4.4 5,4.6 4.4,4.6 Z" id="Shape"></path>
                <path d="M4.8,0.6 C2.5,0.6 0.6,2.5 0.6,4.8 C0.6,7.1 2.5,9 4.8,9 C7.1,9 9,7.1 9,4.8 C9,2.5 7.1,0.6 4.8,0.6 Z M4.8,8.3 C3,8.3 1.4,6.8 1.4,4.8 C1.4,2.9 2.9,1.3 4.8,1.3 C6.6,1.3 8.1,2.9 8.1,4.8 C8.1,6.7 6.6,8.3 4.8,8.3 Z" id="Shape"></path>
            </g>
        </g>
    </g>
</svg>