<?xml version="1.0" encoding="UTF-8"?>
<svg width="32px" height="32px" viewBox="0 0 32 32" version="1.1" xmlns="http://www.w3.org/2000/svg" xmlns:xlink="http://www.w3.org/1999/xlink">
    <title>kin</title>
    <g id="Page-1" stroke="none" stroke-width="1" fill="none" fill-rule="evenodd">
        <g id="kin">
            <circle id="Oval" fill="#6F41E8" cx="16" cy="16" r="16"></circle>
            <path d="M9.9300628,15.9448214 L9.9300628,15.989434 C9.9318452,16.6251409 10.446435,17.1399142 11.0814692,17.141251 L11.7134868,17.141251 C11.9752771,17.141251 12.1875,17.3536991 12.1875,17.6157671 L12.1875,19.5625 L10.2136604,19.5625 C9.95187018,19.5625 9.73964724,19.3500519 9.73964724,19.0879839 L9.73964724,18.2898234 C9.7378691,17.6542996 9.22389991,17.1394227 8.58905111,17.1371953 L8.54448576,17.1371953 C7.90963696,17.1394227 7.39566777,17.6542996 7.39388963,18.2898234 L7.39388963,19.5625 L5.1875,19.5625 L5.1875,12.375 L7.39388963,12.375 L7.39388963,13.6630883 C7.39522498,14.2987962 7.90945269,14.813932 8.54448576,14.8157163 L8.58905111,14.8157163 C9.22408418,14.813932 9.73831188,14.2987962 9.73964724,13.6630883 L9.73964724,12.8519496 C9.73964724,12.7261 9.78958777,12.605405 9.87848249,12.516416 C9.96737721,12.4274269 10.0879443,12.3774334 10.2136604,12.3774334 L12.1842589,12.3774334 L12.1842589,14.3241663 C12.1842589,14.5862343 11.9720359,14.7986824 11.7102457,14.7986824 L11.0782281,14.7986824 C10.4466586,14.8017716 9.93493401,15.3125931 9.9300628,15.9448214 L9.9300628,15.9448214 Z" id="Path" fill="#FFFFFF"></path>
            <polygon id="Path" fill="#FFFFFF" fill-rule="nonzero" points="17 12.375 17 19.5625 14.9375 19.5625 14.9375 12.375"></polygon>
            <path d="M26.75,12.375 L26.75,19.5625 L24.8464203,19.5625 C24.6916505,19.5625 24.5466802,19.4867061 24.4584296,19.359477 L21.7707852,15.4979963 L21.7707852,19.5625 L19.75,19.5625 L19.75,12.375 L21.6551963,12.375 C21.8098506,12.3746141 21.9548513,12.450186 22.0431871,12.5772156 L24.7300231,16.4386963 L24.7300231,12.375 L26.75,12.375 Z" id="Path" fill="#FFFFFF"></path>
        </g>
    </g>
</svg>