<?xml version="1.0" encoding="UTF-8"?>
<svg width="512px" height="512px" viewBox="0 0 512 512" version="1.1" xmlns="http://www.w3.org/2000/svg" xmlns:xlink="http://www.w3.org/1999/xlink">
    <title>gotok</title>
    <g id="Page-1" stroke="none" stroke-width="1" fill="none" fill-rule="evenodd">
        <g id="gotok">
            <rect id="bg" x="0" y="0" width="512" height="512"></rect>
            <path d="M307.613332,364.662912 L190.321989,364.662912 L190.321989,364.662912 C125.088103,364.662912 72,311.571138 72,246.320807 C72,181.091775 125.088103,128 190.323173,128 C255.574809,128 308.662912,181.091775 308.662912,246.320807 L308.662912,363.613332 C308.662912,364.192999 308.192999,364.662912 307.613332,364.662912 Z M401.901635,200.449107 C399.451159,200.85752 397.000684,202.082758 394.958621,203.307995 L336.833125,236.841935 C333.376132,238.836354 331.24626,242.524037 331.24626,246.51509 L331.24626,309.859037 C331.24626,325.295605 339.506526,339.552027 352.898709,347.229075 L395.367033,371.573974 L395.367033,371.573974 C407.210998,378.516988 421.91385,374.432862 428.856864,362.588897 C430.898927,358.913184 432.124165,354.829059 432.124165,350.33652 L432.124165,224.137036 C432.124165,209.025771 417.829725,196.773394 401.901635,200.449107 Z" id="Shape" fill="#6200EE" fill-rule="nonzero"></path>
        </g>
    </g>
</svg>