<?xml version="1.0" standalone="no"?>
<!DOCTYPE svg PUBLIC "-//W3C//DTD SVG 20010904//EN"
 "http://www.w3.org/TR/2001/REC-SVG-20010904/DTD/svg10.dtd">
<svg version="1.0" xmlns="http://www.w3.org/2000/svg"
 width="700.000000pt" height="700.000000pt" viewBox="0 0 700.000000 700.000000"
 preserveAspectRatio="xMidYMid meet">
<metadata>
Created by potrace 1.11, written by Peter Selinger 2001-2013
</metadata>
<g transform="translate(0.000000,700.000000) scale(0.100000,-0.100000)"
fill="#000000" stroke="none">
<path d="M3178 6995 c-2 -2 -50 -6 -108 -9 -110 -6 -219 -14 -283 -21 -20 -3
-65 -7 -100 -11 -60 -6 -362 -48 -422 -59 -16 -3 -57 -10 -90 -16 -86 -15
-315 -73 -420 -108 -647 -211 -1109 -610 -1389 -1196 -27 -55 -49 -104 -51
-110 -1 -5 -8 -23 -15 -40 -79 -189 -170 -559 -214 -870 -8 -53 -17 -115 -22
-140 -2 -11 -7 -51 -10 -90 -3 -38 -8 -72 -9 -75 -2 -3 -6 -41 -10 -85 -4 -44
-8 -90 -10 -103 -26 -163 -26 -910 -1 -1152 2 -19 7 -66 11 -105 6 -68 11
-109 20 -170 2 -16 7 -52 10 -80 3 -27 8 -59 10 -71 3 -12 7 -39 10 -60 23
-159 78 -410 126 -570 125 -422 323 -767 604 -1050 189 -190 360 -312 615
-439 71 -36 132 -65 136 -65 4 0 48 -16 97 -36 152 -60 442 -137 599 -159 23
-3 81 -12 128 -20 47 -7 128 -19 180 -25 52 -7 102 -13 110 -15 13 -2 85 -9
210 -20 299 -27 899 -27 1195 0 73 6 169 16 205 20 19 2 60 7 90 10 30 3 82
10 115 15 33 5 80 12 105 15 429 58 814 186 1125 373 95 57 269 181 321 229
17 15 46 42 65 59 174 157 356 397 481 634 113 215 243 589 273 785 2 11 13
72 24 135 11 63 23 133 26 155 2 22 7 50 9 62 3 12 7 48 11 80 3 33 7 70 10
84 2 13 6 53 10 89 3 36 8 79 10 95 3 26 10 123 21 300 4 75 4 603 0 660 -3
28 -7 101 -11 164 -4 62 -8 121 -10 130 -1 9 -6 50 -10 91 -10 102 -22 206
-30 250 -1 8 -6 40 -10 70 -4 30 -9 64 -11 75 -3 11 -7 36 -9 55 -2 19 -6 44
-9 55 -2 11 -11 61 -21 110 -9 50 -25 126 -36 170 -11 44 -22 89 -24 99 -23
102 -119 364 -183 496 -131 274 -351 562 -555 727 -40 32 -74 61 -77 64 -13
16 -156 112 -240 161 -83 49 -301 158 -316 158 -4 0 -20 7 -37 15 -58 27 -280
96 -402 125 -138 33 -140 34 -300 60 -66 11 -129 22 -140 24 -11 2 -49 7 -85
11 -36 4 -72 8 -80 10 -8 1 -46 6 -85 10 -38 4 -77 8 -85 10 -8 1 -60 6 -115
10 -55 4 -122 9 -150 12 -59 5 -773 12 -777 8z"/>
</g>
</svg>
