<?xml version="1.0" encoding="UTF-8"?>
<svg width="134px" height="31px" viewBox="0 0 134 31" version="1.1" xmlns="http://www.w3.org/2000/svg" xmlns:xlink="http://www.w3.org/1999/xlink">
    <title>torus_blue</title>
    <g id="Page-1" stroke="none" stroke-width="1" fill="none" fill-rule="evenodd">
        <g id="torus_blue" fill="#0364FF">
            <path d="M58.65975,21.8769583 C59.3787778,19.8303556 59.7318333,17.6715069 59.7025556,15.5006889 C59.7305417,13.3369319 59.3779167,11.1853597 58.65975,9.14590417 C58.0195139,7.32999306 57.020625,5.66339861 55.7246528,4.24638 C54.4515,2.88269431 52.9027917,1.81080903 51.1822917,1.10344931 C49.3270278,0.350615167 47.3417361,-0.0240021375 45.341375,0.00126758569 C43.3444583,-0.0249003625 41.3622667,0.354331292 39.5135042,1.11636167 C37.8000653,1.82959417 36.255275,2.89909847 34.9800986,4.25499111 C33.6829208,5.66809167 32.6842472,7.33205972 32.0446569,9.14590417 C31.3267917,11.1853597 30.9738222,13.3369319 31.0021097,15.5006889 C30.9727458,17.6715069 31.3257153,19.8303556 32.0446569,21.8769583 C32.6842472,23.6908028 33.6829208,25.3547708 34.9800986,26.7678542 C36.2534236,28.1238458 37.7988597,29.1908917 39.5135042,29.8979069 C43.2665278,31.36735 47.4295694,31.36735 51.1822917,29.8979069 C52.9002083,29.1920542 54.4489167,28.1249653 55.7246528,26.7678542 C57.0214861,25.3547708 58.020375,23.6908028 58.65975,21.8769583 Z M56.5784444,9.79617222 C57.1773472,11.6363236 57.46625,13.5645236 57.4326667,15.5008181 C57.4679722,17.4400403 57.1790694,19.3714264 56.5784444,21.214075 C56.0527361,22.7946875 55.2105694,24.24975 54.1044722,25.4893194 C53.0392778,26.6637458 51.7247917,27.5806139 50.25875,28.1715944 C47.0954583,29.3947167 43.5946111,29.3947167 40.4314486,28.1715944 C38.9675167,27.5769972 37.6537194,26.6606028 36.5859417,25.4893194 C35.4745056,24.2506542 34.6266986,22.7956347 34.0949194,21.214075 C33.4831431,19.3734931 33.1855,17.4416764 33.2147347,15.5008181 C33.1912264,13.5698625 33.4902472,11.6487236 34.0991819,9.8177 C34.6273014,8.22541944 35.4752375,6.75985139 36.5902042,5.51231667 C37.6599194,4.3411625 38.9729847,3.42234403 40.4357111,2.82144778 C43.5959028,1.58134875 47.1027778,1.58134875 50.2630556,2.82144778 C51.7278056,3.41866708 53.0418611,4.33801944 54.1087778,5.51231667 C55.2144444,6.75477083 56.0548889,8.21289028 56.5784444,9.79617222 Z" id="Shape"></path>
            <path d="M82.0681944,30.9991819 C82.7820556,30.9991819 83.1859167,30.1801792 82.7510556,29.6137403 L73.5165,17.5834153 C73.2667778,17.2408222 72.9576389,16.9489056 72.6054444,16.7223472 C73.8256389,16.5873681 75.0212917,16.2712542 76.1545139,15.7837361 C77.1478056,15.3525778 78.0584306,14.7400694 78.8424722,13.9754889 C79.5765694,13.2456542 80.1560972,12.3659861 80.5440278,11.3921986 C80.9496111,10.3635153 81.1519722,9.26116389 81.1390556,8.15020139 C81.130875,5.47795833 80.2680417,3.45153139 78.5509861,2.07092056 C76.8339306,0.690305417 74.2544722,0 70.8121806,0 L64.0089722,0 C63.5332083,0 63.1478611,0.385532792 63.1478611,0.861111111 L63.1478611,30.1380708 C63.1478611,30.6136625 63.5332083,30.9991819 64.0089722,30.9991819 L64.4670833,30.9991819 C64.9424167,30.9991819 65.3281944,30.6136625 65.3281944,30.1380708 L65.3281944,17.8417917 C65.3281944,17.3662 65.7135417,16.9806806 66.1893056,16.9806806 L69.2557222,16.9806806 C69.5075972,16.9783125 69.7594722,16.9941139 70.0091944,17.0280417 C70.1908889,17.0475458 70.3691389,17.0954236 70.5374861,17.170125 C70.6911944,17.2333736 70.8319861,17.3252972 70.9534028,17.441375 C71.0821389,17.5739431 71.1988194,17.71805 71.3030139,17.8718875 L80.9143056,30.4481139 C81.0266806,30.6301528 81.1829722,30.7786083 81.3681111,30.8786264 C81.5579861,30.9652111 81.7637917,31.0063722 81.9713194,30.9991819 L82.0681944,30.9991819 Z M74.0663194,14.8193778 C72.908125,15.1655014 71.7064444,15.3323417 70.5004583,15.3145167 L66.1897361,15.3145167 C65.7144028,15.3145167 65.328625,14.9289972 65.328625,14.4534056 L65.328625,2.63500861 C65.328625,2.15942986 65.7144028,1.7738975 66.1897361,1.7738975 L70.8169167,1.7738975 C73.4768889,1.77676931 75.5005,2.31064528 76.8873194,3.37552542 C78.2745694,4.44040556 78.9677639,6.07505278 78.9677639,8.27941111 C78.9828333,9.28213194 78.7882222,10.2764139 78.3977083,11.1942292 C78.0166667,12.0555986 77.4470417,12.8132472 76.7336111,13.4071986 C75.9435417,14.0559597 75.0372222,14.5359861 74.0663194,14.8193778 Z" id="Shape"></path>
            <path d="M98.7405972,29.0252569 C100.085653,29.0500569 101.421236,28.7891833 102.659944,28.2595139 C103.774653,27.7707903 104.771819,27.0443569 105.582556,26.1300292 C106.399319,25.1930972 107.022333,24.1004333 107.414139,22.9164917 C107.840389,21.6315847 108.050931,20.2836014 108.036292,18.9285569 L108.036292,1.09271556 C108.036292,0.489227361 108.525403,0 109.129042,0 C109.73225,0 110.221792,0.489223056 110.221792,1.09271556 L110.221792,18.9285569 C110.235569,20.5407722 109.967333,22.1427833 109.429139,23.6607069 C108.927972,25.0777083 108.151681,26.3793639 107.145903,27.4894653 C106.134958,28.5989208 104.902278,29.4787611 103.529236,30.0706028 C100.454639,31.3097847 97.0265556,31.3097847 93.9523889,30.0706028 C92.5784861,29.4798806 91.345375,28.5999111 90.3352917,27.4894653 C89.3282222,26.3804833 88.5515,25.0784833 88.0520556,23.6607069 C87.5138611,22.1427833 87.245625,20.5407722 87.2598333,18.9285569 L87.2598333,1.09697375 C87.2598333,0.491134722 87.7506667,0 88.3568889,0 C88.9626806,0 89.4535139,0.491134722 89.4535139,1.09697375 L89.4535139,18.9027667 C89.4414583,20.2597486 89.6545833,21.6091958 90.0842778,22.8949639 C90.4765139,24.0769681 91.0960833,25.1690722 91.9076806,26.1085444 C92.7110972,27.03045 93.7039583,27.7644611 94.8169444,28.2595139 C96.0560833,28.7937903 97.3938194,29.0548792 98.7405972,29.0252569 Z" id="Path" fill-rule="nonzero"></path>
            <path d="M131.841708,4.02634889 C131.748278,4.24865333 131.533,4.3927 131.294903,4.39226944 C131.021069,4.34602778 130.771347,4.20629528 130.586639,3.99621431 C130.218514,3.67963972 129.827569,3.39183056 129.416819,3.13525819 C128.836,2.76833444 128.216,2.47076458 127.568014,2.24846875 C125.745472,1.67761667 123.793764,1.69265167 121.980264,2.29151569 C121.210861,2.57383097 120.506472,3.01336361 119.911014,3.58295417 C119.360764,4.11328667 118.927194,4.75587361 118.639153,5.46844306 C118.354125,6.18200278 118.209889,6.94555 118.215056,7.71555556 C118.179319,8.61025 118.401917,9.49611806 118.855292,10.2640139 C119.297042,10.9511806 119.874417,11.5375972 120.55125,11.9858917 C121.299986,12.4778875 122.104264,12.8767972 122.946861,13.1740528 C123.83725,13.4925778 124.757347,13.8111458 125.698542,14.1254083 C126.639736,14.4396278 127.559833,14.7883347 128.449792,15.1628319 C129.309611,15.5227333 130.116042,16.0022861 130.845403,16.5877556 C131.548931,17.1634083 132.126736,17.8818333 132.541361,18.6970903 C132.99775,19.6688111 133.217333,20.7377514 133.181597,21.8137528 C133.192792,23.0385542 132.978375,24.2547014 132.549972,25.3996347 C132.134917,26.4961306 131.498125,27.4919194 130.680069,28.3225903 C129.824556,29.1762097 128.805861,29.8428389 127.686847,30.2812736 C126.392597,30.7788236 125.016972,31.0213556 123.633597,30.9958667 C121.880375,31.0433139 120.139639,30.6810014 118.545722,29.9369153 C117.455125,29.3924778 116.454083,28.6836542 115.57575,27.8362347 C115.102139,27.3787694 115.053917,26.6505278 115.404389,26.0927 C115.539153,25.8961083 115.757875,25.7762417 115.993819,25.7698694 C116.179819,25.7985875 116.351611,25.8894347 116.481208,26.0281597 L117.197653,26.6566417 C117.477514,26.9106264 117.816792,27.1818333 118.211181,27.4745681 C118.640444,27.7903375 119.098986,28.0627931 119.580347,28.2881458 C120.863833,28.8895028 122.262708,29.1924417 123.676222,29.1749611 C124.756056,29.1938194 125.829861,29.0084222 126.842958,28.6282417 C127.716986,28.2926667 128.514806,27.7800472 129.187764,27.1215556 C129.828,26.4906194 130.326583,25.7271583 130.650361,24.8830542 C130.993514,24.0006306 131.166167,23.0594361 131.159278,22.1107931 C131.195444,21.1841944 130.971986,20.2662069 130.514736,19.46335 C130.079014,18.7714042 129.500347,18.1839111 128.818778,17.7414292 C128.070903,17.2565806 127.267917,16.8649042 126.427472,16.5748389 C125.533208,16.2605764 124.617417,15.954925 123.671917,15.6535792 C122.726417,15.3522764 121.814931,15.0207917 120.920236,14.6462944 C120.057403,14.2945736 119.250111,13.815925 118.524625,13.2256764 C117.814639,12.6391736 117.236403,11.9053347 116.828667,11.0732861 C116.36625,10.0576486 116.145375,8.94578194 116.184556,7.8275 C116.184125,6.82068889 116.377014,5.82347917 116.752458,4.89162778 C117.132639,3.95304681 117.700111,3.10445625 118.418708,2.39913736 C119.202319,1.64908806 120.124569,1.06388125 121.132069,0.677220833 C122.306625,0.2154345 123.557389,-0.0139724319 124.816333,0.00136703111 C126.240181,-0.0210828847 127.654556,0.233163917 128.984111,0.750402361 C129.908944,1.1326625 130.769625,1.65336347 131.538597,2.2934575 C132.046222,2.71575931 132.143528,3.43928208 131.841708,4.02634889 Z" id="Path" fill-rule="nonzero"></path>
            <path d="M2.90218556,0 C1.29935208,0 0,1.29934778 0,2.90218125 L0,6.28301111 C0,7.88584028 1.29935208,9.18517083 2.90218125,9.18517083 L8.03692222,9.18517083 L8.03692222,28.0977972 C8.03692222,29.7006264 9.33629583,31 10.939125,31 L14.3199333,31 C15.9227625,31 17.2222222,29.7006264 17.2222222,28.0977972 L17.2222222,6.30759583 C17.2222222,6.29937222 17.2222222,6.29119167 17.2222222,6.28301111 L17.2222222,2.90218556 C17.2222222,1.29935208 15.9228486,0 14.3200194,0 L10.939125,0 L2.90218556,0 Z" id="Path"></path>
            <path d="M24.1113694,9.18517083 C26.6478153,9.18517083 28.7039764,7.12900972 28.7039764,4.59260694 C28.7039764,2.05617403 26.6478153,0 24.1113694,0 C21.5749667,0 19.5188056,2.05617403 19.5188056,4.59260694 C19.5188056,7.12900972 21.5749667,9.18517083 24.1113694,9.18517083 Z" id="Path" fill-rule="nonzero"></path>
        </g>
    </g>
</svg>