<?xml version="1.0" encoding="UTF-8"?>
<svg width="400px" height="400px" viewBox="0 0 400 400" version="1.1" xmlns="http://www.w3.org/2000/svg" xmlns:xlink="http://www.w3.org/1999/xlink">
    <title>solana</title>
    <defs>
        <linearGradient x1="3.03519451%" y1="92.2701159%" x2="96.9647613%" y2="7.72988405%" id="linearGradient-1">
            <stop stop-color="#9945FF" offset="0%"></stop>
            <stop stop-color="#7962E7" offset="20%"></stop>
            <stop stop-color="#00D18C" offset="100%"></stop>
        </linearGradient>
    </defs>
    <g id="Page-1" stroke="none" stroke-width="1" fill="none" fill-rule="evenodd">
        <g id="solana">
            <circle id="Oval" fill="#000000" fill-rule="nonzero" cx="200" cy="200" r="200"></circle>
            <path d="M123.42,255.13 C124.173,254.302 125.09,253.641 126.113,253.188 C127.135,252.735 128.242,252.501 129.36,252.5 L312.64,252.65 C313.421,252.652 314.184,252.88 314.837,253.307 C315.491,253.734 316.006,254.342 316.32,255.056 C316.635,255.77 316.735,256.561 316.609,257.331 C316.483,258.101 316.136,258.818 315.61,259.395 L276.58,302.37 C275.827,303.198 274.909,303.86 273.886,304.313 C272.862,304.766 271.755,305 270.635,305 L87.3602,304.85 C86.5797,304.848 85.8164,304.62 85.1631,304.193 C84.5098,303.766 83.9946,303.158 83.6801,302.444 C83.3656,301.73 83.2652,300.939 83.3913,300.169 C83.5173,299.399 83.8644,298.682 84.3902,298.105 L123.42,255.13 Z M315.61,219.355 C316.136,219.932 316.483,220.649 316.609,221.419 C316.735,222.189 316.635,222.98 316.32,223.694 C316.006,224.408 315.491,225.016 314.837,225.443 C314.184,225.87 313.421,226.098 312.64,226.1 L129.365,226.25 C128.246,226.25 127.139,226.016 126.115,225.563 C125.091,225.11 124.173,224.448 123.42,223.62 L84.3902,180.62 C83.8644,180.043 83.5173,179.326 83.3913,178.556 C83.2652,177.786 83.3656,176.995 83.6801,176.281 C83.9946,175.567 84.5098,174.959 85.1631,174.532 C85.8164,174.105 86.5797,173.877 87.3602,173.875 L270.64,173.725 C271.759,173.726 272.865,173.96 273.888,174.413 C274.911,174.866 275.828,175.527 276.58,176.355 L315.61,219.355 Z M123.42,97.63 C124.173,96.8023 125.09,96.1408 126.113,95.6879 C127.135,95.2351 128.242,95.0007 129.36,95 L312.64,95.15 C313.421,95.1516 314.184,95.3798 314.837,95.8069 C315.491,96.234 316.006,96.8416 316.32,97.5559 C316.635,98.2703 316.735,99.0606 316.609,99.8308 C316.483,100.601 316.136,101.318 315.61,101.895 L276.58,144.87 C275.827,145.698 274.909,146.36 273.886,146.813 C272.862,147.266 271.755,147.5 270.635,147.5 L87.3602,147.35 C86.5797,147.348 85.8164,147.12 85.1631,146.693 C84.5098,146.266 83.9946,145.658 83.6801,144.944 C83.3656,144.23 83.2652,143.439 83.3913,142.669 C83.5173,141.899 83.8644,141.182 84.3902,140.605 L123.42,97.63 Z" id="Shape" fill="url(#linearGradient-1)"></path>
        </g>
    </g>
</svg>