<?xml version="1.0" encoding="UTF-8"?>
<svg width="32px" height="32px" viewBox="0 0 32 32" version="1.1" xmlns="http://www.w3.org/2000/svg" xmlns:xlink="http://www.w3.org/1999/xlink">
    <title>Custom Preset 2</title>
    <g id="Custom-Preset-2" stroke="none" stroke-width="1" fill="none" fill-rule="evenodd">
        <g id="apple" transform="translate(7.000000, 6.000000)" fill="#161823">
            <path d="M13.2697,0 C13.409,1.18387 12.9052,2.34936 12.1683,3.20627 C11.3998,4.04939 10.1691,4.69506 8.9709,4.61148 C8.8148,3.47353 9.4213,2.26303 10.1009,1.52461 C10.8694,0.68607 12.2029,0.04409 13.2697,0 Z M17.1919,6.82358 C17.0541,6.90017 14.8421,8.1304 14.8666,10.6362 C14.8943,13.6652 17.7154,14.6654 17.7500015,14.6764 C17.7332,14.7462 17.3085,16.1211 16.2505,17.5162 C15.3665,18.7451 14.4399,19.9464 12.9701,19.9684 C12.2711,19.9833 11.7993,19.7962 11.3076,19.6013 C10.7945,19.3979 10.2598,19.1859 9.4229,19.1859 C8.5362,19.1859 7.9778,19.4046 7.4393,19.6155 C6.9737,19.7979 6.52296,19.9745 5.88762,19.9987 C4.48694,20.0474 3.41716,18.6872 2.50148,17.4694 C0.67209,14.9841 -0.75329,10.4644 1.1571,7.3895 C2.08266,5.88142 3.77178,4.90972 5.57548,4.884 C6.37005,4.86838 7.1322,5.15321 7.8003,5.40287 C8.3108,5.59363 8.7664,5.76386 9.1394,5.76386 C9.4677,5.76386 9.911,5.6002 10.4276,5.40949 C11.2414,5.10901 12.2371,4.74139 13.2516,4.84083 C13.945,4.8592 15.9206,5.09524 17.1949,6.8219 L17.1919,6.82358 Z" id="Shape"></path>
        </g>
    </g>
</svg>