<?xml version="1.0" encoding="UTF-8"?>
<svg width="245px" height="245px" viewBox="0 0 245 245" version="1.1" xmlns="http://www.w3.org/2000/svg" xmlns:xlink="http://www.w3.org/1999/xlink">
    <title>no-region-light</title>
    <defs>
        <linearGradient x1="53.2731972%" y1="89.6743582%" x2="47.8687377%" y2="16.5100828%" id="linearGradient-1">
            <stop stop-color="#FFFFFF" offset="0%"></stop>
            <stop stop-color="#FDFEFF" offset="100%"></stop>
        </linearGradient>
    </defs>
    <g id="Page-1" stroke="none" stroke-width="1" fill="none" fill-rule="evenodd">
        <g id="no-region-light">
            <circle id="Oval" fill-opacity="0.69" fill="#F3F6FF" fill-rule="nonzero" cx="122.5" cy="122.5" r="122.5"></circle>
            <path d="M157.587,66.6124 C148.434,57.6201 135.909,52 122.1,52 C108.29,52 95.7652,57.6201 86.6124,66.6124 C77.6201,75.7652 72,88.2901 72,102.1 C72,120.363 79.1447,137.245 88.6615,153.076 L99.8561,154.51 L104.593,139.626 L106.186,134.618 L111.109,136.459 L124.455,141.45 L132.241,130.161 L134.543,126.823 L138.284,128.386 L155.679,135.65 L166.901,130.088 C170.2,121.112 172.199,111.8 172.199,102.1 C172.199,88.2901 166.579,75.7652 157.587,66.6124 Z M160.487,144.428 L158.076,145.623 L156.033,146.635 L153.929,145.756 L138.171,139.176 L130.473,150.338 L128.259,153.549 L124.606,152.183 L112.528,147.666 L108.121,161.516 L106.857,165.489 L102.721,164.959 L95.696,164.059 C99.7432,170.054 103.981,175.9 108.126,181.618 L108.451,182.066 C109.273,183.217 110.095,184.326 110.981,185.522 C111.827,186.662 112.731,187.881 113.75,189.292 C114.713,190.737 115.998,191.701 117.443,192.504 C118.888,193.307 120.494,193.628 122.1,193.628 C123.705,193.628 125.311,193.307 126.756,192.664 C128.201,191.861 129.486,190.898 130.45,189.453 C132.537,186.723 134.143,184.475 135.749,182.227 C144.479,170.213 153.568,157.68 160.487,144.428 Z M138.799,85.3997 C134.464,81.0642 128.683,78.495 122.1,78.495 C115.677,78.495 109.735,81.0642 105.4,85.3997 C101.064,89.7353 98.495,95.516 98.495,102.1 C98.495,108.683 101.064,114.464 105.4,118.799 C109.735,123.135 115.516,125.704 122.1,125.704 C128.683,125.704 134.464,123.135 138.799,118.799 C143.135,114.464 145.704,108.683 145.704,102.1 C145.704,95.516 143.135,89.5747 138.799,85.3997 Z" id="Shape" fill="url(#linearGradient-1)"></path>
        </g>
    </g>
</svg>