<?xml version="1.0" encoding="UTF-8"?>
<svg width="76px" height="48px" viewBox="0 0 76 48" version="1.1" xmlns="http://www.w3.org/2000/svg" xmlns:xlink="http://www.w3.org/1999/xlink">
    <title>ramp</title>
    <g id="Page-1" stroke="none" stroke-width="1" fill="none" fill-rule="evenodd">
        <g id="ramp" fill-rule="nonzero">
            <path d="M51.6653,28.2464 L42.577,37.3681 C41.8071,38.1408 41.8078,39.397 42.5785,40.1688 L49.5234,47.1237 C50.7071,48.2921 52.6422,48.2921 53.8259,47.1237 L75.1123,26.114 C76.2959,24.9458 76.2959,23.0357 75.1123,21.8674 L53.8259,0.876182 C52.6422,-0.292061 50.7071,-0.292061 49.5234,0.876182 L42.5785,7.83117 C41.8078,8.60303 41.8071,9.85921 42.577,10.6319 L51.6653,19.7536 C54.0324,22.09 54.0324,25.9099 51.6653,28.2464 Z" id="Path" fill="#0A6E5C"></path>
            <path d="M24.3347,28.2464 L33.423,37.3681 C34.1929,38.1408 34.1922,39.397 33.4215,40.1688 L26.4766,47.1237 C25.2929,48.2921 23.3578,48.2921 22.1741,47.1237 L0.887717,26.114 C-0.295906,24.9458 -0.295906,23.0357 0.887717,21.8674 L22.1741,0.876182 C23.3578,-0.292061 25.2929,-0.292061 26.4766,0.876182 L33.4215,7.83117 C34.1922,8.60303 34.1929,9.85921 33.423,10.6319 L24.3347,19.7536 C21.9676,22.09 21.9676,25.9099 24.3347,28.2464 Z" id="Path" fill="#21BF73"></path>
            <path d="M26.7189,25.7356 C25.7604,24.777 25.7604,23.223 26.7189,22.2644 L36.2644,12.7189 C37.223,11.7604 38.777,11.7604 39.7356,12.7189 L49.2811,22.2644 C50.2396,23.223 50.2396,24.777 49.2811,25.7356 L39.7356,35.2811 C38.777,36.2396 37.223,36.2396 36.2644,35.2811 L26.7189,25.7356 Z" id="Path" fill="#21BF73"></path>
        </g>
    </g>
</svg>