<?xml version="1.0" encoding="UTF-8"?>
<svg width="117px" height="73px" viewBox="0 0 117 73" version="1.1" xmlns="http://www.w3.org/2000/svg" xmlns:xlink="http://www.w3.org/1999/xlink">
    <!-- Generator: Sketch 50.2 (55047) - http://www.bohemiancoding.com/sketch -->
    <title>mastercard</title>
    <desc>Created with Sketch.</desc>
    <defs></defs>
    <g id="Page-1" stroke="none" stroke-width="1" fill="none" fill-rule="evenodd">
        <g id="mastercard" transform="translate(-7.000000, -7.000000)" fill-rule="nonzero">
            <g id="Group" opacity="0" fill="#FFFFFF">
                <rect id="Rectangle-path" x="0" y="0" width="131.39" height="86.9"></rect>
            </g>
            <rect id="Rectangle-path" fill="#FF5F00" x="48.37" y="15.14" width="34.66" height="56.61"></rect>
            <path d="M51.94,43.45 C51.9312973,32.4050015 57.0016087,21.9693787 65.69,15.15 C50.9297903,3.55005178 29.7335373,5.23968455 16.9973979,19.0314698 C4.26125847,32.8232551 4.26125847,54.0867449 16.9973979,67.8785302 C29.7335373,81.6703154 50.9297903,83.3599482 65.69,71.76 C56.9988438,64.9384557 51.9282226,54.4985077 51.94,43.45 Z" id="Shape" fill="#EB001B"></path>
            <path d="M120.5,65.76 L120.5,64.6 L121,64.6 L121,64.36 L119.81,64.36 L119.81,64.6 L120.28,64.6 L120.28,65.76 L120.5,65.76 Z M122.81,65.76 L122.81,64.36 L122.45,64.36 L122.03,65.36 L121.61,64.36 L121.25,64.36 L121.25,65.76 L121.51,65.76 L121.51,64.7 L121.9,65.61 L122.17,65.61 L122.56,64.7 L122.56,65.76 L122.81,65.76 Z" id="Shape" fill="#F79E1B"></path>
            <path d="M123.94,43.45 C123.939679,57.2333804 116.069421,69.8066503 103.671755,75.8298939 C91.2740897,81.8531374 76.5255898,80.2688948 65.69,71.75 C74.3746003,64.9248318 79.4452933,54.4905965 79.4452933,43.445 C79.4452933,32.3994035 74.3746003,21.9651682 65.69,15.14 C76.5255898,6.62110517 91.2740897,5.03686258 103.671755,11.0601061 C116.069421,17.0833497 123.939679,29.6566196 123.94,43.44 L123.94,43.45 Z" id="Shape" fill="#F79E1B"></path>
        </g>
    </g>
</svg>